<svg width="108" height="32" viewBox="0 0 108 32" fill="none" xmlns="http://www.w3.org/2000/svg">
<path d="M106.298 27.9666C106.298 28.3657 106.219 28.7608 106.066 29.1295C105.913 29.4982 105.689 29.8331 105.407 30.1152C105.124 30.3973 104.789 30.6209 104.42 30.7733C104.051 30.9258 103.656 31.004 103.257 31.0036H3.73834C2.93174 31.0044 2.15783 30.685 1.58681 30.1154C1.01579 29.5459 0.694411 28.7729 0.693359 27.9666V3.74707C0.69441 2.94032 1.01566 2.16695 1.58657 1.59679C2.15748 1.02662 2.93138 0.706264 3.73834 0.706055H103.256C103.655 0.706055 104.051 0.784719 104.42 0.937554C104.789 1.09039 105.124 1.3144 105.407 1.5968C105.689 1.87919 105.913 2.21444 106.066 2.58338C106.219 2.95233 106.297 3.34776 106.297 3.74707L106.298 27.9666Z" fill="white"/>
<path d="M103.26 31.7098H3.74114C2.7475 31.7096 1.79453 31.3153 1.09132 30.6135C0.388118 29.9117 -0.007875 28.9596 -0.00976562 27.9662L-0.00976562 3.74755C-0.00829568 2.75367 0.387436 1.80096 1.09062 1.09841C1.7938 0.395862 2.74701 0.000838865 3.74114 0L103.259 0C104.253 0.00125744 105.206 0.396415 105.909 1.09888C106.612 1.80134 107.008 2.7538 107.01 3.74755V27.9662C107.011 30.0311 105.326 31.7098 103.26 31.7098Z" fill="#A6A6A6"/>
<path d="M106.298 27.9666C106.298 28.3657 106.219 28.7608 106.066 29.1295C105.913 29.4982 105.689 29.8331 105.407 30.1152C105.124 30.3973 104.789 30.6209 104.42 30.7733C104.051 30.9258 103.656 31.004 103.257 31.0036H3.73834C2.93174 31.0044 2.15783 30.685 1.58681 30.1154C1.01579 29.5459 0.694411 28.7729 0.693359 27.9666V3.74707C0.69441 2.94032 1.01566 2.16695 1.58657 1.59679C2.15748 1.02662 2.93138 0.706264 3.73834 0.706055H103.256C103.655 0.706055 104.051 0.784719 104.42 0.937554C104.789 1.09039 105.124 1.3144 105.407 1.5968C105.689 1.87919 105.913 2.21444 106.066 2.58338C106.219 2.95233 106.297 3.34776 106.297 3.74707L106.298 27.9666Z" fill="black"/>
<path d="M23.8892 15.6888C23.8662 13.1331 25.9823 11.8897 26.0791 11.8318C24.8806 10.0849 23.023 9.84624 22.3702 9.82721C20.8101 9.66307 19.2967 10.7605 18.5019 10.7605C17.6913 10.7605 16.4675 9.84307 15.1484 9.87003C13.451 9.8962 11.8631 10.8787 10.9922 12.4043C9.19487 15.5151 10.5353 20.0866 12.2573 22.6011C13.1187 23.8333 14.1252 25.2075 15.4427 25.1592C16.7316 25.1068 17.213 24.3384 18.7685 24.3384C20.3096 24.3384 20.7617 25.1592 22.1053 25.1282C23.4886 25.1068 24.3595 23.8912 25.1908 22.6486C26.1862 21.238 26.5859 19.8471 26.6018 19.7757C26.5701 19.7646 23.9161 18.7512 23.8892 15.6888ZM21.351 8.17309C22.0442 7.30638 22.5186 6.12725 22.3869 4.93066C21.3835 4.97507 20.1287 5.62451 19.4062 6.47219C18.7669 7.21916 18.1958 8.44349 18.3433 9.59487C19.4704 9.67893 20.6276 9.02632 21.351 8.17309Z" fill="white"/>
<path d="M103.26 0H49.9551L70.8337 31.7098H103.26C104.254 31.709 105.207 31.3142 105.91 30.612C106.613 29.9098 107.009 28.9575 107.011 27.9639V3.74755C107.009 2.75374 106.614 1.80115 105.91 1.09864C105.207 0.396139 104.254 0.00104823 103.26 0Z" fill="url(#paint0_linear_1680_22088)"/>
<path d="M42.5558 24.9824H40.7545L39.7678 21.8827H36.3381L35.3982 24.9824H33.6445L37.0433 14.4297H39.142L42.5558 24.9824ZM39.4704 20.5823L38.5781 17.8267C38.4837 17.5452 38.306 16.8823 38.0458 15.8387H38.0141C37.9094 16.2876 37.7421 16.9505 37.5128 17.8267L36.6356 20.5823H39.4704ZM51.2791 21.0842C51.2791 22.3783 50.9277 23.4012 50.2242 24.1522C49.5944 24.8206 48.8116 25.1545 47.878 25.1545C46.8699 25.1545 46.1449 24.7953 45.7047 24.0753V28.0678H44.0137V19.8741C44.0137 19.0613 43.9922 18.2279 43.951 17.3731H45.4382L45.5326 18.5792H45.5643C46.1283 17.6705 46.9841 17.2161 48.1326 17.2161C49.0305 17.2161 49.78 17.5706 50.3796 18.2803C50.9785 18.9916 51.2791 19.9257 51.2791 21.0842ZM49.5563 21.1461C49.5563 20.4054 49.3898 19.7948 49.0551 19.3135C48.6894 18.8132 48.1984 18.5626 47.5829 18.5626C47.1657 18.5626 46.7866 18.7021 46.4479 18.9773C46.1084 19.2548 45.8863 19.6172 45.7824 20.066C45.736 20.2339 45.7097 20.4066 45.7039 20.5807V21.8502C45.7039 22.4029 45.8736 22.87 46.2131 23.2522C46.5526 23.6328 46.9936 23.8239 47.5361 23.8239C48.173 23.8239 48.6688 23.5773 49.0233 23.088C49.3787 22.5972 49.5563 21.9501 49.5563 21.1461ZM60.0333 21.0842C60.0333 22.3783 59.682 23.4012 58.9784 24.1522C58.3478 24.8206 57.5658 25.1545 56.6314 25.1545C55.6233 25.1545 54.8983 24.7953 54.4581 24.0753V28.0678H52.7671V19.8741C52.7671 19.0613 52.7457 18.2279 52.7044 17.3731H54.1916L54.286 18.5792H54.3177C54.8809 17.6705 55.7367 17.2161 56.886 17.2161C57.7831 17.2161 58.5327 17.5706 59.1339 18.2803C59.7319 18.9916 60.0333 19.9257 60.0333 21.0842ZM58.3098 21.1461C58.3098 20.4054 58.1424 19.7948 57.8077 19.3135C57.442 18.8132 56.9527 18.5626 56.3372 18.5626C55.92 18.5626 55.5408 18.7021 55.2005 18.9773C54.8611 19.2548 54.6398 19.6172 54.5359 20.066C54.4843 20.2754 54.4565 20.4459 54.4565 20.5807V21.8502C54.4565 22.4029 54.6271 22.87 54.965 23.2522C55.3044 23.632 55.7455 23.8239 56.2896 23.8239C56.9273 23.8239 57.423 23.5773 57.7768 23.088C58.1321 22.5972 58.3098 21.9501 58.3098 21.1461ZM69.8211 22.0223C69.8211 22.9207 69.507 23.651 68.8827 24.2148C68.1959 24.8302 67.2369 25.1386 66.0075 25.1386C64.8717 25.1386 63.9611 24.9198 63.2742 24.4813L63.6653 23.0722C64.4069 23.5115 65.2215 23.7303 66.1082 23.7303C66.7459 23.7303 67.2417 23.586 67.5954 23.2997C67.95 23.0127 68.1292 22.6289 68.1292 22.1499C68.1292 21.7209 67.9809 21.3617 67.6898 21.0691C67.3971 20.7773 66.9133 20.5053 66.2336 20.2556C64.3855 19.5665 63.4606 18.5586 63.4606 17.2328C63.4606 16.3669 63.7874 15.658 64.4394 15.1037C65.0914 14.5502 65.9559 14.2734 67.0315 14.2734C67.992 14.2734 68.7923 14.4408 69.4277 14.7746L69.0033 16.1528C68.4053 15.8292 67.7303 15.6675 66.9752 15.6675C66.3787 15.6675 65.9107 15.8142 65.576 16.106C65.2944 16.3669 65.1517 16.6848 65.1517 17.0623C65.1517 17.4786 65.3143 17.8243 65.6379 18.0955C65.9187 18.3453 66.4311 18.6173 67.1719 18.9091C68.0808 19.2754 68.7487 19.7021 69.1762 20.1921C69.6069 20.6822 69.8211 21.2935 69.8211 22.0223ZM75.4264 18.6419H73.5625V22.3363C73.5625 23.2759 73.8908 23.7446 74.5492 23.7446C74.8514 23.7446 75.102 23.7192 75.3003 23.6661L75.3471 24.9499C75.014 25.0744 74.5753 25.137 74.032 25.137C73.3642 25.137 72.8423 24.9332 72.4655 24.5257C72.0903 24.1181 71.9016 23.4353 71.9016 22.4743V18.6387H70.7911V17.37H71.9016V15.9767L73.5625 15.4756V17.37H75.4264V18.6419ZM83.8197 21.1151C83.8197 22.2847 83.485 23.245 82.8172 23.996C82.1184 24.7691 81.1888 25.1545 80.03 25.1545C78.9116 25.1545 78.0225 24.7842 77.3594 24.0443C76.6963 23.3029 76.3647 22.3688 76.3647 21.242C76.3647 20.0629 76.7074 19.097 77.3903 18.3461C78.0748 17.5944 78.9965 17.2185 80.1553 17.2185C81.2721 17.2185 82.1692 17.5896 82.8481 18.3302C83.4969 19.0487 83.8197 19.9764 83.8197 21.1151ZM82.0668 21.154C82.0668 20.457 81.9161 19.8591 81.6139 19.3587C81.2594 18.7545 80.7518 18.4524 80.0942 18.4524C79.4169 18.4524 78.8973 18.7545 78.5436 19.3587C78.2406 19.8591 78.0899 20.4673 78.0899 21.1857C78.0899 21.8835 78.2406 22.483 78.5436 22.9818C78.9092 23.586 79.4192 23.8881 80.0799 23.8881C80.7264 23.8881 81.2332 23.5797 81.5997 22.9667C81.9106 22.4544 82.0668 21.8526 82.0668 21.154ZM89.3188 18.8599C89.1429 18.8282 88.9645 18.8125 88.7858 18.8132C88.1909 18.8132 87.7309 19.0368 87.4073 19.4872C87.1265 19.8837 86.9853 20.3848 86.9853 20.9898V24.9824H85.2942V19.7695C85.2958 18.9707 85.2794 18.172 85.2451 17.3739H86.718L86.7799 18.8298H86.8267C87.0059 18.3294 87.2867 17.9258 87.6722 17.6237C88.025 17.3597 88.4537 17.2168 88.8945 17.2161C89.0507 17.2161 89.1919 17.2272 89.3172 17.2471L89.3188 18.8599ZM96.8817 20.8178C96.886 21.0748 96.8653 21.3316 96.8198 21.5846H91.7467C91.7657 22.3363 92.0116 22.912 92.4828 23.3085C92.9103 23.6621 93.4631 23.8397 94.1421 23.8397C94.8932 23.8397 95.5785 23.7208 96.1948 23.4805L96.4597 24.6533C95.7395 24.9673 94.8892 25.1236 93.9081 25.1236C92.7278 25.1236 91.8014 24.7762 91.1272 24.0832C90.4546 23.3893 90.1175 22.4568 90.1175 21.2888C90.1175 20.1422 90.4308 19.1866 91.0582 18.4246C91.715 17.611 92.6025 17.2042 93.7193 17.2042C94.8163 17.2042 95.6467 17.611 96.2107 18.4246C96.6572 19.0693 96.8817 19.8686 96.8817 20.8178ZM95.2692 20.3793C95.2811 19.8773 95.17 19.4451 94.9408 19.0796C94.6481 18.6086 94.1976 18.3739 93.594 18.3739C93.0412 18.3739 92.5906 18.603 92.248 19.0629C91.9664 19.4285 91.799 19.8678 91.7475 20.3777L95.2692 20.3793Z" fill="white"/>
<path d="M35.8507 10.6988C35.3803 10.6988 34.9734 10.6758 34.6348 10.637V5.53507C35.1085 5.46191 35.5871 5.42586 36.0664 5.42722C38.0057 5.42722 38.8989 6.38116 38.8989 7.93616C38.8989 9.72984 37.8439 10.6988 35.8507 10.6988ZM36.1347 6.08142C35.8729 6.08142 35.65 6.09728 35.4652 6.13534V10.0137C35.5652 10.0296 35.7571 10.0367 36.0268 10.0367C37.2974 10.0367 38.0208 9.31354 38.0208 7.95916C38.0208 6.75147 37.3664 6.08142 36.1347 6.08142ZM41.6821 10.7377C40.5891 10.7377 39.8808 9.92174 39.8808 8.81397C39.8808 7.65942 40.6042 6.83632 41.744 6.83632C42.8211 6.83632 43.5452 7.61342 43.5452 8.75291C43.5452 9.92174 42.7989 10.7377 41.6821 10.7377ZM41.7138 7.44373C41.1134 7.44373 40.7287 8.00515 40.7287 8.79018C40.7287 9.56015 41.1213 10.1216 41.7059 10.1216C42.2905 10.1216 42.6831 9.5213 42.6831 8.77432C42.6831 8.01308 42.2984 7.44373 41.7138 7.44373ZM49.778 6.91324L48.6081 10.6529H47.8458L47.3612 9.02886C47.2407 8.63163 47.1404 8.22855 47.0606 7.82118H47.0447C46.9836 8.22877 46.8678 8.63714 46.7449 9.02886L46.2293 10.6529H45.4592L44.3582 6.91324H45.2125L45.636 8.69106C45.736 9.1145 45.8201 9.51416 45.8899 9.89161H45.9057C45.9668 9.5768 46.0667 9.18349 46.2135 8.69899L46.7449 6.91403H47.4223L47.9307 8.66093C48.0536 9.08437 48.1536 9.49989 48.2313 9.8924H48.2535C48.3074 9.50781 48.3923 9.09944 48.5073 8.66093L48.9618 6.91403L49.778 6.91324ZM54.0849 10.6529H53.2537V8.50551C53.2537 7.84418 52.9998 7.51272 52.4994 7.51272C52.0068 7.51272 51.6681 7.93616 51.6681 8.42859V10.6529H50.8369V7.98215C50.8369 7.65149 50.8289 7.29703 50.8059 6.91245H51.5372L51.5761 7.48972H51.5991C51.8228 7.09007 52.2765 6.83632 52.7849 6.83632C53.5701 6.83632 54.0857 7.43659 54.0857 8.41353L54.0849 10.6529ZM56.3772 10.6529H55.5451V5.19727H56.3772V10.6529ZM59.4079 10.7377C58.3157 10.7377 57.6066 9.92174 57.6066 8.81397C57.6066 7.65942 58.33 6.83632 59.469 6.83632C60.5469 6.83632 61.2702 7.61342 61.2702 8.75291C61.271 9.92174 60.5239 10.7377 59.4079 10.7377ZM59.4388 7.44373C58.8384 7.44373 58.4537 8.00515 58.4537 8.79018C58.4537 9.56015 58.8471 10.1216 59.4301 10.1216C60.0154 10.1216 60.4073 9.5213 60.4073 8.77432C60.4081 8.01308 60.0242 7.44373 59.4388 7.44373ZM64.5476 10.6529L64.4873 10.2223H64.4651C64.2113 10.5688 63.8409 10.7377 63.3714 10.7377C62.7011 10.7377 62.2252 10.2683 62.2252 9.63707C62.2252 8.71406 63.0255 8.23669 64.4112 8.23669V8.16771C64.4112 7.67528 64.1502 7.42866 63.6347 7.42866C63.2659 7.42866 62.9423 7.52144 62.6575 7.7062L62.4886 7.15985C62.8344 6.94416 63.2659 6.83632 63.7727 6.83632C64.7499 6.83632 65.2432 7.35175 65.2432 8.38339V9.76077C65.2432 10.1382 65.2599 10.4308 65.2972 10.6536L64.5476 10.6529ZM64.4334 8.79018C63.5102 8.79018 63.0469 9.0138 63.0469 9.54429C63.0469 9.93681 63.2857 10.1287 63.6172 10.1287C64.04 10.1287 64.4334 9.80597 64.4334 9.36746V8.79018ZM69.2797 10.6529L69.2408 10.0526H69.2178C68.9791 10.5062 68.5777 10.7377 68.017 10.7377C67.1151 10.7377 66.4473 9.94474 66.4473 8.82904C66.4473 7.65942 67.1397 6.83553 68.0852 6.83553C68.5857 6.83553 68.9402 7.00443 69.1401 7.34382H69.1567V5.19727H69.9888V9.645C69.9888 10.0066 69.9975 10.3452 70.0197 10.6529H69.2797ZM69.1567 8.45238C69.1567 7.92902 68.8101 7.48259 68.2811 7.48259C67.6648 7.48259 67.288 8.02894 67.288 8.79811C67.288 9.55222 67.6791 10.0684 68.2644 10.0684C68.7871 10.0684 69.1567 9.61407 69.1567 9.07565V8.45238ZM75.2642 10.7377C74.172 10.7377 73.4637 9.92174 73.4637 8.81397C73.4637 7.65942 74.187 6.83632 75.326 6.83632C76.4039 6.83632 77.1273 7.61342 77.1273 8.75291C77.1281 9.92174 76.3817 10.7377 75.2642 10.7377ZM75.2951 7.44373C74.6955 7.44373 74.3108 8.00515 74.3108 8.79018C74.3108 9.56015 74.7034 10.1216 75.2872 10.1216C75.8725 10.1216 76.2644 9.5213 76.2644 8.77432C76.2659 8.01308 75.8812 7.44373 75.2951 7.44373ZM81.5976 10.6529H80.7656V8.50551C80.7656 7.84418 80.5118 7.51272 80.0113 7.51272C79.5187 7.51272 79.1808 7.93616 79.1808 8.42859V10.6529H78.3488V7.98215C78.3488 7.65149 78.3409 7.29703 78.3179 6.91245H79.0492L79.088 7.48972H79.111C79.3339 7.09007 79.7884 6.83553 80.296 6.83553C81.0813 6.83553 81.5976 7.4358 81.5976 8.41273V10.6529ZM87.1903 7.53651H86.2758V9.35239C86.2758 9.81469 86.436 10.0454 86.7596 10.0454C86.9063 10.0454 87.0293 10.0296 87.1284 10.0066L87.1514 10.6378C86.9904 10.6996 86.7747 10.7306 86.5066 10.7306C85.8514 10.7306 85.4596 10.369 85.4596 9.42217V7.53651H84.9139V6.91324H85.4596V6.22812L86.2758 5.98151V6.91245H87.1903V7.53651ZM91.5908 10.6529H90.7603V8.52137C90.7603 7.85211 90.5073 7.51351 90.006 7.51351C89.5753 7.51351 89.174 7.80612 89.174 8.39846V10.6529H88.3436V5.19727H89.174V7.44373H89.1907C89.4524 7.03615 89.8315 6.83553 90.3154 6.83553C91.107 6.83553 91.5908 7.45087 91.5908 8.42859V10.6529ZM96.0992 8.98287H93.6047C93.6205 9.69099 94.0893 10.0906 94.7833 10.0906C95.1521 10.0906 95.4916 10.0288 95.7914 9.91381L95.9207 10.4911C95.567 10.6449 95.1505 10.7218 94.6659 10.7218C93.496 10.7218 92.8036 9.9828 92.8036 8.83697C92.8036 7.69034 93.5126 6.82839 94.5723 6.82839C95.5281 6.82839 96.1277 7.53651 96.1277 8.60622C96.1331 8.73245 96.1235 8.85889 96.0992 8.98287ZM95.3369 8.39053C95.3369 7.81325 95.0458 7.40567 94.5144 7.40567C94.0369 7.40567 93.6594 7.82118 93.6054 8.39053H95.3369Z" fill="white"/>
<defs>
<linearGradient id="paint0_linear_1680_22088" x1="78.4822" y1="31.794" x2="78.4822" y2="-82.5669" gradientUnits="userSpaceOnUse">
<stop stop-color="#1A1A1A" stop-opacity="0.1"/>
<stop offset="0.123" stop-color="#212121" stop-opacity="0.151"/>
<stop offset="0.308" stop-color="#353535" stop-opacity="0.227"/>
<stop offset="0.532" stop-color="#575757" stop-opacity="0.318"/>
<stop offset="0.783" stop-color="#858585" stop-opacity="0.421"/>
<stop offset="1" stop-color="#B3B3B3" stop-opacity="0.51"/>
</linearGradient>
</defs>
</svg>
