<svg width="40" height="40" viewBox="0 0 40 40" fill="none" xmlns="http://www.w3.org/2000/svg">
<rect width="40" height="40" rx="4" fill="#4DA452" fill-opacity="0.08"/>
<rect x="0.5" y="0.5" width="39" height="39" rx="3.5" stroke="#4DA452" stroke-opacity="0.4"/>
<path d="M9.8 12.875C8.80625 12.875 8 13.6729 8 14.6562C8 15.2166 8.26625 15.7436 8.72 16.0812L16.88 22.1375C17.3075 22.4529 17.8925 22.4529 18.32 22.1375L20.4725 20.5418C21.3688 18.3227 23.4613 16.7084 25.9587 16.4672L26.48 16.0812C26.9338 15.7436 27.2 15.2166 27.2 14.6562C27.2 13.6729 26.3938 12.875 25.4 12.875H9.8ZM19.04 23.0875C18.185 23.7221 17.015 23.7221 16.16 23.0875L8 17.0312V24.75C8 26.06 9.07625 27.125 10.4 27.125H21.5075C20.5663 25.9969 20 24.5459 20 22.9688C20 22.7609 20.0113 22.5568 20.03 22.3527L19.04 23.0875ZM32 22.9688C32 21.5515 31.4311 20.1923 30.4184 19.1901C29.4057 18.188 28.0322 17.625 26.6 17.625C25.1678 17.625 23.7943 18.188 22.7816 19.1901C21.7689 20.1923 21.2 21.5515 21.2 22.9688C21.2 24.386 21.7689 25.7452 22.7816 26.7474C23.7943 27.7495 25.1678 28.3125 26.6 28.3125C28.0322 28.3125 29.4057 27.7495 30.4184 26.7474C31.4311 25.7452 32 24.386 32 22.9688ZM29.1238 21.3619C29.3563 21.592 29.3563 21.9705 29.1238 22.2006L26.4237 24.8725C26.1912 25.1025 25.8088 25.1025 25.5763 24.8725L24.0763 23.3881C23.8438 23.158 23.8438 22.7795 24.0763 22.5494C24.3088 22.3193 24.6912 22.3193 24.9237 22.5494L26 23.6145L28.2763 21.3619C28.5088 21.1318 28.8913 21.1318 29.1238 21.3619Z" fill="#4DA452"/>
</svg>
