<svg width="500" height="500" viewBox="0 0 500 500" fill="none" xmlns="http://www.w3.org/2000/svg">
<path d="M464.497 113.473C462.913 110.786 461.251 108.15 459.51 105.57C436.327 71.2241 396.439 47.7321 357.198 37.1121C340.014 32.4611 322.268 30.0231 304.487 29.4201C187.873 25.4671 141.425 117.375 102.883 141.093C64.3415 164.811 5.04549 205.329 8.99849 290.319C12.9515 375.309 74.2235 455.358 192.814 460.3C311.405 465.241 319.311 411.876 385.524 392.11C429.343 379.03 460.476 334.85 475.721 294.022C496.496 238.38 495.517 166.106 464.497 113.473Z" fill="#FF8200"/>
<path opacity="0.7" d="M464.497 113.473C462.913 110.786 461.251 108.15 459.51 105.57C436.327 71.2241 396.439 47.7321 357.198 37.1121C340.014 32.4611 322.268 30.0231 304.487 29.4201C187.873 25.4671 141.425 117.375 102.883 141.093C64.3415 164.811 5.04549 205.329 8.99849 290.319C12.9515 375.309 74.2235 455.358 192.814 460.3C311.405 465.241 319.311 411.876 385.524 392.11C429.343 379.03 460.476 334.85 475.721 294.022C496.496 238.38 495.517 166.106 464.497 113.473Z" fill="white"/>
<path d="M438.561 121.493V118.197H377.696V69.417H375.718V118.197H315.293V121.493H375.718V166.652H315.293V169.948H375.718V215.107H315.293V218.403H375.718V265.854H377.696V218.403H438.561V215.107H377.696V169.948H438.561V166.652H377.696V121.493H438.561Z" fill="#263238" stroke="#263238" stroke-miterlimit="10"/>
<path d="M311.117 65.4619V271.128H442.295V65.4619H311.117ZM437.867 264.185H315.546V72.4049H437.867V264.185Z" fill="#263238" stroke="#263238" stroke-miterlimit="10"/>
<path d="M253.995 323.918L253.997 323.912C254.017 323.862 253.993 323.805 253.943 323.784C253.892 323.762 253.833 323.785 253.811 323.836C250.78 330.835 248.65 338.182 246.87 345.593C245.153 353.024 243.91 360.563 243.041 368.149L242.498 373.85C242.414 374.801 242.311 375.751 242.243 376.703L242.087 379.563C242.005 381.471 241.888 383.379 241.834 385.288L241.886 391.018L241.95 393.881C241.992 394.835 242.061 395.787 242.126 396.74C242.27 398.644 242.387 400.549 242.561 402.449C242.926 406.247 243.497 410.025 244.085 413.787C244.092 413.835 244.134 413.872 244.185 413.872C244.24 413.872 244.285 413.827 244.285 413.771V413.766C244.275 411.856 244.194 409.957 244.152 408.056C244.097 406.157 243.932 404.267 243.958 402.367C243.967 400.468 243.917 398.574 243.896 396.68L243.843 393.84L243.894 391L243.92 385.323L244.074 379.649L244.133 376.81C244.169 375.864 244.24 374.921 244.292 373.975L244.641 368.304C245.305 360.758 246.342 353.239 247.853 345.807C249.359 338.383 251.225 330.987 253.995 323.918Z" fill="#263238"/>
<path d="M254.808 353.604C254.822 353.553 254.796 353.496 254.745 353.479C254.693 353.461 254.635 353.489 254.617 353.541C252.983 358.258 251.679 363.083 250.576 367.959C249.522 372.843 248.695 377.792 248.19 382.778C247.686 387.746 247.13 392.72 247.062 397.715C246.985 402.708 247.065 407.707 247.593 412.695C247.598 412.741 247.635 412.78 247.683 412.785C247.739 412.791 247.788 412.751 247.794 412.695C248.371 407.722 248.723 402.76 249.067 397.801C249.419 392.844 249.467 387.872 249.79 382.913C250.09 377.969 250.71 373.045 251.561 368.153C252.395 363.259 253.435 358.385 254.808 353.604Z" fill="#263238"/>
<path d="M271.264 364.047C271.234 364 271.172 363.986 271.126 364.016C267.006 366.624 263.332 369.909 260.121 373.61C258.543 375.488 257.076 377.455 255.818 379.593L254.934 381.262L254.242 382.996C253.993 383.571 253.818 384.163 253.638 384.754C253.46 385.345 253.261 385.934 253.102 386.53C251.866 391.3 251.047 396.16 250.825 401.047C250.626 405.93 250.719 410.82 251.371 415.669C251.378 415.715 251.416 415.753 251.464 415.756C251.519 415.76 251.568 415.718 251.572 415.663L252.826 401.189C253.326 396.404 253.632 391.591 254.659 386.918C254.79 386.336 254.957 385.767 255.104 385.19C255.253 384.614 255.398 384.034 255.612 383.486L256.2 381.813L256.956 380.233C258.071 378.142 259.434 376.142 260.899 374.246C263.838 370.453 267.296 366.996 271.232 364.189L271.238 364.185C271.281 364.152 271.293 364.092 271.264 364.047Z" fill="#263238"/>
<path d="M263.301 382.643C261.058 384.091 259.558 386.368 258.297 388.659C257.095 391.001 256.148 393.483 255.493 396.029C255.296 396.66 255.141 397.298 255.004 397.941L254.55 399.865C254.319 401.157 254.137 402.464 254.064 403.774C254.047 405.087 254.009 406.399 254.098 407.708C254.207 409.017 254.356 410.322 254.614 411.617C254.623 411.654 254.654 411.689 254.694 411.697C254.749 411.708 254.803 411.672 254.814 411.617C255.131 410.326 255.339 409.046 255.507 407.769C255.71 406.495 255.909 405.229 256.061 403.962C256.247 402.7 256.414 401.442 256.512 400.17C256.688 398.916 256.781 397.633 257.056 396.394C257.496 393.885 258.222 391.435 259.202 389.093C260.178 386.77 261.449 384.455 263.404 382.818L263.419 382.805C263.457 382.773 263.466 382.717 263.439 382.675C263.409 382.626 263.347 382.613 263.301 382.643Z" fill="#263238"/>
<path d="M240.22 397.141C239.679 390.716 238.619 384.355 237.617 377.996C236.612 371.637 235.505 365.298 234.341 358.97C233.137 352.649 231.877 346.341 230.515 340.055C230.503 340.003 230.452 339.968 230.399 339.977C230.344 339.987 230.308 340.039 230.318 340.094C231.418 346.428 232.413 352.78 233.352 359.137C234.316 365.49 235.224 371.851 236.028 378.223C236.813 384.598 237.425 390.988 238.224 397.351L240.574 416.478C240.58 416.526 240.619 416.565 240.669 416.567C240.724 416.57 240.771 416.527 240.774 416.471C240.847 414.859 240.849 413.248 240.889 411.632C240.903 410.017 240.823 408.409 240.795 406.795C240.736 403.567 240.461 400.356 240.22 397.141Z" fill="#263238"/>
<path d="M236.366 397.048C236.022 394.503 235.555 391.973 235.069 389.451L234.166 385.7C233.871 384.449 233.59 383.196 233.224 381.961C231.942 376.984 230.304 372.091 228.314 367.35L227.543 365.582L226.687 363.852C226.143 362.687 225.484 361.578 224.859 360.455C223.516 358.267 222.122 356.08 220.222 354.306C220.183 354.27 220.123 354.27 220.084 354.307C220.044 354.345 220.043 354.409 220.081 354.448L220.09 354.458C221.846 356.278 223.126 358.526 224.332 360.747C224.891 361.89 225.481 363.013 225.959 364.192L226.715 365.941L227.383 367.726C229.163 372.483 230.592 377.372 231.666 382.342C232.251 384.814 232.64 387.334 233.118 389.826L233.719 393.592C233.937 394.844 234.205 396.087 234.381 397.347C234.782 399.859 235.244 402.364 235.683 404.878C236.072 407.398 236.533 409.914 237.064 412.433C237.074 412.478 237.115 412.516 237.163 412.516C237.219 412.516 237.265 412.471 237.265 412.416C237.276 409.849 237.217 407.28 237.086 404.716C236.936 402.154 236.633 399.603 236.366 397.048Z" fill="#263238"/>
<path d="M231.049 397.376C229.858 394.005 228.481 390.705 226.98 387.469C225.44 384.251 223.777 381.094 221.863 378.087C221.833 378.045 221.773 378.028 221.727 378.054C221.679 378.082 221.663 378.144 221.692 378.192C223.364 381.315 224.778 384.573 226.06 387.867C227.364 391.153 228.54 394.488 229.525 397.876C230.53 401.26 231.249 404.71 232.15 408.109C233.097 411.506 233.862 414.938 234.907 418.378C234.92 418.419 234.958 418.452 235.003 418.453C235.059 418.454 235.105 418.409 235.106 418.353C235.157 414.764 234.804 411.177 234.106 407.664C233.476 404.128 232.233 400.745 231.049 397.376Z" fill="#263238"/>
<path d="M230.828 408.605C230.219 406.494 229.18 404.527 228 402.674C226.841 400.811 225.496 399.05 223.883 397.558C223.053 396.839 222.203 396.146 221.264 395.583C220.339 395.005 219.358 394.517 218.294 394.24C218.248 394.228 218.198 394.251 218.178 394.296C218.156 394.346 218.178 394.405 218.229 394.428L218.241 394.433C220.166 395.289 221.793 396.708 223.168 398.26C224.562 399.815 225.674 401.599 226.601 403.458C227.576 405.304 228.08 407.344 228.928 409.245C229.302 410.22 229.674 411.201 230.106 412.174C230.473 413.167 230.88 414.158 231.398 415.143L231.401 415.148C231.417 415.179 231.45 415.201 231.488 415.203C231.545 415.205 231.593 415.161 231.595 415.104C231.641 414.005 231.577 412.911 231.472 411.82C231.314 410.742 231.086 409.671 230.828 408.605Z" fill="#263238"/>
<path d="M231.226 349.253C231.226 349.253 220.697 346.823 218.268 335.485C215.838 324.146 223.667 329.006 216.648 311.188C209.629 293.37 211.249 289.321 213.678 284.192C216.108 279.062 217.458 280.682 219.617 287.432C221.777 294.181 229.606 304.71 232.575 324.417C235.544 344.124 231.226 349.253 231.226 349.253Z" fill="#FF8200"/>
<path d="M252.014 330.086C252.014 330.086 244.995 327.656 244.725 314.428C244.455 301.2 249.854 303.899 250.664 287.431C251.474 270.963 252.554 259.355 255.523 259.085C258.493 258.815 266.322 267.184 269.021 285.542C271.721 303.9 265.511 316.048 260.112 321.447C254.713 326.846 252.014 330.086 252.014 330.086Z" fill="#FF8200"/>
<path d="M227.447 365.181C227.447 365.181 225.827 355.462 222.588 350.873C219.348 346.284 212.329 342.234 207.74 333.325C203.151 324.416 198.021 320.097 198.291 332.785C198.561 345.473 204.23 351.953 211.249 356.272C218.268 360.592 227.447 365.181 227.447 365.181Z" fill="#FF8200"/>
<path d="M224.477 381.919C224.477 381.919 217.998 369.501 208.549 360.322C199.1 351.143 191.541 346.554 194.241 351.143C196.941 355.732 200.18 355.462 204.77 363.561C209.359 371.66 208.01 377.599 214.489 382.189C220.968 386.779 224.477 381.919 224.477 381.919Z" fill="#FF8200"/>
<path d="M223.668 397.847C223.398 397.037 223.128 391.098 213.949 386.238C204.77 381.379 196.131 383.268 197.211 385.698C198.291 388.128 203.96 392.177 209.629 394.607C215.299 397.037 223.668 397.847 223.668 397.847Z" fill="#FF8200"/>
<path d="M251.475 365.721C251.475 365.721 247.426 360.592 249.585 349.793C251.745 338.994 256.604 341.694 262.003 336.025C267.402 330.356 266.322 329.546 271.722 323.607C277.121 317.668 281.981 314.428 284.14 316.858C286.3 319.288 283.06 326.847 279.821 331.166C276.581 335.486 271.452 337.645 269.022 343.045C266.592 348.444 267.672 357.083 261.463 361.133C255.254 365.181 251.475 365.721 251.475 365.721Z" fill="#FF8200"/>
<path d="M264.973 368.691C264.973 368.691 274.692 357.623 281.711 349.523C288.73 341.424 291.43 335.215 291.7 340.614C291.97 346.013 294.13 350.333 288.46 357.352C282.791 364.371 264.973 368.691 264.973 368.691Z" fill="#FF8200"/>
<path d="M259.844 386.509C259.844 386.509 259.574 382.19 274.962 372.201C290.35 362.212 296.829 360.323 295.209 364.372C293.589 368.421 286.84 372.471 279.551 379.76C272.262 387.049 259.844 386.509 259.844 386.509Z" fill="#FF8200"/>
<path d="M231.868 348.103C231.868 348.103 228.256 328.736 224.477 314.968C220.697 301.2 218.268 292.831 218.268 292.831" stroke="#263238" stroke-miterlimit="10" stroke-linecap="round" stroke-linejoin="round"/>
<path d="M251.393 330.289C251.393 330.289 257.954 309.298 260.114 296.609C262.274 283.921 259.844 274.472 258.764 268.803" stroke="#263238" stroke-miterlimit="10" stroke-linecap="round" stroke-linejoin="round"/>
<path d="M226.596 364.776C226.596 364.776 222.588 357.622 216.648 350.603C210.709 343.584 206.119 339.805 203.42 333.055" stroke="#263238" stroke-miterlimit="10" stroke-linecap="round" stroke-linejoin="round"/>
<path d="M251.475 365.721C251.475 365.721 253.635 352.763 258.764 346.014C263.893 339.265 274.152 328.736 278.202 321.987" stroke="#263238" stroke-miterlimit="10" stroke-linecap="round" stroke-linejoin="round"/>
<path d="M223.033 397.552C223.033 397.552 213.948 391.638 207.469 388.398" stroke="#263238" stroke-miterlimit="10" stroke-linecap="round" stroke-linejoin="round"/>
<path d="M252.892 454.81H234.129L224.748 407.836H262.273L252.892 454.81Z" fill="#263238" stroke="#263238" stroke-miterlimit="10" stroke-linecap="round" stroke-linejoin="round"/>
<path d="M64.8027 454.81H489.977" stroke="#263238" stroke-miterlimit="10"/>
<path d="M31.1836 454.81H57.5516" stroke="#263238" stroke-miterlimit="10"/>
<path d="M216.143 167.01V135.511H213.294V95.1861C213.294 81.4581 202.164 70.3291 188.436 70.3291H54.9195C41.1915 70.3291 30.0625 81.4581 30.0625 95.1861V412.619C30.0625 426.347 41.1915 437.476 54.9195 437.476H188.436C202.164 437.476 213.294 426.347 213.294 412.619V193.855H216.143V175.242H213.294V167.009L216.143 167.01Z" fill="#707070" stroke="#263238" stroke-miterlimit="10" stroke-linejoin="round"/>
<path d="M184.082 434.052H59.2754C44.7314 434.052 32.9414 422.262 32.9414 407.718V100.087C32.9414 85.5432 40.3954 73.7532 59.2754 73.7532H184.082C201.389 73.5162 210.416 85.5432 210.416 100.087V407.718C210.416 422.262 198.626 434.052 184.082 434.052Z" fill="#263238" stroke="#263238" stroke-miterlimit="10" stroke-linejoin="round"/>
<path d="M131.335 77.803L131.285 77.988C129.827 83.426 126.467 86.955 122.748 86.955H120.608C116.889 86.955 113.529 83.426 112.071 77.988L112.022 77.803L59.941 77.621C47.811 77.578 37.953 87.399 37.95 99.53L37.875 404.47C37.875 418.681 49.004 430.202 62.732 430.202H180.625C194.353 430.202 205.482 418.681 205.482 404.47L205.456 97.336C205.455 86.935 197.079 78.474 186.679 78.368L131.335 77.803Z" fill="white" stroke="#263238" stroke-miterlimit="10"/>
<path d="M205.457 102.882L205.456 97.337C205.455 86.936 197.079 78.475 186.679 78.369L131.335 77.803L131.285 77.988C129.827 83.426 126.467 86.955 122.748 86.955H120.608C116.889 86.955 113.529 83.426 112.071 77.988L112.022 77.803L59.9412 77.621C47.8112 77.578 37.9532 87.398 37.9502 99.53L37.9492 102.882H205.457Z" fill="#DBDBDB" stroke="#263238" stroke-miterlimit="10"/>
<path d="M123.5 77.2022C123.5 75.9132 122.455 74.8682 121.166 74.8682C119.877 74.8682 118.832 75.9132 118.832 77.2022C118.832 78.4912 119.877 79.5362 121.166 79.5362C122.456 79.5352 123.5 78.4902 123.5 77.2022Z" fill="#707070"/>
<path d="M54.399 83.1441C54.399 85.5051 51.747 86.3551 51.736 88.1571V88.2801H54.309V89.0751H50.875V88.4031C50.875 85.8751 53.527 85.3821 53.527 83.1781C53.527 82.3731 53.258 81.9481 52.609 81.9481C51.971 81.9481 51.691 82.4061 51.691 83.1001V83.7941H50.875V83.1561C50.875 81.9591 51.423 81.1641 52.631 81.1641C53.851 81.1641 54.399 81.9471 54.399 83.1441Z" fill="#263238"/>
<path d="M58.6852 83.1331V83.3341C58.6852 84.1401 58.3612 84.7111 57.7342 84.9451C58.3942 85.1911 58.6852 85.7841 58.6852 86.5671V87.1711C58.6852 88.3681 58.1262 89.1511 56.9172 89.1511C55.7202 89.1511 55.1612 88.3681 55.1612 87.1711V86.6341H55.9772V87.2271C55.9772 87.9321 56.2682 88.3571 56.8952 88.3571C57.5332 88.3571 57.8132 87.9431 57.8132 87.1491V86.5451C57.8132 85.7731 57.4882 85.4041 56.8282 85.3821H56.3582V84.5981H56.8722C57.4542 84.5761 57.8122 84.2071 57.8122 83.5241V83.1651C57.8122 82.3601 57.5322 81.9461 56.8942 81.9461C56.2672 81.9461 55.9762 82.3821 55.9762 83.0871V83.4901H55.1602V83.1321C55.1602 81.9351 55.7192 81.1621 56.9162 81.1621C58.1262 81.1641 58.6852 81.9361 58.6852 83.1331Z" fill="#263238"/>
<path d="M60.3761 83.7261V84.8121H59.5371V83.7261H60.3761ZM60.3761 87.9891V89.0751H59.5371V87.9891H60.3761Z" fill="#263238"/>
<path d="M62.1443 84.4312C62.3903 84.0062 62.7823 83.7822 63.3083 83.7822C64.3153 83.7822 64.7623 84.5202 64.7623 85.6392V87.1722C64.7623 88.3692 64.1923 89.1522 62.9953 89.1522C61.7973 89.1522 61.2383 88.3692 61.2383 87.1722V86.6462H62.0543V87.2272C62.0543 87.9322 62.3453 88.3572 62.9723 88.3572C63.5993 88.3572 63.8903 87.9322 63.8903 87.2272V85.7062C63.8903 85.0012 63.5993 84.5762 62.9723 84.5762C62.4913 84.5762 62.1663 84.8452 62.0883 85.4152V85.5942H61.2723L61.4853 81.2422H64.5733V82.0252H62.2683L62.1443 84.4312Z" fill="#263238"/>
<path d="M69.1159 83.1221V83.2681H68.2999V83.0671C68.2999 82.3621 68.0089 81.9481 67.3709 81.9481C66.7109 81.9481 66.4199 82.3731 66.4199 83.2121V84.9681C66.6319 84.4311 67.0579 84.1291 67.6839 84.1291C68.6909 84.1291 69.1389 84.8571 69.1389 85.9861V87.1721C69.1389 88.3691 68.5449 89.1521 67.3479 89.1521C66.1399 89.1521 65.5469 88.3691 65.5469 87.1721V83.1771C65.5469 81.9351 66.1069 81.1631 67.3479 81.1631C68.5569 81.1641 69.1159 81.9251 69.1159 83.1221ZM66.4199 86.0531V87.2271C66.4199 87.9321 66.7109 88.3571 67.3479 88.3571C67.9749 88.3571 68.2769 87.9321 68.2769 87.2271V86.0531C68.2769 85.3481 67.9749 84.9231 67.3479 84.9231C66.7109 84.9231 66.4199 85.3481 66.4199 86.0531Z" fill="#263238"/>
<path d="M154.619 83.4661H152.408V88.9951H154.619V83.4661Z" fill="#263238"/>
<path d="M157.566 82.3591H155.355V88.9951H157.566V82.3591Z" fill="#263238"/>
<path d="M160.516 81.572H158.305V88.995H160.516V81.572Z" fill="#263238"/>
<path d="M163.465 80.2051H161.254V88.9951H163.465V80.2051Z" fill="#263238"/>
<path d="M190.831 88.8431H177.562V80.7351H190.831V88.8431ZM178.301 88.1061H190.094V81.4721H178.301V88.1061Z" fill="#263238"/>
<path d="M186.409 82.2742H179.406V87.3042H186.409V82.2742Z" fill="#263238"/>
<path d="M192.04 83.834H190.371V85.744H192.04V83.834Z" fill="#263238"/>
<path d="M172.698 87.0791C172.612 87.0791 172.524 87.0571 172.445 87.0091C169.745 85.4041 167.96 86.8941 167.885 86.9571C167.679 87.1361 167.366 87.1131 167.187 86.9081C167.008 86.7021 167.027 86.3921 167.233 86.2121C167.329 86.1281 169.611 84.1731 172.952 86.1581C173.187 86.2971 173.265 86.6021 173.124 86.8371C173.031 86.9931 172.866 87.0791 172.698 87.0791Z" fill="#263238"/>
<path d="M173.697 85.4132C173.611 85.4132 173.523 85.3912 173.443 85.3432C169.539 83.0212 166.915 85.2672 166.888 85.2892C166.683 85.4712 166.37 85.4502 166.189 85.2452C166.008 85.0402 166.027 84.7262 166.233 84.5462C166.265 84.5172 169.43 81.8062 173.95 84.4922C174.185 84.6312 174.263 84.9362 174.122 85.1722C174.029 85.3272 173.865 85.4132 173.697 85.4132Z" fill="#263238"/>
<path d="M174.604 83.484C174.518 83.484 174.43 83.462 174.35 83.414C169.405 80.474 166.118 83.242 165.98 83.362C165.774 83.541 165.46 83.519 165.281 83.314C165.101 83.109 165.121 82.797 165.327 82.617C165.366 82.582 169.272 79.241 174.857 82.563C175.092 82.702 175.17 83.007 175.029 83.242C174.937 83.398 174.773 83.484 174.604 83.484Z" fill="#263238"/>
<path d="M171.207 87.91C171.207 88.597 170.65 89.153 169.964 89.153C169.277 89.153 168.721 88.596 168.721 87.91C168.721 87.223 169.278 86.667 169.964 86.667C170.65 86.666 171.207 87.223 171.207 87.91Z" fill="#263238"/>
<path d="M121.53 217.659C143.516 218 161.863 226.34 176.31 243.022C178.283 245.3 178.042 248.461 175.84 250.351C173.741 252.154 170.62 251.925 168.69 249.684C163.438 243.586 157.349 238.537 150.214 234.792C127.843 223.052 101.085 225.93 81.8135 242.235C79.1575 244.482 76.7935 247.088 74.3995 249.627C72.3255 251.826 69.2655 252.178 67.0735 250.289C64.9085 248.424 64.7445 245.247 66.7195 242.958C78.8275 228.925 94.0615 220.63 112.422 218.093C113.86 217.894 115.31 217.74 116.759 217.674C118.347 217.604 119.94 217.659 121.53 217.659Z" fill="#263238"/>
<path d="M123.347 238.045C137.244 238.405 150.308 244.341 160.589 256.221C162.617 258.564 162.379 261.588 160.129 263.522C157.986 265.363 154.884 265.115 152.905 262.824C147.541 256.614 141.039 252.06 133.112 249.92C116.958 245.559 102.991 249.536 91.2952 261.493C90.8602 261.938 90.4582 262.415 90.0452 262.881C88.1152 265.055 84.9922 265.347 82.8822 263.549C80.6572 261.653 80.4262 258.52 82.3722 256.226C86.9532 250.826 92.4072 246.532 98.7532 243.383C105.944 239.814 113.566 238.078 123.347 238.045Z" fill="#263238"/>
<path d="M146.211 272.813C146.209 274.929 144.93 276.801 142.963 277.568C140.983 278.34 138.783 277.826 137.3 276.147C135.115 273.672 132.595 271.671 129.539 270.376C121.196 266.841 111.992 269.037 105.788 276.045C104.316 277.707 102.48 278.31 100.357 277.666C98.3146 277.047 97.1366 275.576 96.8216 273.469C96.5996 271.985 97.0466 270.667 98.0016 269.516C108.628 256.703 128.177 254.889 140.961 265.571C142.414 266.785 143.778 268.143 144.98 269.602C145.687 270.46 145.992 271.649 146.478 272.689C146.389 272.73 146.3 272.772 146.211 272.813Z" fill="#263238"/>
<path d="M121.513 299.505C115.812 299.508 111.285 294.985 111.289 289.29C111.292 283.685 115.847 279.129 121.468 279.107C127.115 279.085 131.698 283.68 131.683 289.349C131.669 294.993 127.154 299.502 121.513 299.505Z" fill="#263238"/>
<path d="M121.577 182.037C81.4813 182.037 48.8613 214.657 48.8613 254.752C48.8613 294.848 81.4813 327.468 121.577 327.468C161.672 327.468 194.292 294.848 194.292 254.752C194.293 214.657 161.673 182.037 121.577 182.037ZM58.8623 254.752C58.8623 220.17 86.9963 192.037 121.578 192.037C137.9 192.037 152.781 198.309 163.95 208.564L75.3893 297.125C65.1343 285.956 58.8623 271.075 58.8623 254.752ZM121.577 317.468C106.912 317.468 93.4183 312.395 82.7253 303.93L170.754 215.901C179.219 226.593 184.292 240.087 184.292 254.752C184.293 289.334 156.159 317.468 121.577 317.468Z" fill="#FF8200"/>
<path d="M427.499 454.81H418.024L415.994 432.251H429.529L427.499 454.81Z" fill="#263238" stroke="#263238" stroke-miterlimit="10"/>
<path d="M466.976 454.81H457.501L455.471 432.251H469.006L466.976 454.81Z" fill="#263238" stroke="#263238" stroke-miterlimit="10"/>
<path d="M372.23 454.81H362.755L360.725 432.251H374.26L372.23 454.81Z" fill="#263238" stroke="#263238" stroke-miterlimit="10"/>
<path d="M329.931 454.81H320.456L318.426 432.251H331.961L329.931 454.81Z" fill="#263238" stroke="#263238" stroke-miterlimit="10"/>
<path d="M375.171 286.9H473.69C473.69 286.9 474.083 321.149 469.007 345.4C463.931 369.651 457.728 384.314 457.728 384.314H364.109C364.109 384.314 377.997 330.674 375.171 286.9Z" fill="white" stroke="#263238" stroke-miterlimit="10"/>
<path d="M416.056 292.128C407.42 291.453 403.995 289.71 397.526 286.168C389.118 281.564 387.317 284.633 387.917 289.237C388.518 293.841 379.747 324.198 377.945 339.543C376.143 354.888 376.744 363.072 376.744 363.072C376.744 363.072 371.339 367.676 374.942 369.21C378.545 370.745 382.149 371.256 382.149 371.256H451.814C451.814 371.256 464.188 307.651 465.389 297.421C466.59 287.191 461.185 286.168 458.182 287.702C455.179 289.237 454.579 290.26 450.373 290.771C440.501 291.973 427.897 293.054 416.056 292.128Z" fill="#FF8200"/>
<path d="M393.631 293.161C395.747 290.677 396.803 288.326 397.317 286.06C396.478 285.608 395.71 285.238 395.001 284.935C394.606 287.07 393.705 289.24 391.739 291.549C390.247 293.301 388.736 294.432 387.2 295.196C387.024 296.113 386.823 297.101 386.598 298.16C388.957 297.321 391.316 295.879 393.631 293.161Z" fill="white"/>
<path d="M455.991 313.058C451.578 318.239 451.748 322.843 451.913 327.295C452.067 331.455 452.211 335.384 448.426 339.829C444.641 344.273 440.74 344.755 436.608 345.265C432.187 345.811 427.615 346.376 423.204 351.556C418.792 356.737 418.962 361.34 419.127 365.792C419.195 367.637 419.26 369.437 418.982 371.256H421.497C421.74 369.36 421.677 367.517 421.61 365.701C421.457 361.541 421.311 357.612 425.096 353.168C428.881 348.724 432.782 348.242 436.914 347.732C441.335 347.186 445.907 346.621 450.318 341.441C454.73 336.26 454.56 331.657 454.396 327.204C454.243 323.044 454.098 319.114 457.883 314.67C459.636 312.612 461.413 311.41 463.227 310.655C463.401 309.675 463.567 308.731 463.725 307.823C461.134 308.621 458.536 310.07 455.991 313.058Z" fill="white"/>
<path d="M385.233 370.135C389.654 369.589 394.226 369.024 398.637 363.844C403.049 358.664 402.879 354.06 402.714 349.609C402.561 345.449 402.415 341.52 406.2 337.076C409.985 332.632 413.886 332.15 418.018 331.64C422.439 331.094 427.011 330.529 431.423 325.349C435.835 320.168 435.665 315.565 435.501 311.113C435.348 306.953 435.203 303.023 438.988 298.578C442.773 294.133 446.675 293.651 450.807 293.14C454.873 292.637 459.067 292.109 463.146 287.999C462.307 287.37 461.346 287.121 460.408 287.146C457.839 289.314 455.209 290.004 452.484 290.41C451.889 290.551 451.203 290.672 450.373 290.773C449.402 290.891 448.398 291.007 447.377 291.121C443.949 291.739 440.475 292.997 437.096 296.966C432.683 302.147 432.853 306.751 433.018 311.203C433.171 315.363 433.316 319.292 429.531 323.737C425.746 328.181 421.845 328.663 417.713 329.173C413.292 329.719 408.72 330.284 404.308 335.464C399.896 340.645 400.066 345.248 400.231 349.7C400.384 353.86 400.529 357.789 396.745 362.232C392.96 366.676 389.059 367.158 384.927 367.668C382.168 368.009 379.35 368.358 376.549 369.831C378.075 370.368 379.496 370.728 380.526 370.951C382.065 370.53 383.631 370.333 385.233 370.135Z" fill="white"/>
<path d="M379.74 347.75C384.151 342.57 383.981 337.966 383.817 333.515C383.664 329.355 383.518 325.426 387.303 320.982C391.088 316.538 394.989 316.056 399.121 315.545C403.542 314.999 408.114 314.434 412.526 309.254C416.938 304.073 416.768 299.47 416.604 295.018C416.569 294.057 416.536 293.108 416.55 292.162C416.385 292.15 416.219 292.141 416.055 292.128C415.356 292.073 414.701 292.009 414.066 291.94C414.046 293.008 414.083 294.063 414.121 295.109C414.274 299.269 414.419 303.198 410.634 307.643C406.849 312.087 402.948 312.569 398.816 313.079C394.395 313.625 389.823 314.19 385.411 319.37C380.999 324.551 381.169 329.154 381.334 333.606C381.487 337.766 381.632 341.695 377.848 346.139C377.637 346.387 377.425 346.619 377.213 346.843C377.108 348.112 377.022 349.305 376.951 350.43C377.885 349.708 378.816 348.835 379.74 347.75Z" fill="white"/>
<path d="M416.056 292.128C407.42 291.453 403.995 289.71 397.526 286.168C389.118 281.564 387.317 284.633 387.917 289.237C388.518 293.841 379.747 324.198 377.945 339.543C376.143 354.888 376.744 363.072 376.744 363.072C376.744 363.072 371.339 367.676 374.942 369.21C378.545 370.745 382.149 371.256 382.149 371.256H451.814C451.814 371.256 464.188 307.651 465.389 297.421C466.59 287.191 461.185 286.168 458.182 287.702C455.179 289.237 454.579 290.26 450.373 290.771C440.501 291.973 427.897 293.054 416.056 292.128Z" stroke="#263238" stroke-miterlimit="10"/>
<path d="M375.171 286.9H369.597C367.519 286.9 365.713 288.326 365.23 290.347L358.311 319.34C357.028 324.716 352.652 340.224 347.831 342.928C344.871 344.588 341.535 345.46 338.141 345.46H317.254L326.143 436.228H364.102L374.075 291.703C374.098 291.374 374.084 291.052 374.039 290.739H375.171V286.9Z" fill="white" stroke="#263238" stroke-miterlimit="10"/>
<path d="M322.828 345.46H343.714C347.108 345.46 350.444 344.588 353.404 342.928C358.225 340.224 362.601 324.716 363.884 319.34L370.803 290.347C371.285 288.326 373.092 286.9 375.17 286.9C377.774 286.9 379.831 289.108 379.648 291.705L369.397 436.23H331.438L322.828 345.46Z" fill="white" stroke="#263238" stroke-miterlimit="10"/>
<path d="M412.038 436.28L414.213 371.257L327.098 370.489L329.278 436.28H412.038Z" fill="white" stroke="#263238" stroke-miterlimit="10"/>
<path d="M479.263 286.9H473.689C471.611 286.9 469.805 288.326 469.322 290.347L462.403 319.34C461.12 324.716 456.744 340.224 451.923 342.928C448.963 344.588 445.627 345.46 442.233 345.46H421.346L425.03 436.228L467.846 436.227L478.166 291.704C478.189 291.375 478.175 291.053 478.13 290.74H479.262V286.9H479.263Z" fill="white" stroke="#263238" stroke-miterlimit="10"/>
<path d="M426.922 345.46H447.809C451.203 345.46 454.539 344.588 457.499 342.928C462.32 340.224 466.696 324.716 467.979 319.34L474.898 290.347C475.38 288.326 477.187 286.9 479.265 286.9C481.869 286.9 483.926 289.108 483.743 291.705L473.579 434.017C473.491 435.263 472.455 436.228 471.207 436.228L430.329 436.229L426.922 345.46Z" fill="white" stroke="#263238" stroke-miterlimit="10"/>
<path d="M414.214 352.004L412.039 436.28H430.328L433.466 352.004C433.466 348.39 430.536 345.461 426.923 345.461H420.758C417.144 345.46 414.214 348.39 414.214 352.004Z" fill="white" stroke="#263238" stroke-miterlimit="10"/>
<path d="M307.941 352.004L311.079 436.28H329.368L327.192 352.004C327.192 348.39 324.262 345.461 320.649 345.461H314.484C310.87 345.46 307.941 348.39 307.941 352.004Z" fill="white" stroke="#263238" stroke-miterlimit="10"/>
<path d="M327.537 399.23H413.383" stroke="#263238" stroke-miterlimit="10"/>
</svg>
