<svg width="125" height="89" viewBox="0 0 125 89" fill="none" xmlns="http://www.w3.org/2000/svg">
<path fill-rule="evenodd" clip-rule="evenodd" d="M70.4899 88.6338V45.6556H68.373V88.6338H70.4899ZM111.633 88.6338V45.6556H109.516V88.6338H111.633Z" fill="#BABEC2"/>
<path fill-rule="evenodd" clip-rule="evenodd" d="M70.4899 49.3648L68.373 49.4103V45.6556H70.4899V49.3648ZM111.633 45.7933V48.4767L109.516 48.5221V45.786L111.633 45.7933Z" fill="black"/>
<path d="M121.108 44.7248H59.0723V46.3499H121.108V44.7248Z" fill="#BABEC2"/>
<path fill-rule="evenodd" clip-rule="evenodd" d="M59.9453 44.7846C60.7082 41.5742 63.3666 39.202 66.5251 39.202C69.6835 39.202 72.3419 41.5742 73.1048 44.7846H59.9453Z" fill="#B9D8D6"/>
<path fill-rule="evenodd" clip-rule="evenodd" d="M70.7514 44.7844C69.7019 42.333 68.0482 41.8345 68.0482 41.8345C67.9086 41.7941 67.8275 41.6478 67.8677 41.5081C67.9086 41.3684 68.0548 41.2877 68.1945 41.3281C68.1945 41.3281 70.1684 41.8766 71.3226 44.7844H70.7514Z" fill="#82B5B2"/>
<path fill-rule="evenodd" clip-rule="evenodd" d="M72.9301 44.7845C73.1257 48.6946 73.5915 54.8527 74.7379 58.108C74.9902 58.8242 75.2716 59.3954 75.5977 59.7558C75.8638 60.0509 76.1564 60.1932 76.4904 60.099C76.8126 60.0081 77.1453 59.7729 77.4562 59.4606C77.4417 59.4395 77.4279 59.4185 77.4141 59.3967C77.0069 58.7616 76.7915 57.7648 76.8093 56.8912C76.8185 56.4135 76.8982 55.9728 77.0451 55.644C77.1756 55.3515 77.362 55.1413 77.59 55.0366C77.8272 54.9272 78.117 54.9213 78.4596 55.0873C79.3023 55.4951 79.4854 56.4082 79.2305 57.4077C79.0493 58.1153 78.6507 58.8637 78.1638 59.4606C78.2396 59.5173 78.3213 59.5588 78.4096 59.5812C78.627 59.6359 78.8727 59.5627 79.1534 59.3512C79.386 59.1767 79.5823 58.8617 79.7608 58.45C80.0553 57.7707 80.2859 56.8398 80.4697 55.7804C81.1991 51.5803 81.1786 45.4031 81.2096 44.6692C81.2155 44.5242 81.3387 44.4109 81.4843 44.4168C81.6293 44.4234 81.7426 44.5466 81.736 44.6916C81.705 45.4301 81.7228 51.6449 80.9889 55.8706C80.7965 56.9775 80.5521 57.9499 80.2444 58.6595C80.0217 59.1734 79.7602 59.5548 79.4703 59.7729C79.0256 60.1069 78.625 60.1787 78.2811 60.0924C78.1131 60.0503 77.955 59.9679 77.8107 59.8513C77.4325 60.2255 77.0227 60.4963 76.634 60.6063C76.1056 60.7552 75.6273 60.5754 75.2063 60.1089C74.8446 59.7083 74.5211 59.0792 74.2405 58.2833C73.079 54.9839 72.6007 48.7361 72.4023 44.7845H72.9301ZM77.8186 59.0488C78.2297 58.5251 78.5644 57.8847 78.7192 57.2772C78.9057 56.5479 78.8451 55.8594 78.2304 55.5617C78.0637 55.4813 77.9253 55.4622 77.81 55.5155C77.6862 55.5729 77.5979 55.6987 77.5261 55.8588C77.4035 56.1335 77.3442 56.5025 77.3363 56.9017C77.3212 57.6429 77.4865 58.4875 77.8186 59.0488ZM72.7634 43.7014C72.8352 43.7455 72.8853 43.8232 72.8892 43.9142L72.8958 44.0611C72.8543 43.9399 72.8102 43.8193 72.7634 43.7014Z" fill="#82B5B2"/>
<path d="M91.2547 71.6242C94.2086 71.6242 96.6032 68.5112 96.6032 64.6711C96.6032 60.831 94.2086 57.718 91.2547 57.718C88.3008 57.718 85.9062 60.831 85.9062 64.6711C85.9062 68.5112 88.3008 71.6242 91.2547 71.6242Z" fill="white"/>
<path fill-rule="evenodd" clip-rule="evenodd" d="M91.2892 56.9536V58.1586C88.4522 58.214 86.2308 61.1438 86.2308 64.6764C86.2308 68.2084 88.4522 71.1383 91.2892 71.1936V72.3993C87.8619 72.3452 85.0254 68.9365 85.0254 64.6764C85.0254 60.4158 87.8619 57.007 91.2892 56.9536Z" fill="black"/>
<path fill-rule="evenodd" clip-rule="evenodd" d="M91.2891 56.9527L91.3741 56.9501C94.8389 56.9501 97.7226 60.38 97.7226 64.6755C97.7226 68.9711 94.8389 72.401 91.3741 72.401L91.2891 72.3984V71.1927L91.3741 71.196C94.2518 71.196 96.5169 68.2431 96.5169 64.6755C96.5169 61.108 94.2518 58.1551 91.3741 58.1551L91.2891 58.1577V56.9527Z" fill="black"/>
<path fill-rule="evenodd" clip-rule="evenodd" d="M91.4269 64.5154C91.73 64.5154 91.9764 64.7612 91.9764 65.0649C91.9764 65.3679 91.73 65.6143 91.4269 65.6143C91.1232 65.6143 90.8768 65.3679 90.8768 65.0649C90.8768 64.7612 91.1232 64.5154 91.4269 64.5154ZM92.371 63.7946L94.221 60.2126C94.2876 60.0834 94.2369 59.924 94.1077 59.8575C93.9779 59.7909 93.8192 59.8416 93.7526 59.9708L91.9026 63.5528C91.8354 63.682 91.8861 63.8414 92.0159 63.908C92.1451 63.9745 92.3038 63.9238 92.371 63.7946ZM89.9182 60.8457L90.6218 63.622C90.6574 63.763 90.8004 63.848 90.942 63.8124C91.083 63.7769 91.168 63.6332 91.1324 63.4922L90.4295 60.7166C90.3939 60.5749 90.2503 60.4899 90.1093 60.5255C89.9683 60.5611 89.8826 60.7047 89.9182 60.8457Z" fill="black"/>
<path d="M124.432 60.9937L117.178 57.2688L112.275 66.8174L119.53 70.5424L124.432 60.9937Z" fill="#A8CFCC"/>
<path fill-rule="evenodd" clip-rule="evenodd" d="M119.36 69.2867L120.592 69.9185C120.722 69.9851 120.881 69.9337 120.947 69.8046C121.014 69.6748 120.963 69.516 120.833 69.4494L119.601 68.8176C119.471 68.7517 119.312 68.8025 119.246 68.9323C119.18 69.0614 119.23 69.2208 119.36 69.2867ZM120.123 67.7997L121.355 68.4309C121.484 68.4974 121.644 68.446 121.71 68.3169C121.776 68.1878 121.725 68.0283 121.596 67.9625L120.363 67.3306C120.234 67.2641 120.075 67.3155 120.009 67.4446C119.942 67.5737 119.993 67.7332 120.123 67.7997ZM120.885 66.3121L122.117 66.9439C122.247 67.0098 122.406 66.9591 122.473 66.8293C122.539 66.7001 122.488 66.5414 122.358 66.4748L121.126 65.843C120.996 65.7765 120.837 65.8278 120.771 65.957C120.705 66.0868 120.756 66.2455 120.885 66.3121ZM121.648 64.8244L122.88 65.4563C123.01 65.5228 123.169 65.4714 123.235 65.3416C123.301 65.2125 123.25 65.0537 123.121 64.9872L121.888 64.3554C121.759 64.2888 121.6 64.3402 121.534 64.4693C121.467 64.5991 121.519 64.7579 121.648 64.8244ZM122.411 63.3368L123.643 63.9686C123.772 64.0352 123.931 63.9838 123.998 63.854C124.064 63.7249 124.013 63.5661 123.884 63.4995L122.651 62.8677C122.522 62.8012 122.363 62.8526 122.297 62.9817C122.23 63.1115 122.282 63.2703 122.411 63.3368ZM123.153 61.8893L124.385 62.5212C124.514 62.5877 124.673 62.5363 124.74 62.4072C124.806 62.2781 124.755 62.1186 124.626 62.0527L123.393 61.4209C123.264 61.3544 123.104 61.4058 123.039 61.5349C122.972 61.664 123.023 61.8235 123.153 61.8893Z" fill="black"/>
<path fill-rule="evenodd" clip-rule="evenodd" d="M100.606 58.7814L111.78 61.433L111.185 63.0993L100.606 58.7814Z" fill="white"/>
<path d="M112.025 62.6161L100.369 58.4565L95.0794 73.2793L106.735 77.4389L112.025 62.6161Z" fill="#F27F71"/>
<path fill-rule="evenodd" clip-rule="evenodd" d="M111.26 61.5454L100.548 59.0642C100.406 59.0312 100.318 58.8896 100.35 58.7473C100.383 58.6056 100.525 58.5173 100.667 58.5503L111.663 61.0973C111.735 61.1145 111.797 61.1613 111.833 61.2258C111.869 61.291 111.877 61.3681 111.852 61.4393L111.253 63.2036C111.206 63.3413 111.056 63.4151 110.919 63.3683C110.781 63.3216 110.707 63.1714 110.754 63.0337L111.26 61.5454Z" fill="#F27F71"/>
<path d="M120.655 63.1881H106.016V80.6847H120.655V63.1881Z" fill="white"/>
<path fill-rule="evenodd" clip-rule="evenodd" d="M119.327 78.6942H107.225V79.4769H119.327V78.6942ZM119.327 77.2599H107.225V78.0426H119.327V77.2599ZM119.327 75.8256H107.225V76.6083H119.327V75.8256ZM119.327 74.3913H107.225V75.174H119.327V74.3913ZM119.327 72.9571H107.225V73.7398H119.327V72.9571ZM119.327 71.5228H107.225V72.3055H119.327V71.5228ZM119.327 70.0885H107.225V70.8712H119.327V70.0885ZM119.327 68.6542H107.225V69.4369H119.327V68.6542ZM119.327 67.22H107.225V68.0027H119.327V67.22ZM119.327 65.7857H107.225V66.5684H119.327V65.7857ZM119.327 64.3494H107.225V65.1321H119.327V64.3494Z" fill="black"/>
<path fill-rule="evenodd" clip-rule="evenodd" d="M106.279 80.4215H113.386C113.531 80.4215 113.65 80.5394 113.65 80.685C113.65 80.8306 113.531 80.9485 113.386 80.9485H106.015C105.87 80.9485 105.752 80.8306 105.752 80.685V63.1884C105.752 63.0428 105.87 62.9249 106.015 62.9249H113.014C113.159 62.9249 113.278 63.0428 113.278 63.1884C113.278 63.334 113.159 63.4519 113.014 63.4519H106.279V80.4215Z" fill="black"/>
<path fill-rule="evenodd" clip-rule="evenodd" d="M120.39 63.4519H113.014C112.868 63.4519 112.75 63.334 112.75 63.1884C112.75 63.0428 112.868 62.9249 113.014 62.9249H120.654C120.8 62.9249 120.918 63.0428 120.918 63.1884V80.685C120.918 80.8306 120.8 80.9485 120.654 80.9485H113.386C113.24 80.9485 113.122 80.8306 113.122 80.685C113.122 80.5394 113.24 80.4215 113.386 80.4215H120.39V63.4519Z" fill="black"/>
<path d="M123.268 65.5512H84.1406V88.933H123.268V65.5512Z" fill="#FFD798"/>
<path fill-rule="evenodd" clip-rule="evenodd" d="M108.125 65.5508V76.0117L106.891 75.0413L105.736 76.0117L104.563 75.0413L103.443 76.0117L102.413 75.0413L101.334 76.0117V65.5508H108.125Z" fill="#F8BB61"/>
<path d="M22.98 15.349C26.0314 15.349 28.505 12.8754 28.505 9.82405C28.505 6.77269 26.0314 4.29907 22.98 4.29907C19.9287 4.29907 17.4551 6.77269 17.4551 9.82405C17.4551 12.8754 19.9287 15.349 22.98 15.349Z" fill="#FFC3BB"/>
<path fill-rule="evenodd" clip-rule="evenodd" d="M19.9503 14.4447C18.4477 13.4566 17.4551 11.7558 17.4551 9.82495C17.4551 6.77568 19.9308 4.29999 22.9801 4.29999C23.6677 4.29999 24.3262 4.42589 24.9339 4.65596L22.0469 10.3267C21.8314 9.961 21.4241 9.71421 20.9577 9.71421C20.2666 9.71421 19.7055 10.2558 19.7055 10.923C19.7055 11.5902 20.2666 12.1319 20.9577 12.1319C21.0175 12.1319 21.0764 12.1278 21.1339 12.1199L19.9503 14.4447Z" fill="black"/>
<path fill-rule="evenodd" clip-rule="evenodd" d="M21.7145 4.92442C21.7145 4.92442 20.9327 7.00849 20.9625 7.8894C20.9784 8.35915 21.3727 8.72773 21.8425 8.71185C22.3124 8.69597 22.6809 8.30162 22.665 7.83186C22.6352 6.95095 21.7145 4.92442 21.7145 4.92442Z" fill="white"/>
<path fill-rule="evenodd" clip-rule="evenodd" d="M21.4776 71.2693C18.622 71.521 15.0927 71.5355 10.9445 71.0038C8.12644 70.6428 -1.2828 67.6859 1.09381 55.3915C1.56362 52.961 3.92837 46.9545 13.9797 46.432C16.9132 46.2791 37.4126 43.9205 45.6249 52.9722C45.7857 53.1501 45.9932 53.3873 46.2264 53.6936C49.0153 54.9593 57.0787 59.3286 56.7711 67.4362C56.7711 67.4362 56.134 76.5176 44.3488 80.4324C43.4778 82.3832 42.4553 84.4651 41.2608 86.682C41.2608 86.682 43.9462 87.4002 44.6268 88.9095H23.9057L25.1461 84.9836L23.8572 85.2879C23.8449 86.653 22.5674 88.0155 21.4776 88.9985V71.2693Z" fill="url(#paint0_linear_1662_19566)"/>
<path fill-rule="evenodd" clip-rule="evenodd" d="M24.2168 85.2031L25.3624 70.6982C25.3738 70.5533 25.5008 70.4452 25.6458 70.4564C25.7908 70.4676 25.8993 70.5948 25.8878 70.7397L24.7556 85.0759L24.2168 85.2031Z" fill="#F27F71"/>
<path fill-rule="evenodd" clip-rule="evenodd" d="M27.6973 70.0142L30.2288 69.5241C30.2288 69.5241 31.1589 66.5224 31.797 64.4622C31.8358 64.3371 31.7758 64.2027 31.657 64.148C31.5381 64.0933 31.3971 64.1355 31.3275 64.2461C29.9452 66.4427 27.6973 70.0142 27.6973 70.0142Z" fill="#F27F71"/>
<path fill-rule="evenodd" clip-rule="evenodd" d="M21.4784 71.2695C20.8416 71.3255 26.5937 70.1989 29.9449 69.1916C30.1545 69.1283 30.3944 69.0928 30.3944 69.0928C30.3944 69.0928 30.3003 69.4327 30.2699 69.5256L26.2316 81.8893L43.7942 81.6508C43.7119 81.8267 43.6288 82.0032 43.5445 82.1811L26.1009 82.4183C26.0869 82.4183 26.0731 82.417 26.0597 82.415L25.1469 84.9838L24.626 85.107L29.6138 69.8372C26.9798 70.6015 24.3173 71.2669 21.4784 71.682V71.2695ZM44.3588 80.4293C52.2003 63.7747 46.081 53.5015 46.2273 53.6939C46.4289 53.7855 46.6588 53.8935 46.9118 54.018C48.5332 57.1738 51.5777 66.0028 45.0526 80.1882C44.8266 80.2705 44.5947 80.3509 44.3588 80.4293Z" fill="#F27F71"/>
<path fill-rule="evenodd" clip-rule="evenodd" d="M16.6906 16.767C28.881 16.8971 37.5801 18.5594 47.7485 19.3851C50.8207 19.6346 57.8596 21.3962 56.2132 27.7204C55.5886 30.1199 53.4132 31.7879 50.934 31.7688C46.6384 31.7356 40.7709 31.6902 40.7709 31.6902C40.7709 31.6902 45.4248 35.6495 55.1143 35.7899C55.1143 35.7899 65.7959 36.6954 66.7973 36.7359C68.567 36.8076 69.6257 36.835 70.5968 36.8905C70.8057 36.9029 70.9902 37.0307 71.0751 37.2218C71.1601 37.4129 71.1318 37.6355 71.0014 37.7989C70.7998 38.0498 70.3939 38.3332 69.6316 38.6201C68.2402 39.1438 67.1511 39.1893 66.0812 39.5044C66.1616 39.3255 67.8185 40.8861 68.789 41.888C68.982 42.0901 69.0512 42.3803 68.9708 42.6478C68.8898 42.9152 68.6711 43.1185 68.3983 43.1797C68.1888 43.2274 67.9358 43.2379 67.6334 43.1841C68.2092 43.7456 67.5366 44.6765 65.7248 43.7621C65.2491 43.5223 65.0851 43.4557 63.8616 42.6996C63.8616 42.6996 64.2523 43.4017 64.4816 43.8141C64.5422 43.9235 64.5553 44.0533 64.5165 44.1725C64.4783 44.2918 64.392 44.3899 64.2786 44.4433C64.027 44.5606 63.6297 44.5981 63.0394 44.2892C62.142 43.8207 61.532 43.5631 60.972 43.3325C60.4554 43.12 59.8684 43.1683 59.3941 43.4623C57.438 44.67 51.3293 47.4805 39.7615 44.8406C39.7615 44.8406 32.8311 43.9242 23.7691 38.061C23.528 37.106 12.2632 50.3959 2.27074 39.1882C-1.66505 34.7736 -2.47918 16.5625 16.6906 16.767Z" fill="#FFC3BB"/>
<path fill-rule="evenodd" clip-rule="evenodd" d="M63.8772 42.7258C62.1129 40.3852 60.8683 40.3322 60.8683 40.3322C60.7234 40.3299 60.6068 40.2099 60.6094 40.0645C60.6114 39.919 60.7313 39.8029 60.8769 39.8052C60.8769 39.8052 62.5589 39.7923 64.766 43.0657C64.8075 43.128 64.8194 43.2018 64.8049 43.2697C64.5789 43.1378 64.2831 42.9593 63.8621 42.6994L63.8772 42.7258ZM67.6339 43.1839C67.6537 43.2033 65.2206 41.0834 64.9149 40.7507C63.8739 39.6167 63.1123 39.0861 62.6077 38.8428C62.2301 38.6605 61.9916 38.6569 61.9824 38.6568C61.9857 38.6565 61.989 38.656 61.9916 38.6555L61.9824 38.6568C61.8428 38.6749 61.7123 38.5787 61.6892 38.4382C61.6655 38.2947 61.763 38.1591 61.9067 38.1354C61.9067 38.1354 63.0155 37.9036 65.3036 40.3942C65.6436 40.7646 67.3064 42.3399 68.4587 43.1636C68.439 43.1696 68.4192 43.175 68.3988 43.1795C68.1893 43.2271 67.9363 43.2376 67.6339 43.1839ZM62.7434 36.4252C63.227 36.4647 63.6934 36.5024 64.1276 36.5372C64.5018 36.8047 64.8852 37.1656 65.2324 37.6523C65.4742 37.9913 65.9466 38.6796 66.7906 39.328C66.5745 39.3741 66.361 39.4244 66.1489 39.4847C65.4452 38.8757 65.0295 38.2752 64.8035 37.9583C64.1243 37.0061 63.2902 36.5984 62.7434 36.4252Z" fill="#F27F71"/>
<path fill-rule="evenodd" clip-rule="evenodd" d="M37.5076 44.3544C34.754 43.629 29.7217 41.912 23.7697 38.061C23.6606 37.2536 12.0967 50.7951 2.27138 39.1882C-1.60433 34.6097 -2.47854 16.5625 16.6912 16.767C28.8817 16.8971 37.5808 18.5594 47.7492 19.3851C50.8213 19.6346 57.8603 21.3962 56.2138 27.7205C55.5893 30.1199 53.4138 31.788 50.9346 31.7688C46.639 31.7356 40.7715 31.6902 40.7715 31.6902C40.7715 31.6902 44.0867 34.5106 50.9458 35.4748L49.4068 45.9283C47.6728 45.9652 45.7094 45.8585 43.5056 45.5409C41.6906 45.1806 39.6093 44.7681 37.5076 44.3544Z" fill="url(#paint1_linear_1662_19566)"/>
<path fill-rule="evenodd" clip-rule="evenodd" d="M21.961 39.361C20.4676 37.5722 19.6891 35.5949 19.3397 34.5003C19.3139 34.4086 19.3547 34.3112 19.4381 34.2652C19.5215 34.2192 19.6257 34.2367 19.6894 34.3075C21.3473 36.0986 23.4035 37.7669 23.7268 38.0261C23.5608 38.0367 22.9348 38.5937 21.961 39.361ZM40.7811 31.6975L40.7817 31.6983L40.7844 31.7004L40.789 31.7042L40.7916 31.7062L40.7936 31.7083L40.7969 31.7109L40.8022 31.7149L40.8068 31.7186L40.8107 31.722L40.814 31.7248L40.8186 31.7285L40.8265 31.7346L40.8325 31.7396L40.8358 31.742L40.8397 31.7449L40.8516 31.7542L40.8595 31.7607L40.8615 31.7624L40.8641 31.7641L40.8839 31.7798L40.8911 31.7852L40.8918 31.7858C40.9023 31.7939 40.9135 31.8026 40.9254 31.8116L40.928 31.8132L40.9392 31.8219L40.9596 31.8375L40.9642 31.8408C40.9748 31.8488 40.9866 31.8572 40.9978 31.8658L40.9998 31.8669L41.0018 31.8686C41.0288 31.8884 41.0578 31.9097 41.0888 31.9323L41.0947 31.9362L41.1079 31.946L41.1151 31.9509L41.1171 31.9526L41.123 31.9568L41.1349 31.965L41.1408 31.9694L41.1448 31.9722L41.1533 31.9781L41.1625 31.9849L41.1678 31.9885L41.1731 31.9924L41.1843 32.0001L41.1922 32.0055L41.1955 32.008L41.2027 32.0129L41.2166 32.0227L41.2225 32.0268L41.2245 32.0281L41.2317 32.0333L41.2502 32.0461L41.2541 32.0488C38.1629 30.1072 32.6379 25.9947 28.9981 23.1701C28.8545 23.0587 28.8284 22.8515 28.9398 22.7079C29.0513 22.5643 29.2584 22.5382 29.4021 22.6497C33.1662 25.5707 38.9581 29.8823 41.9387 31.6992L40.7719 31.6902L40.7791 31.6964L40.7811 31.6975ZM42.4216 21.7606L51.4957 22.0182C51.6768 22.0233 51.829 21.8799 51.8343 21.6982C51.8389 21.5165 51.696 21.3647 51.5141 21.3596L42.44 21.1021C42.2582 21.0969 42.1067 21.2402 42.1014 21.422C42.0961 21.6037 42.2397 21.7554 42.4216 21.7606Z" fill="#AC2310"/>
<path fill-rule="evenodd" clip-rule="evenodd" d="M33.2529 22.7675C31.9261 19.7272 25.6953 17.1443 25.6953 17.1443L28.2223 17.3485C31.0322 18.6253 33.1064 20.845 33.9223 21.8126C34.2333 21.8543 35.0072 21.9723 35.0199 22.115C35.0358 22.2937 35.1436 25.2937 35.1436 25.2937C35.1337 25.2986 35.1239 25.3034 35.1142 25.3081L35.2013 25.3137C36.7579 28.1947 36.1915 32.2783 38.4133 34.7327C39.117 35.5098 40.0374 36.2401 41.0441 36.5745C42.2135 36.9629 43.4277 36.9451 44.6413 36.8738C44.9621 36.855 45.7415 36.7982 46.1335 36.7692C46.2791 36.7586 46.4195 36.8236 46.5058 36.9413C46.8418 37.3999 47.7016 38.5742 48.1199 39.1449C48.2556 39.33 48.2372 39.5861 48.0764 39.7498C47.4999 40.3366 46.1941 41.6662 45.7501 42.1175C45.6539 42.2155 45.5162 42.2605 45.3805 42.2381C45.1235 42.1986 44.7144 42.1321 44.5609 42.0878C43.6682 41.83 42.788 41.5277 41.9295 41.1719C39.4734 40.1544 36.8765 38.5505 35.8071 36.0149C35.1823 34.5338 35.0878 32.953 35.0946 31.3672C35.1006 29.9693 35.2641 28.4983 34.9723 27.1184C34.8588 26.5817 34.6066 26.0791 34.3578 25.5945C34.3521 25.5833 34.3291 25.546 34.3001 25.4973C33.1288 25.4553 32.5876 23.9596 32.5876 23.9596L33.2529 22.7675Z" fill="black"/>
<path fill-rule="evenodd" clip-rule="evenodd" d="M45.0887 31.7057L42.7096 21.1187C42.7096 21.1187 40.4498 20.9842 39.1085 20.7425C39.1085 20.7425 35.818 19.6725 33.5081 20.4338C33.1325 20.5576 31.9727 21.1922 31.1828 22.717C30.8529 23.3536 31.9402 23.7669 33.1938 22.717C33.4501 22.5024 33.9423 22.2534 34.4543 22.2106C34.4543 22.2106 32.8549 23.4622 34.4543 24.5124C34.4543 24.5124 34.1262 25.627 35.5124 25.8592C35.5124 25.8592 35.3062 27.5256 37.8501 29.1327C38.5788 29.5934 44.2362 31.8907 45.0887 31.7057Z" fill="#FFC3BB"/>
<path fill-rule="evenodd" clip-rule="evenodd" d="M35.0618 25.731C35.2732 25.1213 35.7384 24.7571 36.1871 24.5439C36.706 24.2974 37.1974 24.2583 37.1974 24.2583C37.3423 24.2463 37.4695 24.3543 37.4813 24.4993C37.4932 24.6443 37.3851 24.7716 37.2402 24.7835C37.2402 24.7835 36.8415 24.8242 36.4133 25.02C35.7456 25.3253 35.5133 25.859 35.5133 25.859C35.3362 25.8293 35.1871 25.7853 35.0618 25.731ZM34.0738 24.2002C34.3602 23.7029 34.8052 23.3814 35.2561 23.1774C35.9953 22.8427 36.7427 22.8286 36.7427 22.8286C36.8881 22.8257 37.0085 22.9414 37.0114 23.0868C37.0143 23.2323 36.8986 23.3526 36.7532 23.3556C36.7532 23.3556 36.11 23.3693 35.4734 23.6575C35.0688 23.8406 34.4552 24.5122 34.4552 24.5122C34.2991 24.4097 34.1735 24.3052 34.0738 24.2002ZM33.5488 22.4851C33.5536 22.4404 33.5698 22.3963 33.5982 22.3575C34.4156 21.2407 36.2088 21.1687 36.2088 21.1687C36.3542 21.164 36.4761 21.2781 36.4808 21.4235C36.4856 21.5688 36.3714 21.6907 36.226 21.6955C36.226 21.6955 35.6705 21.7145 35.0745 21.9359C34.7343 22.0624 34.4552 22.2104 34.4552 22.2104C34.1257 22.2379 33.8044 22.3508 33.5488 22.4851Z" fill="#F27F71"/>
<path fill-rule="evenodd" clip-rule="evenodd" d="M17.1289 16.7676C17.1289 16.7676 19.7373 16.9208 23.4774 19.1024C24.6414 19.7813 27.4873 21.6695 30.942 22.7299C32.2542 23.1326 32.8905 22.8338 33.3335 22.9667L32.8406 24.1416C32.8406 24.1416 30.6343 23.9127 29.8042 23.613C29.8042 23.613 19.3647 17.0411 17.1289 16.7676Z" fill="black"/>
<path d="M27.1866 71.2908H2.47266V88.9317H27.1866V71.2908Z" fill="#FFD798"/>
<path fill-rule="evenodd" clip-rule="evenodd" d="M7.2819 88.9322H6.75484V71.2906H7.2819V88.9322ZM18.8535 71.2906V80.4385L17.3285 79.3515L15.8217 80.4385V71.2906H18.8535ZM5.85428 71.2906V77.4013L4.6471 75.5625L3.81836 76.3399V71.2906H5.85428Z" fill="#F8BB61"/>
<path fill-rule="evenodd" clip-rule="evenodd" d="M91.2947 35.8012H74.2422V8.25311H115.64V35.8012H97.721V42.8946H100.039V44.7834H88.9961V42.8946H91.2947V35.8012Z" fill="#A3A8AE"/>
<path fill-rule="evenodd" clip-rule="evenodd" d="M114.548 8.25311V35.8012H96.6286V42.8946H98.9464V44.7834H88.9961V42.8946H91.2947V35.8012H74.2422V8.25311H114.548Z" fill="#E4E4E6"/>
<path d="M112.641 10.3602H76.3047V33.0271H112.641V10.3602Z" fill="white"/>
<path fill-rule="evenodd" clip-rule="evenodd" d="M96.6386 42.8375H97.5307C97.4839 42.8786 97.4226 42.9036 97.3561 42.9036L91.3047 42.8375V42.3765H96.6386V42.8375ZM96.6386 36.3327H91.3047V35.8056H96.6386V36.3327Z" fill="#A3A8AE"/>
<path d="M101.636 0H80.9883V25.2981H101.636V0Z" fill="#FFF3EB"/>
<path d="M96.5249 8.11939C98.3206 8.11939 99.7764 6.66366 99.7764 4.86792C99.7764 3.07219 98.3206 1.61646 96.5249 1.61646C94.7292 1.61646 93.2734 3.07219 93.2734 4.86792C93.2734 6.66366 94.7292 8.11939 96.5249 8.11939Z" fill="#F27F71"/>
<path fill-rule="evenodd" clip-rule="evenodd" d="M93.9023 6.79035C94.517 6.1773 95.3939 5.79333 96.3677 5.79333C97.4343 5.79333 98.3864 6.25478 99.0024 6.97377C98.4061 7.67516 97.5167 8.12033 96.5252 8.12033C95.4486 8.12033 94.4946 7.59656 93.9023 6.79035Z" fill="#FFCFC8"/>
<path d="M96.4523 5.38218C97.0807 5.38218 97.5902 4.87274 97.5902 4.24431C97.5902 3.61589 97.0807 3.10645 96.4523 3.10645C95.8239 3.10645 95.3145 3.61589 95.3145 4.24431C95.3145 4.87274 95.8239 5.38218 96.4523 5.38218Z" fill="#FFCFC8"/>
<path fill-rule="evenodd" clip-rule="evenodd" d="M95.3145 4.25064V4.24352C95.3145 3.61552 95.8244 3.10565 96.4522 3.10565C97.0801 3.10565 97.5901 3.61552 97.5901 4.24352V4.24978C96.8186 4.2565 96.4522 3.45384 96.4522 3.45384C96.248 4.11287 95.6518 4.23588 95.3145 4.25064Z" fill="black"/>
<path fill-rule="evenodd" clip-rule="evenodd" d="M98.9787 22.3899H84.7611V23.1977H98.9787V22.3899ZM98.9787 20.68H84.7611V21.4878H98.9787V20.68ZM98.9787 19.0206H84.7611V19.8283H98.9787V19.0206ZM98.4187 16.7616H83.0488V18.0737H98.4187V16.7616ZM98.9787 14.3237H84.7611V15.1315H98.9787V14.3237ZM98.9787 12.6138H84.7611V13.4216H98.9787V12.6138ZM98.9787 10.9543H84.7611V11.7621H98.9787V10.9543ZM93.94 8.08532H83.0488V9.39738H93.94V8.08532ZM92.0182 5.64639H83.4151V6.23275H92.0182V5.64639ZM89.8117 4.48889H83.4151V5.07531H89.8117V4.48889ZM91.5168 3.24758H83.4151V3.83394H91.5168V3.24758ZM92.4095 2.04291H83.4151V2.62933H92.4095V2.04291Z" fill="#F27F71"/>
<path d="M111.129 19.3895H94.5508V29.0219H111.129V19.3895Z" fill="#A8CFCC"/>
<path fill-rule="evenodd" clip-rule="evenodd" d="M111.128 20.0215L102.987 25.5161C102.898 25.5762 102.781 25.5762 102.692 25.5161L94.5508 20.0236V19.3895H94.5528L102.84 24.9797L111.123 19.3895H111.128V20.0215Z" fill="#82B5B2"/>
<path fill-rule="evenodd" clip-rule="evenodd" d="M91.1079 31.6948L89.8782 30.2939L91.4346 28.9277L90.2927 27.6269L96.0519 26.1148L93.8061 31.6294L92.6642 30.3286L91.1079 31.6948Z" fill="#F27F71"/>
<defs>
<linearGradient id="paint0_linear_1662_19566" x1="26.4477" y1="53.2918" x2="83.805" y2="73.5538" gradientUnits="userSpaceOnUse">
<stop stop-color="#FFC3BB"/>
<stop offset="1" stop-color="#F27F71"/>
</linearGradient>
<linearGradient id="paint1_linear_1662_19566" x1="17.1887" y1="20.3973" x2="-16.4155" y2="40.1118" gradientUnits="userSpaceOnUse">
<stop stop-color="#F27F71"/>
<stop offset="0.58" stop-color="#EC6E5F"/>
<stop offset="0.8" stop-color="#E04B39"/>
<stop offset="1" stop-color="#D52914"/>
</linearGradient>
</defs>
</svg>
