<svg width="400" height="400" viewBox="0 0 400 400" fill="none" xmlns="http://www.w3.org/2000/svg">
<path d="M341.165 252.349C331.579 281.403 310.929 313.245 280.538 323.611C234.62 339.277 230.517 376.937 147.177 376.68C134.183 376.642 122.122 375.281 110.994 372.795C105.011 371.459 99.2971 369.79 93.8599 367.822C44.4901 350.013 17.4591 307.661 13.602 262.403C8.51908 202.879 49.0267 172.848 75.4241 155.16C101.821 137.473 131.92 71.7269 213.851 71.3355C226.342 71.2809 238.855 72.5053 251.042 75.309C278.862 81.6963 307.487 97.0956 324.682 120.561C325.973 122.324 327.209 124.132 328.397 125.976C351.589 162.06 354.236 212.74 341.165 252.349Z" fill="#FF8200"/>
<path opacity="0.7" d="M341.523 252.213C331.927 281.299 311.254 313.175 280.83 323.553C234.861 339.236 230.755 376.937 147.323 376.68C134.316 376.642 122.241 375.279 111.1 372.791C105.112 371.453 99.3912 369.782 93.9481 367.812C44.5243 349.984 17.4638 307.585 13.6025 262.278C8.514 202.689 49.0659 172.625 75.4921 154.918C101.918 137.212 132.05 71.3936 214.07 71.0017C226.575 70.9471 239.101 72.1728 251.302 74.9796C279.152 81.3739 307.808 96.79 325.022 120.281C326.315 122.046 327.552 123.856 328.741 125.702C351.959 161.825 354.609 212.56 341.523 252.213Z" fill="white"/>
<path d="M386.15 362.502H16.7559" stroke="#263238" stroke-width="0.728" stroke-miterlimit="10" stroke-linecap="round" stroke-linejoin="round"/>
<path d="M30.5308 311.889C32.254 312.641 36.4668 312.547 36.47 312.547C36.514 312.546 35.5644 309.789 35.4844 309.622C34.5604 307.689 31.6364 304.495 29.258 304.816C27.5444 305.048 26.5916 306.763 26.978 308.377C27.374 310.024 29.0644 311.248 30.5308 311.889Z" fill="#263238"/>
<path d="M31.9849 324.093C33.7721 324.353 37.5321 323.263 37.8305 323.175C38.4241 325.28 39.2041 327.392 40.1113 329.485C40.6281 330.683 41.1865 331.873 41.7617 333.059C41.4185 332.557 41.1081 332.11 41.0585 332.052C39.6553 330.43 35.9929 328.123 33.7841 329.061C32.1921 329.737 31.7265 331.643 32.5249 333.097C33.3409 334.581 35.2953 335.316 36.8793 335.546C38.4873 335.781 41.7113 334.915 42.5617 334.675C42.7865 335.128 43.0065 335.582 43.2337 336.034C44.3225 338.202 45.4185 340.361 46.4281 342.511C46.7841 343.269 47.1073 344.028 47.4337 344.786C47.1289 344.34 46.8681 343.967 46.8225 343.914C45.4201 342.293 41.7577 339.985 39.5481 340.925C37.9561 341.601 37.4897 343.506 38.2889 344.96C39.1057 346.445 41.0593 347.179 42.6433 347.41C44.1777 347.634 47.1609 346.862 48.1721 346.581C48.4825 347.369 48.7953 348.156 49.0601 348.932C49.2297 349.466 49.4297 349.969 49.5689 350.514C49.7193 351.052 49.8673 351.584 50.0145 352.112C50.2609 353.137 50.5209 354.194 50.7353 355.201C50.8905 355.9 51.0249 356.569 51.1625 357.242C50.8169 356.484 50.1081 355.013 50.0345 354.897C48.8945 353.083 45.6233 350.247 43.2969 350.84C41.6209 351.267 40.8721 353.08 41.4417 354.638C42.0233 356.229 43.8433 357.252 45.3745 357.72C47.0601 358.235 50.7921 357.765 51.2577 357.702C51.4817 358.817 51.6881 359.904 51.8673 360.933C51.9633 361.477 52.0465 361.989 52.1313 362.502H53.6153C53.5057 361.909 53.3913 361.304 53.2649 360.671C53.0425 359.538 52.7825 358.332 52.5033 357.095C52.7841 356.984 54.3753 356.34 55.7857 355.552C57.0145 356.882 60.1625 358.439 60.5697 358.637C60.1417 359.691 59.7145 360.711 59.2961 361.668C59.1705 361.957 59.0489 362.227 58.9257 362.502H60.4889C60.5281 362.408 60.5665 362.318 60.6057 362.221C61.0449 361.153 61.4937 360.002 61.9433 358.817C62.3945 358.912 66.0889 359.662 67.8105 359.273C69.3721 358.921 71.2633 358.037 71.9625 356.493C72.6465 354.982 72.0345 353.118 70.3945 352.568C68.1193 351.803 64.6465 354.388 63.3737 356.113C63.2985 356.214 62.6073 357.409 62.1841 358.17C62.3649 357.685 62.5457 357.216 62.7265 356.714C63.0897 355.725 63.4233 354.726 63.7857 353.653C63.9425 353.129 64.1009 352.599 64.2609 352.065C64.4305 351.537 64.5433 350.959 64.6881 350.402C64.9977 349.103 65.2481 347.771 65.4705 346.425C66.3377 346.74 69.4345 347.817 71.0393 347.705C72.6361 347.593 74.6393 347.006 75.5641 345.586C76.4697 344.196 76.1465 342.261 74.6097 341.468C72.4761 340.368 68.6513 342.396 67.1329 343.908C67.0385 344.001 66.0697 345.209 65.5513 345.883C65.6785 345.073 65.8097 344.264 65.9121 343.439C66.2073 341.059 66.4321 338.641 66.6673 336.229C66.7385 335.491 66.8193 334.756 66.8969 334.019C67.2041 334.135 70.8577 335.495 72.6545 335.369C74.2513 335.257 76.2545 334.67 77.1793 333.249C78.0849 331.86 77.7617 329.924 76.2249 329.132C74.0913 328.032 70.2673 330.06 68.7481 331.572C68.6337 331.685 67.2433 333.425 66.9113 333.885C67.0825 332.263 67.2681 330.649 67.5161 329.065C67.8545 326.879 68.3081 324.753 68.8993 322.725C69.0425 322.78 72.8489 324.216 74.6889 324.087C76.2857 323.975 78.2897 323.388 79.2137 321.968C80.1193 320.577 79.7961 318.642 78.2593 317.85C76.1257 316.75 72.3017 318.778 70.7825 320.29C70.6633 320.409 69.1681 322.281 68.9209 322.64C68.9569 322.519 68.9801 322.391 69.0169 322.271C69.6761 320.115 70.5849 318.109 71.5281 316.273C72.0737 315.205 72.6561 314.214 73.2433 313.263C73.9249 313.603 77.0569 315.124 78.7257 315.191C80.3257 315.255 82.3809 314.892 83.4561 313.582C84.5089 312.3 84.4001 310.341 82.9601 309.385C80.9601 308.057 76.9361 309.653 75.2601 310.989C75.1689 311.061 74.3241 311.902 73.7177 312.524C73.9889 312.098 74.2617 311.655 74.5297 311.253C75.5337 309.741 76.5465 308.417 77.4529 307.253C77.9737 306.596 78.4569 306.011 78.9161 305.469C79.7585 305.454 83.1553 305.351 84.6401 304.654C86.0889 303.973 87.7465 302.705 88.0969 301.046C88.4401 299.423 87.4409 297.734 85.7217 297.549C83.3353 297.292 80.4993 300.563 79.6273 302.521C79.5521 302.69 78.6777 305.472 78.7217 305.471C78.7217 305.471 78.7625 305.471 78.7729 305.47C78.3209 305.983 77.8433 306.538 77.3321 307.155C76.3985 308.302 75.3537 309.606 74.3137 311.102C73.2697 312.595 72.1769 314.245 71.1833 316.089C70.1849 317.934 69.2289 319.927 68.5097 322.108C68.5017 322.133 68.4961 322.159 68.4881 322.184C68.5009 321.481 68.4697 319.513 68.4497 319.363C68.1737 317.237 66.3929 313.292 64.0321 312.856C62.3321 312.541 60.8913 313.873 60.7561 315.528C60.6177 317.217 61.8425 318.907 63.0361 319.973C64.3825 321.177 68.1201 322.341 68.4177 322.433C67.7513 324.515 67.2369 326.707 66.8385 328.953C66.6097 330.237 66.4185 331.537 66.2441 332.844C66.2353 332.236 66.2233 331.692 66.2129 331.616C65.9377 329.49 64.1561 325.545 61.7953 325.109C60.0945 324.794 58.6545 326.126 58.5193 327.78C58.3809 329.469 59.6057 331.159 60.7993 332.225C62.0105 333.308 65.1777 334.365 66.0185 334.633C65.9569 335.135 65.8897 335.636 65.8297 336.138C65.5417 338.547 65.2649 340.952 64.9209 343.303C64.8001 344.132 64.6505 344.943 64.5041 345.755C64.4953 345.215 64.4841 344.76 64.4753 344.691C64.1993 342.565 62.4185 338.62 60.0585 338.184C58.3577 337.87 56.9169 339.201 56.7817 340.856C56.6433 342.544 57.8681 344.235 59.0625 345.301C60.2185 346.334 63.1329 347.337 64.1313 347.66C63.9561 348.487 63.7825 349.317 63.5753 350.11C63.4217 350.649 63.3113 351.178 63.1273 351.711C62.9553 352.241 62.7857 352.769 62.6177 353.289C62.2569 354.28 61.8913 355.305 61.5153 356.262C61.2585 356.931 61.0017 357.563 60.7457 358.2C60.8753 357.377 61.0953 355.76 61.0985 355.622C61.1313 354.199 60.6257 351.884 59.6193 350.257C59.6257 350.046 59.6137 349.837 59.5801 349.629C59.3169 347.99 57.7777 346.773 56.1065 347.219C53.7873 347.837 52.3161 351.908 52.2065 354.049C52.2001 354.175 52.2825 355.553 52.3489 356.421C52.2321 355.917 52.1249 355.425 51.9977 354.908C51.7545 353.882 51.4809 352.865 51.1921 351.77C51.0337 351.246 50.8737 350.717 50.7121 350.183C50.5633 349.65 50.3377 349.105 50.1513 348.561C49.6921 347.306 49.1665 346.057 48.6089 344.811C49.5073 344.596 52.6841 343.786 53.9601 342.807C55.2305 341.833 56.5769 340.237 56.5649 338.544C56.5529 336.885 55.2169 335.449 53.4969 335.635C51.1105 335.894 49.0393 339.696 48.6065 341.795C48.5793 341.926 48.4385 343.467 48.3769 344.315C48.0361 343.569 47.6993 342.821 47.3297 342.077C46.2633 339.929 45.1177 337.789 43.9825 335.648C43.6345 334.992 43.2961 334.335 42.9545 333.678C43.2753 333.605 47.0721 332.724 48.5017 331.627C49.7713 330.653 51.1185 329.058 51.1065 327.364C51.0945 325.705 49.7577 324.269 48.0385 324.456C45.6521 324.715 43.5809 328.517 43.1481 330.616C43.1153 330.774 42.9153 332.992 42.8921 333.558C42.1409 332.112 41.4049 330.663 40.7377 329.205C39.8145 327.194 39.0201 325.172 38.3945 323.154C38.5441 323.121 42.5113 322.218 43.9753 321.096C45.2457 320.121 46.5929 318.527 46.5801 316.833C46.5681 315.173 45.2313 313.737 43.5121 313.925C41.1257 314.184 39.0553 317.985 38.6217 320.085C38.5873 320.249 38.3737 322.636 38.3657 323.071C38.3289 322.951 38.2769 322.831 38.2417 322.711C37.6025 320.549 37.2537 318.374 37.0273 316.322C36.8929 315.13 36.8321 313.984 36.7977 312.866C37.5537 312.773 41.0049 312.314 42.4337 311.449C43.8033 310.62 45.3177 309.183 45.4913 307.498C45.6617 305.848 44.4905 304.273 42.7617 304.27C40.3609 304.265 37.8857 307.817 37.2241 309.856C37.1881 309.967 36.9473 311.134 36.7841 311.987C36.7761 311.482 36.7585 310.962 36.7609 310.479C36.7641 308.664 36.8785 307.001 36.9929 305.531C37.0641 304.695 37.1457 303.941 37.2289 303.235C37.9233 302.757 40.6993 300.797 41.5529 299.397C42.3865 298.029 43.0681 296.057 42.4457 294.481C41.8361 292.938 40.0713 292.081 38.5361 292.874C36.4033 293.977 35.8425 298.269 36.1953 300.383C36.2265 300.565 37.0313 303.368 37.0681 303.344C37.0681 303.344 37.1017 303.321 37.1097 303.315C37.0153 303.992 36.9233 304.719 36.8377 305.515C36.6913 306.986 36.5401 308.65 36.4977 310.473C36.4505 312.293 36.4497 314.273 36.6377 316.358C36.8233 318.448 37.1249 320.637 37.7281 322.853C37.7345 322.878 37.7457 322.904 37.7521 322.929C37.3745 322.335 36.2633 320.712 36.1633 320.597C34.7609 318.976 31.0985 316.668 28.8889 317.606C27.2977 318.282 26.8305 320.188 27.6305 321.642C28.4473 323.128 30.4009 323.861 31.9849 324.093Z" fill="#263238"/>
<path d="M73.1459 312.816C73.1835 312.839 73.9123 310.016 73.9379 309.833C74.2331 307.709 73.5563 303.433 71.3955 302.389C69.8387 301.637 68.0979 302.542 67.5307 304.101C66.9515 305.693 67.6859 307.647 68.5563 308.991C69.5763 310.569 73.1427 312.813 73.1459 312.816Z" fill="#263238"/>
<path d="M144.154 339.139C144.949 339.486 146.894 339.442 146.896 339.442C146.916 339.442 146.477 338.17 146.44 338.092C146.014 337.199 144.665 335.726 143.566 335.874C142.775 335.981 142.336 336.772 142.514 337.517C142.696 338.278 143.477 338.844 144.154 339.139Z" fill="#263238"/>
<path d="M144.825 344.773C145.65 344.893 147.386 344.389 147.523 344.349C147.798 345.32 148.158 346.295 148.576 347.261C148.815 347.814 149.072 348.364 149.338 348.911C149.179 348.679 149.036 348.473 149.013 348.446C148.366 347.698 146.675 346.633 145.655 347.066C144.92 347.378 144.706 348.257 145.075 348.929C145.451 349.614 146.354 349.953 147.084 350.06C147.826 350.168 149.315 349.769 149.707 349.657C149.811 349.866 149.913 350.077 150.018 350.285C150.52 351.285 151.026 352.281 151.492 353.274C151.657 353.624 151.806 353.974 151.956 354.325C151.815 354.119 151.695 353.946 151.674 353.922C151.027 353.174 149.336 352.109 148.316 352.542C147.581 352.854 147.366 353.733 147.735 354.405C148.112 355.09 149.014 355.429 149.745 355.536C150.453 355.639 151.83 355.283 152.297 355.153C152.44 355.517 152.584 355.88 152.707 356.238C152.785 356.485 152.877 356.717 152.942 356.969C153.011 357.217 153.079 357.462 153.147 357.706C153.261 358.179 153.381 358.667 153.48 359.132C153.551 359.454 153.614 359.763 153.677 360.074C153.517 359.724 153.191 359.045 153.156 358.992C152.63 358.154 151.12 356.845 150.047 357.119C149.273 357.317 148.927 358.153 149.191 358.873C149.459 359.607 150.299 360.079 151.006 360.295C151.784 360.533 153.507 360.316 153.722 360.287C153.825 360.801 153.92 361.303 154.003 361.778C154.047 362.029 154.086 362.265 154.125 362.503H154.81C154.759 362.229 154.707 361.95 154.648 361.657C154.546 361.134 154.425 360.577 154.296 360.007C154.426 359.956 155.16 359.658 155.811 359.294C156.379 359.909 157.831 360.627 158.019 360.718C157.822 361.205 157.625 361.676 157.431 362.117C157.373 362.251 157.317 362.376 157.26 362.503H157.982C158 362.46 158.018 362.418 158.036 362.373C158.239 361.881 158.446 361.349 158.654 360.802C158.862 360.846 160.567 361.192 161.362 361.013C162.083 360.849 162.955 360.441 163.279 359.729C163.595 359.032 163.311 358.172 162.555 357.917C161.504 357.565 159.901 358.757 159.314 359.553C159.279 359.601 158.96 360.152 158.765 360.503C158.848 360.279 158.932 360.062 159.015 359.831C159.183 359.374 159.337 358.913 159.504 358.418C159.576 358.176 159.65 357.932 159.723 357.685C159.802 357.441 159.854 357.174 159.921 356.917C160.064 356.317 160.179 355.703 160.282 355.081C160.682 355.227 162.111 355.725 162.852 355.672C163.589 355.62 164.514 355.349 164.941 354.693C165.359 354.052 165.21 353.158 164.5 352.793C163.515 352.285 161.75 353.221 161.049 353.919C161.005 353.962 160.559 354.52 160.319 354.831C160.378 354.457 160.438 354.084 160.485 353.703C160.621 352.605 160.725 351.489 160.834 350.375C160.867 350.034 160.904 349.695 160.939 349.355C161.081 349.409 162.767 350.037 163.597 349.978C164.334 349.926 165.259 349.656 165.686 349C166.104 348.358 165.955 347.465 165.245 347.099C164.26 346.591 162.495 347.527 161.794 348.225C161.741 348.278 161.099 349.081 160.946 349.293C161.025 348.545 161.111 347.8 161.225 347.069C161.381 346.06 161.591 345.078 161.863 344.142C161.929 344.167 163.687 344.83 164.536 344.771C165.273 344.719 166.198 344.449 166.625 343.793C167.043 343.151 166.894 342.257 166.184 341.892C165.199 341.384 163.435 342.321 162.733 343.018C162.678 343.073 161.988 343.937 161.874 344.103C161.891 344.048 161.901 343.988 161.918 343.933C162.222 342.937 162.642 342.012 163.077 341.164C163.329 340.671 163.598 340.213 163.869 339.774C164.183 339.931 165.629 340.633 166.399 340.664C167.138 340.693 168.087 340.525 168.583 339.921C169.068 339.329 169.019 338.425 168.354 337.984C167.431 337.371 165.573 338.108 164.799 338.724C164.757 338.757 164.367 339.145 164.087 339.433C164.213 339.237 164.339 339.032 164.463 338.846C164.926 338.149 165.394 337.537 165.812 337C166.052 336.696 166.275 336.426 166.487 336.176C166.876 336.169 168.444 336.121 169.13 335.8C169.799 335.485 170.563 334.9 170.725 334.134C170.883 333.385 170.423 332.605 169.629 332.52C168.527 332.401 167.219 333.911 166.816 334.814C166.782 334.893 166.378 336.177 166.399 336.177C166.399 336.177 166.418 336.177 166.422 336.177C166.213 336.413 165.992 336.669 165.757 336.954C165.326 337.484 164.844 338.085 164.363 338.776C163.882 339.465 163.377 340.227 162.919 341.077C162.458 341.929 162.016 342.849 161.684 343.856C161.68 343.867 161.678 343.88 161.674 343.891C161.679 343.566 161.665 342.658 161.656 342.589C161.529 341.608 160.707 339.786 159.617 339.585C158.832 339.44 158.167 340.054 158.105 340.818C158.041 341.598 158.607 342.378 159.158 342.87C159.779 343.425 161.505 343.963 161.642 344.005C161.334 344.967 161.097 345.978 160.913 347.015C160.807 347.608 160.719 348.208 160.639 348.811C160.635 348.53 160.629 348.279 160.624 348.244C160.497 347.262 159.675 345.441 158.585 345.24C157.8 345.094 157.135 345.709 157.073 346.473C157.009 347.252 157.575 348.033 158.125 348.525C158.684 349.024 160.146 349.512 160.535 349.636C160.506 349.867 160.475 350.098 160.447 350.33C160.315 351.442 160.187 352.552 160.028 353.637C159.972 354.02 159.903 354.394 159.836 354.769C159.832 354.521 159.827 354.31 159.823 354.278C159.695 353.297 158.873 351.476 157.783 351.274C156.999 351.129 156.333 351.744 156.271 352.508C156.207 353.287 156.772 354.068 157.323 354.56C157.857 355.037 159.202 355.499 159.663 355.649C159.583 356.031 159.503 356.413 159.407 356.78C159.335 357.029 159.285 357.273 159.199 357.519C159.12 357.764 159.042 358.007 158.964 358.247C158.798 358.705 158.629 359.177 158.455 359.62C158.337 359.929 158.219 360.22 158.1 360.514C158.16 360.134 158.262 359.388 158.263 359.325C158.279 358.668 158.045 357.599 157.58 356.848C157.583 356.751 157.578 356.654 157.562 356.558C157.44 355.802 156.73 355.241 155.959 355.446C154.888 355.731 154.209 357.611 154.159 358.598C154.155 358.657 154.194 359.293 154.224 359.693C154.17 359.461 154.121 359.233 154.063 358.995C153.951 358.521 153.824 358.053 153.691 357.547C153.618 357.305 153.543 357.061 153.469 356.814C153.4 356.569 153.296 356.317 153.211 356.065C152.999 355.486 152.756 354.91 152.499 354.335C152.913 354.236 154.379 353.862 154.968 353.41C155.555 352.961 156.176 352.225 156.171 351.442C156.165 350.676 155.548 350.013 154.755 350.1C153.653 350.22 152.697 351.974 152.497 352.943C152.485 353.004 152.419 353.715 152.391 354.106C152.233 353.761 152.078 353.417 151.907 353.073C151.415 352.081 150.886 351.093 150.363 350.105C150.202 349.803 150.046 349.5 149.888 349.197C150.036 349.163 151.789 348.756 152.449 348.25C153.035 347.801 153.657 347.065 153.651 346.282C153.646 345.517 153.029 344.853 152.235 344.94C151.134 345.059 150.178 346.814 149.978 347.783C149.963 347.856 149.871 348.88 149.859 349.141C149.512 348.473 149.173 347.805 148.865 347.132C148.439 346.204 148.072 345.27 147.783 344.339C147.852 344.323 149.683 343.907 150.359 343.389C150.946 342.939 151.567 342.203 151.562 341.421C151.556 340.655 150.939 339.992 150.146 340.078C149.044 340.198 148.088 341.953 147.888 342.921C147.872 342.997 147.774 344.099 147.77 344.3C147.753 344.245 147.729 344.189 147.712 344.133C147.417 343.135 147.256 342.132 147.151 341.185C147.09 340.634 147.061 340.105 147.045 339.589C147.394 339.547 148.987 339.335 149.647 338.935C150.279 338.553 150.978 337.889 151.058 337.111C151.136 336.349 150.596 335.622 149.798 335.621C148.69 335.619 147.547 337.258 147.242 338.2C147.225 338.251 147.114 338.79 147.039 339.184C147.035 338.951 147.027 338.711 147.028 338.488C147.03 337.65 147.083 336.883 147.135 336.204C147.168 335.817 147.206 335.469 147.244 335.144C147.565 334.923 148.846 334.019 149.24 333.373C149.625 332.741 149.939 331.831 149.652 331.104C149.371 330.391 148.556 329.996 147.847 330.362C146.863 330.871 146.604 332.853 146.767 333.829C146.781 333.913 147.152 335.206 147.17 335.195C147.17 335.195 147.186 335.185 147.189 335.181C147.146 335.493 147.103 335.829 147.063 336.197C146.996 336.876 146.926 337.644 146.907 338.485C146.885 339.326 146.884 340.24 146.971 341.202C147.057 342.167 147.196 343.177 147.475 344.2C147.478 344.211 147.483 344.223 147.486 344.234C147.311 343.961 146.799 343.211 146.752 343.158C146.105 342.41 144.415 341.345 143.395 341.778C142.66 342.09 142.444 342.97 142.814 343.641C143.192 344.327 144.094 344.666 144.825 344.773Z" fill="#263238"/>
<path d="M163.826 339.567C163.843 339.578 164.18 338.274 164.192 338.19C164.328 337.21 164.016 335.237 163.018 334.755C162.3 334.408 161.496 334.826 161.234 335.546C160.967 336.281 161.305 337.182 161.708 337.802C162.178 338.53 163.824 339.566 163.826 339.567Z" fill="#263238"/>
<path d="M179.455 76.6201C174.612 79.4513 172.785 84.9345 171.908 87.5633C170.697 91.1977 166.456 85.1401 157.976 88.1689C149.496 91.1977 148.284 97.8609 146.467 99.6777C144.65 101.495 132.535 106.341 132.535 106.341H254.098" stroke="#263238" stroke-width="0.728" stroke-miterlimit="10" stroke-linecap="round" stroke-linejoin="round"/>
<path d="M260.156 106.342H274.884C274.884 106.342 277.307 93.0155 271.855 86.3523C266.403 79.6891 254.289 89.3811 250.654 79.6891C250.654 79.6891 239.751 63.9403 226.425 62.7283C213.098 61.5171 207.647 71.8147 203.406 77.2659C199.166 82.7179 196.743 74.8427 186.445 74.8427" stroke="#263238" stroke-width="0.728" stroke-miterlimit="10" stroke-linecap="round" stroke-linejoin="round"/>
<path d="M201.977 95.5234C199.507 97.8234 199.166 100.89 199.166 100.89" stroke="#263238" stroke-width="0.728" stroke-miterlimit="10" stroke-linecap="round" stroke-linejoin="round"/>
<path d="M248.232 85.1412C248.232 85.1412 239.752 76.6612 230.06 77.2668C220.368 77.8724 224.002 89.3812 219.762 93.0156C215.522 96.65 210.677 91.8044 205.225 93.6212" stroke="#263238" stroke-width="0.728" stroke-miterlimit="10" stroke-linecap="round" stroke-linejoin="round"/>
<path d="M57.9493 114.452C54.7853 116.302 53.5917 119.884 53.0189 121.602C52.2277 123.976 49.4573 120.018 43.9165 121.998C38.3757 123.976 37.5845 128.33 36.3973 129.517C35.2101 130.704 27.2949 133.87 27.2949 133.87H106.716" stroke="#263238" stroke-width="0.728" stroke-miterlimit="10" stroke-linecap="round" stroke-linejoin="round"/>
<path d="M110.674 133.87H120.296C120.296 133.87 121.879 125.163 118.318 120.81C114.756 116.456 106.841 122.788 104.466 116.457C104.466 116.457 97.3432 106.167 88.6368 105.376C79.9304 104.585 76.3688 111.312 73.5984 114.874C70.828 118.435 69.2456 113.291 62.5176 113.291" stroke="#263238" stroke-width="0.728" stroke-miterlimit="10" stroke-linecap="round" stroke-linejoin="round"/>
<path d="M72.663 126.802C71.0494 128.305 70.8262 130.309 70.8262 130.309" stroke="#263238" stroke-width="0.728" stroke-miterlimit="10" stroke-linecap="round" stroke-linejoin="round"/>
<path d="M102.883 120.019C102.883 120.019 97.342 114.478 91.0108 114.874C84.6788 115.27 87.0532 122.789 84.2828 125.164C81.5124 127.538 78.3468 124.373 74.7852 125.56" stroke="#263238" stroke-width="0.728" stroke-miterlimit="10" stroke-linecap="round" stroke-linejoin="round"/>
<path d="M219.663 146.335C217.457 147.625 216.624 150.123 216.225 151.321C215.673 152.977 213.741 150.217 209.878 151.597C206.014 152.977 205.462 156.012 204.634 156.84C203.806 157.668 198.287 159.876 198.287 159.876H253.671" stroke="#263238" stroke-width="0.728" stroke-miterlimit="10" stroke-linecap="round" stroke-linejoin="round"/>
<path d="M256.43 159.876H263.14C263.14 159.876 264.244 153.805 261.76 150.769C259.276 147.733 253.756 152.149 252.1 147.733C252.1 147.733 247.133 140.558 241.062 140.006C234.991 139.454 232.507 144.145 230.575 146.629C228.643 149.113 227.539 145.525 222.848 145.525" stroke="#263238" stroke-width="0.728" stroke-miterlimit="10" stroke-linecap="round" stroke-linejoin="round"/>
<path d="M229.925 154.947C228.8 155.995 228.645 157.392 228.645 157.392" stroke="#263238" stroke-width="0.728" stroke-miterlimit="10" stroke-linecap="round" stroke-linejoin="round"/>
<path d="M250.996 150.217C250.996 150.217 247.133 146.354 242.717 146.629C238.301 146.905 239.957 152.148 238.026 153.804C236.094 155.46 233.886 153.252 231.402 154.08" stroke="#263238" stroke-width="0.728" stroke-miterlimit="10" stroke-linecap="round" stroke-linejoin="round"/>
<path d="M82.8742 290.323V256.958H42.2998V237.174L77.6766 154.517H104.67V238.516H118.586V256.958H104.67V290.323H82.8742ZM61.7486 238.516H82.8742V179.499L61.7486 238.516Z" fill="#263238" stroke="#263238" stroke-width="0.728" stroke-miterlimit="10" stroke-linecap="round" stroke-linejoin="round"/>
<path d="M166.202 292.335C158.265 292.335 151.7 290.658 146.502 287.305C141.305 283.952 137.391 279.315 134.766 273.389C132.138 267.466 130.826 260.647 130.826 252.935V192.744C130.826 184.809 132.084 177.85 134.598 171.87C137.113 165.892 140.969 161.224 146.167 157.87C151.365 154.517 158.042 152.841 166.202 152.841C174.36 152.841 181.041 154.517 186.237 157.87C191.435 161.224 195.292 165.892 197.806 171.87C200.321 177.85 201.579 184.809 201.579 192.744V252.934C201.579 260.646 200.264 267.466 197.639 273.389C195.011 279.315 191.101 283.951 185.902 287.305C180.705 290.658 174.138 292.335 166.202 292.335ZM166.202 272.384C169.665 272.384 172.238 271.322 173.915 269.198C175.591 267.076 176.707 264.503 177.268 261.485C177.826 258.468 178.106 255.507 178.106 252.599V193.079C178.106 189.951 177.855 186.849 177.352 183.774C176.849 180.701 175.759 178.102 174.082 175.977C172.405 173.856 169.778 172.792 166.202 172.792C162.624 172.792 159.999 173.856 158.322 175.977C156.646 178.102 155.556 180.701 155.053 183.774C154.549 186.849 154.298 189.951 154.298 193.079V252.599C154.298 255.507 154.605 258.468 155.221 261.485C155.834 264.503 156.981 267.076 158.657 269.198C160.334 271.321 162.849 272.384 166.202 272.384Z" fill="#263238" stroke="#263238" stroke-width="0.728" stroke-miterlimit="10" stroke-linecap="round" stroke-linejoin="round"/>
<path d="M256.906 290.323V256.958H216.332V237.174L251.709 154.517H278.702V238.516H292.618V256.958H278.702V290.323H256.906ZM235.78 238.516H256.906V179.499L235.78 238.516Z" fill="#263238" stroke="#263238" stroke-width="0.728" stroke-miterlimit="10" stroke-linecap="round" stroke-linejoin="round"/>
<path d="M92.9836 290.323V256.958H52.4092V237.174L87.786 154.517H114.78V238.516H128.696V256.958H114.78V290.323H92.9836ZM71.858 238.516H92.9836V179.499L71.858 238.516Z" fill="white" stroke="#263238" stroke-width="0.728" stroke-miterlimit="10" stroke-linecap="round" stroke-linejoin="round"/>
<path d="M176.312 292.335C168.374 292.335 161.809 290.658 156.612 287.305C151.414 283.952 147.5 279.315 144.876 273.389C142.248 267.466 140.936 260.647 140.936 252.935V192.744C140.936 184.809 142.193 177.85 144.708 171.87C147.224 165.892 151.08 161.224 156.277 157.87C161.475 154.517 168.152 152.841 176.312 152.841C184.471 152.841 191.151 154.517 196.348 157.87C201.546 161.224 205.403 165.892 207.917 171.87C210.432 177.85 211.69 184.809 211.69 192.744V252.934C211.69 260.646 210.375 267.466 207.75 273.389C205.123 279.315 201.212 283.951 196.013 287.305C190.815 290.658 184.247 292.335 176.312 292.335ZM176.312 272.384C179.775 272.384 182.348 271.322 184.024 269.198C185.701 267.076 186.816 264.503 187.377 261.485C187.936 258.468 188.216 255.507 188.216 252.599V193.079C188.216 189.951 187.964 186.849 187.461 183.774C186.958 180.701 185.868 178.102 184.192 175.977C182.515 173.856 179.888 172.792 176.312 172.792C172.733 172.792 170.108 173.856 168.432 175.977C166.755 178.102 165.665 180.701 165.162 183.774C164.659 186.849 164.408 189.951 164.408 193.079V252.599C164.408 255.507 164.714 258.468 165.33 261.485C165.943 264.503 167.091 267.076 168.767 269.198C170.444 271.321 172.959 272.384 176.312 272.384Z" fill="white" stroke="#263238" stroke-width="0.728" stroke-miterlimit="10" stroke-linecap="round" stroke-linejoin="round"/>
<path d="M267.016 290.323V256.958H226.441V237.174L261.818 154.517H288.811V238.516H302.727V256.958H288.811V290.323H267.016ZM245.889 238.516H267.016V179.499L245.889 238.516Z" fill="white" stroke="#263238" stroke-width="0.728" stroke-miterlimit="10" stroke-linecap="round" stroke-linejoin="round"/>
<path d="M86.8158 147.953C84.9318 147.953 83.4318 147.603 82.3142 146.902C81.1974 146.201 80.3974 145.193 79.9158 143.88C79.4342 142.565 79.1934 141.01 79.1934 139.214V129.259C79.1934 127.463 79.4342 125.924 79.9158 124.643C80.3974 123.361 81.1974 122.381 82.3142 121.702C83.4318 121.024 84.931 120.684 86.8158 120.684C88.743 120.684 90.2598 121.024 91.3662 121.702C92.4718 122.381 93.2718 123.361 93.7646 124.643C94.2574 125.925 94.5038 127.464 94.5038 129.259V139.248C94.5038 141.022 94.2574 142.561 93.7646 143.864C93.2718 145.168 92.4718 146.175 91.3662 146.887C90.2598 147.597 88.743 147.953 86.8158 147.953ZM86.8158 144.372C87.6262 144.372 88.223 144.197 88.607 143.846C88.9902 143.496 89.2478 143.014 89.379 142.401C89.5102 141.788 89.5758 141.119 89.5758 140.397V128.141C89.5758 127.397 89.5102 126.728 89.379 126.137C89.2478 125.545 88.9902 125.081 88.607 124.741C88.2238 124.401 87.6262 124.231 86.8158 124.231C86.0486 124.231 85.4686 124.401 85.0742 124.741C84.6798 125.081 84.4174 125.545 84.2854 126.137C84.1534 126.728 84.0886 127.397 84.0886 128.141V140.397C84.0886 141.12 84.1486 141.788 84.2694 142.401C84.3894 143.014 84.647 143.496 85.0414 143.846C85.4358 144.197 86.027 144.372 86.8158 144.372Z" fill="#263238"/>
<path d="M105.312 147.953C103.428 147.953 101.928 147.603 100.81 146.902C99.6935 146.201 98.8935 145.193 98.4119 143.88C97.9303 142.565 97.6895 141.01 97.6895 139.214V129.259C97.6895 127.463 97.9303 125.924 98.4119 124.643C98.8935 123.361 99.6935 122.381 100.81 121.702C101.927 121.024 103.427 120.684 105.312 120.684C107.239 120.684 108.756 121.024 109.863 121.702C110.969 122.381 111.769 123.361 112.261 124.643C112.754 125.925 113.001 127.464 113.001 129.259V139.248C113.001 141.022 112.754 142.561 112.261 143.864C111.769 145.168 110.969 146.175 109.863 146.887C108.756 147.597 107.239 147.953 105.312 147.953ZM105.312 144.372C106.122 144.372 106.719 144.197 107.103 143.846C107.486 143.496 107.744 143.014 107.875 142.401C108.006 141.788 108.072 141.119 108.072 140.397V128.141C108.072 127.397 108.006 126.728 107.875 126.137C107.744 125.545 107.486 125.081 107.103 124.741C106.719 124.401 106.122 124.231 105.312 124.231C104.545 124.231 103.965 124.401 103.57 124.741C103.176 125.081 102.913 125.545 102.781 126.137C102.65 126.728 102.584 127.397 102.584 128.141V140.397C102.584 141.12 102.644 141.788 102.765 142.401C102.885 143.014 103.142 143.496 103.537 143.846C103.932 144.197 104.523 144.372 105.312 144.372Z" fill="#263238"/>
<path d="M116.582 147.592V120.978H124.402C126.001 120.978 127.299 121.274 128.296 121.865C129.292 122.456 130.026 123.316 130.497 124.444C130.968 125.573 131.204 126.936 131.204 128.535C131.204 130.265 130.908 131.662 130.316 132.724C129.725 133.787 128.898 134.558 127.836 135.04C126.773 135.522 125.52 135.763 124.074 135.763H121.445V147.591H116.582V147.592ZM121.444 132.347H123.284C124.16 132.347 124.845 132.221 125.338 131.969C125.831 131.718 126.17 131.312 126.356 130.753C126.542 130.195 126.636 129.444 126.636 128.503C126.636 127.54 126.564 126.756 126.422 126.154C126.28 125.552 125.973 125.108 125.502 124.824C125.031 124.539 124.292 124.396 123.284 124.396H121.444V132.347Z" fill="#263238"/>
<path d="M140.469 147.953C138.87 147.953 137.533 147.641 136.461 147.017C135.387 146.393 134.577 145.478 134.029 144.273C133.481 143.069 133.175 141.59 133.109 139.838L137.282 139.017C137.326 140.046 137.452 140.955 137.66 141.744C137.868 142.533 138.185 143.141 138.613 143.567C139.04 143.994 139.603 144.208 140.305 144.208C141.093 144.208 141.652 143.973 141.981 143.501C142.309 143.03 142.473 142.433 142.473 141.711C142.473 140.55 142.211 139.597 141.685 138.853C141.159 138.108 140.458 137.363 139.582 136.618L136.231 133.661C135.289 132.852 134.539 131.948 133.98 130.951C133.421 129.954 133.142 128.722 133.142 127.255C133.142 125.152 133.755 123.532 134.982 122.393C136.209 121.254 137.885 120.684 140.009 120.684C141.258 120.684 142.298 120.876 143.131 121.259C143.963 121.643 144.626 122.174 145.119 122.853C145.612 123.532 145.978 124.304 146.22 125.169C146.461 126.034 146.614 126.949 146.68 127.912L142.54 128.635C142.496 127.803 142.403 127.058 142.261 126.401C142.118 125.743 141.866 125.229 141.505 124.856C141.143 124.484 140.612 124.297 139.911 124.297C139.189 124.297 138.635 124.533 138.252 125.004C137.869 125.475 137.677 126.061 137.677 126.761C137.677 127.66 137.862 128.399 138.235 128.979C138.607 129.56 139.144 130.157 139.845 130.77L143.163 133.694C144.258 134.614 145.195 135.693 145.973 136.931C146.75 138.169 147.139 139.664 147.139 141.416C147.139 142.686 146.86 143.814 146.301 144.8C145.743 145.785 144.965 146.557 143.969 147.117C142.972 147.674 141.805 147.953 140.469 147.953Z" fill="#263238"/>
<path d="M149.307 147.592V143.255H153.643V147.592H149.307ZM150.687 141.349L149.339 121.011H153.807L152.231 141.349H150.687Z" fill="#263238"/>
<path d="M268.951 306.8V312.52H271.931V309.165C271.931 307.694 273.124 306.501 274.595 306.501H284.374C285.846 306.501 287.038 307.694 287.038 309.165V312.52H290.018V306.8C290.018 305.329 288.826 304.136 287.354 304.136H271.615C270.144 304.136 268.951 305.329 268.951 306.8Z" fill="#263238" stroke="#263238" stroke-width="0.728" stroke-miterlimit="10" stroke-linecap="round" stroke-linejoin="round"/>
<path d="M300.365 310.962H243.933C241.856 310.962 240.172 312.646 240.172 314.724V360.08C240.172 361.418 241.256 362.502 242.593 362.502H301.705C303.043 362.502 304.127 361.418 304.127 360.08V314.724C304.126 312.647 302.442 310.962 300.365 310.962Z" fill="#263238" stroke="#263238" stroke-width="0.728" stroke-miterlimit="10" stroke-linecap="round" stroke-linejoin="round"/>
<path d="M308.185 310.962H251.754C249.676 310.962 247.992 312.646 247.992 314.724V360.08C247.992 361.418 249.076 362.502 250.414 362.502H309.526C310.863 362.502 311.947 361.418 311.947 360.08V314.724C311.947 312.647 310.263 310.962 308.185 310.962Z" fill="#8A8A8A" stroke="#263238" stroke-width="0.728" stroke-miterlimit="10" stroke-linecap="round" stroke-linejoin="round"/>
</svg>
