<svg width="36" height="36" viewBox="0 0 36 36" fill="none" xmlns="http://www.w3.org/2000/svg">
<rect x="0.5" y="0.5" width="35" height="35" rx="3.5" fill="#CE0000" fill-opacity="0.08"/>
<rect x="0.5" y="0.5" width="35" height="35" rx="3.5" stroke="url(#paint0_linear_1652_19214)"/>
<g clip-path="url(#clip0_1652_19214)">
<path d="M21.125 21.75C24.9219 21.75 28 18.6719 28 14.875C28 11.0781 24.9219 8 21.125 8C17.3281 8 14.25 11.0781 14.25 14.875C14.25 15.6055 14.3633 16.3125 14.5742 16.9727L8.27344 23.2734C8.09766 23.4492 8 23.6875 8 23.9375V27.0625C8 27.582 8.41797 28 8.9375 28H12.0625C12.582 28 13 27.582 13 27.0625V25.5H14.5625C15.082 25.5 15.5 25.082 15.5 24.5625V23H17.0625C17.3125 23 17.5508 22.9023 17.7266 22.7266L19.0273 21.4258C19.6875 21.6367 20.3945 21.75 21.125 21.75ZM22.6875 11.75C23.1019 11.75 23.4993 11.9146 23.7924 12.2076C24.0854 12.5007 24.25 12.8981 24.25 13.3125C24.25 13.7269 24.0854 14.1243 23.7924 14.4174C23.4993 14.7104 23.1019 14.875 22.6875 14.875C22.2731 14.875 21.8757 14.7104 21.5826 14.4174C21.2896 14.1243 21.125 13.7269 21.125 13.3125C21.125 12.8981 21.2896 12.5007 21.5826 12.2076C21.8757 11.9146 22.2731 11.75 22.6875 11.75Z" fill="#CE0000"/>
</g>
<defs>
<linearGradient id="paint0_linear_1652_19214" x1="0" y1="18" x2="36" y2="18" gradientUnits="userSpaceOnUse">
<stop stop-color="#CE0000" stop-opacity="0.4"/>
<stop offset="1" stop-color="#D3A2A2"/>
</linearGradient>
<clipPath id="clip0_1652_19214">
<rect width="20" height="20" fill="white" transform="translate(8 8)"/>
</clipPath>
</defs>
</svg>
