<svg width="40" height="40" viewBox="0 0 40 40" fill="none" xmlns="http://www.w3.org/2000/svg">
<rect x="0.5" y="0.5" width="39" height="39" rx="3.5" fill="#CE0000" fill-opacity="0.08"/>
<rect x="0.5" y="0.5" width="39" height="39" rx="3.5" stroke="url(#paint0_linear_1704_30028)"/>
<g clip-path="url(#clip0_1704_30028)">
<path d="M20.5758 9.12461C20.3953 9.04297 20.202 9 20 9C19.7981 9 19.6047 9.04297 19.4242 9.12461L11.3332 12.5578C10.3879 12.9574 9.68322 13.8898 9.68752 15.0156C9.709 19.2781 11.4621 27.077 18.8656 30.6219C19.5832 30.9656 20.4168 30.9656 21.1344 30.6219C28.5379 27.077 30.291 19.2781 30.3125 15.0156C30.3168 13.8898 29.6121 12.9574 28.6668 12.5578L20.5758 9.12461ZM22.4063 17.9375C22.4063 18.8957 21.8434 19.725 21.0313 20.1117V23.0938C21.0313 23.6652 20.5715 24.125 20 24.125C19.4285 24.125 18.9688 23.6652 18.9688 23.0938V20.1117C18.1567 19.725 17.5938 18.8957 17.5938 17.9375C17.5938 16.6098 18.6723 15.5312 20 15.5312C21.3278 15.5312 22.4063 16.6098 22.4063 17.9375Z" fill="#CE0000"/>
</g>
<defs>
<linearGradient id="paint0_linear_1704_30028" x1="0" y1="20" x2="40" y2="20" gradientUnits="userSpaceOnUse">
<stop stop-color="#CE0000" stop-opacity="0.4"/>
<stop offset="1" stop-color="#D3A2A2"/>
</linearGradient>
<clipPath id="clip0_1704_30028">
<rect width="22" height="22" fill="white" transform="translate(9 9)"/>
</clipPath>
</defs>
</svg>
