<svg width="40" height="40" viewBox="0 0 40 40" fill="none" xmlns="http://www.w3.org/2000/svg">
<rect x="0.5" y="0.5" width="39" height="39" rx="3.5" fill="#CE0000" fill-opacity="0.08"/>
<rect x="0.5" y="0.5" width="39" height="39" rx="3.5" stroke="url(#paint0_linear_1058_8337)"/>
<g clip-path="url(#clip0_1058_8337)">
<path d="M20 30.5C25.8917 30.5 30.6667 25.7996 30.6667 20C30.6667 14.2004 25.8917 9.5 20 9.5C14.1083 9.5 9.33333 14.2004 9.33333 20C9.33333 20.0451 9.33333 20.0902 9.33333 20.1354C10.0125 19.8441 10.85 20.0205 11.3333 20.6604C11.625 21.0377 12.0875 21.6693 12.4875 22.3297C12.6875 22.6619 12.8875 23.027 13.0375 23.3838C13.1792 23.7119 13.3333 24.1631 13.3333 24.6348C13.3333 25.6396 12.8708 26.5215 12.15 27.108C14.1 29.1957 16.8958 30.5 20 30.5ZM11.3125 26.0908C11.7333 25.7381 12 25.2172 12 24.6348C12 23.8145 10.8167 22.1574 10.2667 21.4479C10.1333 21.2674 9.86667 21.2674 9.73333 21.4479C9.6625 21.5422 9.575 21.6529 9.4875 21.7801C8.89167 22.5881 8 23.9252 8 24.6348C8 25.7012 8.89583 26.5625 10 26.5625C10.5 26.5625 10.9583 26.3861 11.3125 26.0908ZM23.45 26.3943C23.175 26.6363 22.7542 26.6158 22.5083 26.3451C22.0208 25.8119 21.1917 25.25 20.0042 25.25C18.8167 25.25 17.9875 25.8119 17.5 26.3451C17.2542 26.6158 16.8333 26.6363 16.5583 26.3943C16.2833 26.1523 16.2625 25.7381 16.5083 25.4674C17.175 24.7332 18.3458 23.9375 20 23.9375C21.6542 23.9375 22.825 24.7332 23.4958 25.4674C23.7417 25.7381 23.7208 26.1523 23.4458 26.3943H23.45ZM23.3167 19.3438C23.6703 19.3438 24.0094 19.482 24.2595 19.7282C24.5095 19.9743 24.65 20.3082 24.65 20.6562C24.65 21.0043 24.5095 21.3382 24.2595 21.5843C24.0094 21.8305 23.6703 21.9688 23.3167 21.9688C22.963 21.9688 22.6239 21.8305 22.3739 21.5843C22.1238 21.3382 21.9833 21.0043 21.9833 20.6562C21.9833 20.3082 22.1238 19.9743 22.3739 19.7282C22.6239 19.482 22.963 19.3438 23.3167 19.3438ZM17.9833 20.6562C17.9833 21.0043 17.8429 21.3382 17.5928 21.5843C17.3428 21.8305 17.0036 21.9688 16.65 21.9688C16.2964 21.9688 15.9572 21.8305 15.7072 21.5843C15.4571 21.3382 15.3167 21.0043 15.3167 20.6562C15.3167 20.3082 15.4571 19.9743 15.7072 19.7282C15.9572 19.482 16.2964 19.3438 16.65 19.3438C17.0036 19.3438 17.3428 19.482 17.5928 19.7282C17.8429 19.9743 17.9833 20.3082 17.9833 20.6562ZM17.4708 16.526L17.1625 16.8295C16.1792 17.7975 14.9167 18.4373 13.5458 18.6629L13.4417 18.6793C13.0792 18.7408 12.7333 18.4988 12.675 18.1379C12.6167 17.777 12.8583 17.4406 13.225 17.3832L13.3292 17.3668C14.425 17.1863 15.4375 16.6736 16.225 15.9025L16.5333 15.599C16.7917 15.3447 17.2167 15.3447 17.475 15.599C17.7333 15.8533 17.7333 16.2717 17.475 16.526H17.4708ZM22.5292 15.599C22.7875 15.3447 23.2125 15.3447 23.4708 15.599L23.7792 15.9025C24.5667 16.6777 25.5792 17.1904 26.675 17.3668L26.7792 17.3832C27.1417 17.4447 27.3875 17.7811 27.3292 18.1379C27.2708 18.4947 26.925 18.7367 26.5625 18.6793L26.4583 18.6629C25.0875 18.4373 23.8208 17.7975 22.8417 16.8295L22.5333 16.526C22.275 16.2717 22.275 15.8533 22.5333 15.599H22.5292Z" fill="#CE0000"/>
</g>
<defs>
<linearGradient id="paint0_linear_1058_8337" x1="0" y1="20" x2="40" y2="20" gradientUnits="userSpaceOnUse">
<stop stop-color="#CE0000" stop-opacity="0.4"/>
<stop offset="1" stop-color="#D3A2A2"/>
</linearGradient>
<clipPath id="clip0_1058_8337">
<rect width="24" height="21" fill="white" transform="translate(8 9.5)"/>
</clipPath>
</defs>
</svg>
