<svg width="50" height="51" viewBox="0 0 50 51" fill="none" xmlns="http://www.w3.org/2000/svg">
<path fill-rule="evenodd" clip-rule="evenodd" d="M7.32233 43.033C-2.44078 33.2699 -2.44078 17.4408 7.32233 7.67767C17.0854 -2.08544 32.9146 -2.08544 42.6777 7.67767C52.4408 17.4408 52.4408 33.2699 42.6777 43.033C32.9146 52.7961 17.0854 52.7961 7.32233 43.033ZM23.7373 21.5673L16.7925 14.6225C16.0951 13.9251 14.9645 13.9251 14.2671 14.6225C13.5698 15.3198 13.5698 16.4505 14.2671 17.1479L21.2119 24.0927C21.9093 24.79 21.9093 25.9207 21.2119 26.618L14.2671 33.5628C13.5698 34.2602 13.5698 35.3908 14.2671 36.0882C14.9645 36.7856 16.0951 36.7856 16.7925 36.0882L23.7373 29.1434C24.4347 28.446 25.5653 28.446 26.2627 29.1434L33.2075 36.0882C33.9049 36.7856 35.0355 36.7856 35.7329 36.0882C36.4302 35.3908 36.4302 34.2602 35.7329 33.5628L28.7881 26.618C28.0907 25.9207 28.0907 24.79 28.7881 24.0927L35.7329 17.1479C36.4302 16.4505 36.4302 15.3198 35.7329 14.6225C35.0355 13.9251 33.9049 13.9251 33.2075 14.6225L26.2627 21.5673C25.5653 22.2646 24.4347 22.2646 23.7373 21.5673Z" fill="#F67373"/>
</svg>
