<svg width="28" height="28" viewBox="0 0 28 28" fill="none" xmlns="http://www.w3.org/2000/svg">
<rect width="28" height="28" rx="4" fill="#4DA452"/>
<g clip-path="url(#clip0_1056_16519)">
<path d="M13.9976 21C15.8541 21.0007 17.6349 20.2638 18.9482 18.9516C20.2614 17.6393 20.9996 15.8591 21.0003 14.0026C21.001 12.1461 20.2642 10.3653 18.9519 9.05209C17.6396 7.73884 15.8594 7.00067 14.0029 6.99996C12.1464 6.99926 10.3657 7.73608 9.05241 9.04834C7.73916 10.3606 7.00098 12.1408 7.00028 13.9973C6.99958 15.8538 7.7364 17.6346 9.04866 18.9478C10.3609 20.2611 12.1411 20.9993 13.9976 21ZM17.0906 12.716L13.5893 16.2147C13.3322 16.4716 12.9165 16.4714 12.6623 16.2143L10.913 14.4636C10.6561 14.2065 10.6562 13.7909 10.9133 13.5367C11.1705 13.2825 11.5861 13.2799 11.8403 13.537L13.125 14.8227L16.1613 11.7859C16.4184 11.529 16.834 11.5292 17.0882 11.7863C17.3424 12.0434 17.345 12.459 17.0879 12.7132L17.0906 12.716Z" fill="white"/>
</g>
<defs>
<clipPath id="clip0_1056_16519">
<rect width="14" height="14" fill="white" transform="translate(7.00293 6.99731) rotate(0.0216767)"/>
</clipPath>
</defs>
</svg>
