<svg width="28" height="28" viewBox="0 0 28 28" fill="none" xmlns="http://www.w3.org/2000/svg">
<rect x="0.5" y="0.5" width="27" height="27" rx="3.5" fill="#CE0000" fill-opacity="0.08"/>
<rect x="0.5" y="0.5" width="27" height="27" rx="3.5" stroke="url(#paint0_linear_1640_19151)"/>
<g clip-path="url(#clip0_1640_19151)">
<path d="M11.3 14C12.2548 14 13.1705 13.6313 13.8456 12.9749C14.5207 12.3185 14.9 11.4283 14.9 10.5C14.9 9.57174 14.5207 8.6815 13.8456 8.02513C13.1705 7.36875 12.2548 7 11.3 7C10.3452 7 9.42955 7.36875 8.75442 8.02513C8.07928 8.6815 7.7 9.57174 7.7 10.5C7.7 11.4283 8.07928 12.3185 8.75442 12.9749C9.42955 13.6313 10.3452 14 11.3 14ZM10.0147 15.3125C7.24437 15.3125 5 17.4945 5 20.1879C5 20.6363 5.37406 21 5.83531 21H16.7647C16.8153 21 16.8631 20.9945 16.9137 20.9863C14.7678 19.4797 14.1069 17.1309 14.0141 15.5121C13.5612 15.3809 13.0831 15.3125 12.5881 15.3125H10.0175H10.0147ZM18.6997 13.1715L15.3247 14.484C15.0687 14.5852 14.9 14.8258 14.9 15.0938C14.9 16.8246 15.6284 19.7094 18.6912 20.9508C18.8572 21.0191 19.0456 21.0191 19.2116 20.9508C22.2716 19.7094 23 16.8246 23 15.0938C23 14.8258 22.8313 14.5852 22.5753 14.484L19.2003 13.1715C19.04 13.1086 18.86 13.1086 18.6997 13.1715ZM21.6331 15.5312C21.5234 16.9176 20.8681 18.7223 18.95 19.6246V14.4895L21.6331 15.5312Z" fill="#CE0000"/>
</g>
<defs>
<linearGradient id="paint0_linear_1640_19151" x1="0" y1="14" x2="28" y2="14" gradientUnits="userSpaceOnUse">
<stop stop-color="#CE0000" stop-opacity="0.4"/>
<stop offset="1" stop-color="#D3A2A2"/>
</linearGradient>
<clipPath id="clip0_1640_19151">
<rect width="18" height="14" fill="white" transform="translate(5 7)"/>
</clipPath>
</defs>
</svg>
