<svg width="28" height="28" viewBox="0 0 28 28" fill="none" xmlns="http://www.w3.org/2000/svg">
<rect x="0.5" y="0.5" width="27" height="27" rx="3.5" fill="#CE0000" fill-opacity="0.08"/>
<rect x="0.5" y="0.5" width="27" height="27" rx="3.5" stroke="url(#paint0_linear_1640_19156)"/>
<g clip-path="url(#clip0_1640_19156)">
<path d="M7.77778 7.875C6.79722 7.875 6 8.65977 6 9.625V18.375C6 19.3402 6.79722 20.125 7.77778 20.125H20.2222C21.2028 20.125 22 19.3402 22 18.375V9.625C22 8.65977 21.2028 7.875 20.2222 7.875H7.77778ZM10 14.875H11.7778C13.0056 14.875 14 15.8539 14 17.0625C14 17.3031 13.8 17.5 13.5556 17.5H8.22222C7.97778 17.5 7.77778 17.3031 7.77778 17.0625C7.77778 15.8539 8.77222 14.875 10 14.875ZM9.11111 12.25C9.11111 11.7859 9.29841 11.3408 9.63181 11.0126C9.96521 10.6844 10.4174 10.5 10.8889 10.5C11.3604 10.5 11.8126 10.6844 12.146 11.0126C12.4794 11.3408 12.6667 11.7859 12.6667 12.25C12.6667 12.7141 12.4794 13.1592 12.146 13.4874C11.8126 13.8156 11.3604 14 10.8889 14C10.4174 14 9.96521 13.8156 9.63181 13.4874C9.29841 13.1592 9.11111 12.7141 9.11111 12.25ZM16.2222 11.375H19.7778C20.0222 11.375 20.2222 11.5719 20.2222 11.8125C20.2222 12.0531 20.0222 12.25 19.7778 12.25H16.2222C15.9778 12.25 15.7778 12.0531 15.7778 11.8125C15.7778 11.5719 15.9778 11.375 16.2222 11.375ZM16.2222 13.125H19.7778C20.0222 13.125 20.2222 13.3219 20.2222 13.5625C20.2222 13.8031 20.0222 14 19.7778 14H16.2222C15.9778 14 15.7778 13.8031 15.7778 13.5625C15.7778 13.3219 15.9778 13.125 16.2222 13.125ZM16.2222 14.875H19.7778C20.0222 14.875 20.2222 15.0719 20.2222 15.3125C20.2222 15.5531 20.0222 15.75 19.7778 15.75H16.2222C15.9778 15.75 15.7778 15.5531 15.7778 15.3125C15.7778 15.0719 15.9778 14.875 16.2222 14.875Z" fill="#CE0000"/>
</g>
<defs>
<linearGradient id="paint0_linear_1640_19156" x1="0" y1="14" x2="28" y2="14" gradientUnits="userSpaceOnUse">
<stop stop-color="#CE0000" stop-opacity="0.4"/>
<stop offset="1" stop-color="#D3A2A2"/>
</linearGradient>
<clipPath id="clip0_1640_19156">
<rect width="16" height="14" fill="white" transform="translate(6 7)"/>
</clipPath>
</defs>
</svg>
