<svg width="38" height="38" viewBox="0 0 38 38" fill="none" xmlns="http://www.w3.org/2000/svg">
<rect width="38" height="38" rx="4" fill="#A10000"/>
<path d="M24.4908 15.2942C24.9465 14.8548 24.9465 14.1411 24.4908 13.7017C24.035 13.2622 23.2949 13.2622 22.8392 13.7017L19.0001 17.4071L15.1574 13.7052C14.7017 13.2657 13.9616 13.2657 13.5059 13.7052C13.0501 14.1446 13.0501 14.8583 13.5059 15.2978L17.3486 18.9997L13.5095 22.7052C13.0538 23.1446 13.0538 23.8583 13.5095 24.2978C13.9652 24.7372 14.7053 24.7372 15.1611 24.2978L19.0001 20.5923L22.8428 24.2942C23.2986 24.7337 24.0387 24.7337 24.4944 24.2942C24.9501 23.8548 24.9501 23.1411 24.4944 22.7017L20.6517 18.9997L24.4908 15.2942Z" fill="white"/>
</svg>
