<svg width="38" height="38" viewBox="0 0 38 38" fill="none" xmlns="http://www.w3.org/2000/svg">
<rect width="38" height="38" rx="4" fill="#00CE0A"/>
<g clip-path="url(#clip0_1675_19859)">
<path d="M14.3333 10C13.0464 10 12 11.009 12 12.25V25.75C12 26.991 13.0464 28 14.3333 28H23.6667C24.9536 28 26 26.991 26 25.75V15.625H21.3333C20.688 15.625 20.1667 15.1223 20.1667 14.5V10H14.3333ZM21.3333 10V14.5H26L21.3333 10ZM23.1198 19.8789L18.4531 24.3789C18.1104 24.7094 17.5563 24.7094 17.2172 24.3789L14.8802 22.1289C14.5375 21.7984 14.5375 21.2641 14.8802 20.9371C15.2229 20.6102 15.7771 20.6066 16.1161 20.9371L17.8297 22.5895L21.8802 18.6836C22.2229 18.3531 22.7771 18.3531 23.1161 18.6836C23.4552 19.0141 23.4589 19.5484 23.1161 19.8754L23.1198 19.8789Z" fill="white"/>
</g>
<defs>
<clipPath id="clip0_1675_19859">
<rect width="14" height="18" fill="white" transform="translate(12 10)"/>
</clipPath>
</defs>
</svg>
