<svg width="38" height="38" viewBox="0 0 38 38" fill="none" xmlns="http://www.w3.org/2000/svg">
<rect width="38" height="38" rx="4" fill="#CE6700"/>
<path d="M28.3366 19.4109C30.3671 17.4246 30.3671 14.2078 28.3366 12.2215C26.5397 10.4637 23.7079 10.2351 21.6414 11.6801L21.5839 11.7187C21.0664 12.0808 20.9479 12.784 21.318 13.2867C21.6882 13.7894 22.4069 13.909 22.9208 13.5469L22.9783 13.5082C24.1319 12.7031 25.7096 12.8297 26.7086 13.8105C27.8407 14.918 27.8407 16.7109 26.7086 17.8183L22.6764 21.7699C21.5444 22.8773 19.7116 22.8773 18.5796 21.7699C17.5769 20.789 17.4475 19.2457 18.2705 18.1207L18.31 18.0644C18.6802 17.5582 18.558 16.8551 18.0441 16.4965C17.5302 16.1379 16.8079 16.2539 16.4413 16.7566L16.4018 16.8129C14.9211 18.8308 15.1547 21.6012 16.9516 23.359C18.9821 25.3453 22.2704 25.3453 24.3008 23.359L28.3366 19.4109ZM9.66348 18.5883C7.63301 20.5746 7.63301 23.7914 9.66348 25.7777C11.4604 27.5355 14.2922 27.764 16.3586 26.3191L16.4161 26.2805C16.9336 25.9183 17.0522 25.2152 16.6821 24.7125C16.3119 24.2098 15.5932 24.0902 15.0793 24.4523L15.0218 24.491C13.8682 25.2961 12.2905 25.1695 11.2914 24.1887C10.1594 23.0777 10.1594 21.2848 11.2914 20.1773L15.3236 16.2293C16.4557 15.1219 18.2885 15.1219 19.4205 16.2293C20.4232 17.2101 20.5525 18.7535 19.7296 19.882L19.69 19.9383C19.3199 20.4445 19.4421 21.1476 19.956 21.5062C20.4699 21.8648 21.1922 21.7488 21.5588 21.2461L21.5983 21.1898C23.0789 19.1683 22.8454 16.398 21.0485 14.6402C19.018 12.6539 15.7297 12.6539 13.6993 14.6402L9.66348 18.5883Z" fill="white"/>
</svg>
