<svg width="38" height="38" viewBox="0 0 38 38" fill="none" xmlns="http://www.w3.org/2000/svg">
<rect width="38" height="38" rx="4" fill="#00CE0A"/>
<g clip-path="url(#clip0_1675_20429)">
<path d="M19 10C20.2937 10 21.4187 10.7277 21.9848 11.7965C23.1414 11.4414 24.4492 11.7227 25.3633 12.6367C26.2773 13.5508 26.5586 14.8621 26.2035 16.0152C27.2723 16.5813 28 17.7063 28 19C28 20.2937 27.2723 21.4187 26.2035 21.9848C26.5586 23.1414 26.2773 24.4492 25.3633 25.3633C24.4492 26.2773 23.1379 26.5586 21.9848 26.2035C21.4187 27.2723 20.2937 28 19 28C17.7063 28 16.5813 27.2723 16.0152 26.2035C14.8586 26.5586 13.5508 26.2773 12.6367 25.3633C11.7227 24.4492 11.4414 23.1379 11.7965 21.9848C10.7277 21.4187 10 20.2937 10 19C10 17.7063 10.7277 16.5813 11.7965 16.0152C11.4414 14.8586 11.7227 13.5508 12.6367 12.6367C13.5508 11.7227 14.8621 11.4414 16.0152 11.7965C16.5813 10.7277 17.7063 10 19 10ZM22.9727 17.3477C23.3031 17.0172 23.3031 16.4828 22.9727 16.1559C22.6422 15.8289 22.1078 15.8254 21.7809 16.1559L17.8785 20.0582L16.2262 18.4059C15.8957 18.0754 15.3613 18.0754 15.0344 18.4059C14.7074 18.7363 14.7039 19.2707 15.0344 19.5977L17.2844 21.8477C17.6148 22.1781 18.1492 22.1781 18.4762 21.8477L22.9727 17.3477Z" fill="white"/>
</g>
<defs>
<clipPath id="clip0_1675_20429">
<rect width="18" height="18" fill="white" transform="translate(10 10)"/>
</clipPath>
</defs>
</svg>
