<svg width="28" height="28" viewBox="0 0 28 28" fill="none" xmlns="http://www.w3.org/2000/svg">
<rect x="0.5" y="0.5" width="27" height="27" rx="3.5" fill="#CE0000" fill-opacity="0.08"/>
<rect x="0.5" y="0.5" width="27" height="27" rx="3.5" stroke="url(#paint0_linear_1633_18766)"/>
<g clip-path="url(#clip0_1633_18766)">
<path d="M11.3 14C12.2548 14 13.1705 13.6313 13.8456 12.9749C14.5207 12.3185 14.9 11.4283 14.9 10.5C14.9 9.57174 14.5207 8.6815 13.8456 8.02513C13.1705 7.36875 12.2548 7 11.3 7C10.3452 7 9.42955 7.36875 8.75442 8.02513C8.07928 8.6815 7.7 9.57174 7.7 10.5C7.7 11.4283 8.07928 12.3185 8.75442 12.9749C9.42955 13.6313 10.3452 14 11.3 14ZM10.0147 15.3125C7.24438 15.3125 5 17.4945 5 20.1879C5 20.6363 5.37406 21 5.83531 21H14.0787C13.9916 20.7594 13.9747 20.4969 14.0394 20.2398L14.4613 18.5965C14.54 18.2875 14.7031 18.0086 14.9338 17.7844L16.0672 16.6824C15.1644 15.8348 13.9381 15.3125 12.5825 15.3125H10.0119H10.0147ZM22.2631 13.4449C21.8244 13.0184 21.1128 13.0184 20.6713 13.4449L19.8444 14.2488L21.8412 16.1902L22.6681 15.3863C23.1069 14.9598 23.1069 14.268 22.6681 13.8387L22.2631 13.4449ZM15.5722 18.4023C15.4569 18.5145 15.3753 18.6539 15.3359 18.8098L14.9141 20.4531C14.8747 20.6035 14.9197 20.7594 15.0322 20.8688C15.1447 20.9781 15.305 21.0219 15.4597 20.9836L17.15 20.5734C17.3075 20.5352 17.4538 20.4559 17.5691 20.3438L21.2028 16.8082L19.2059 14.8668L15.5722 18.4023Z" fill="#CE0000"/>
</g>
<defs>
<linearGradient id="paint0_linear_1633_18766" x1="0" y1="14" x2="28" y2="14" gradientUnits="userSpaceOnUse">
<stop stop-color="#CE0000" stop-opacity="0.4"/>
<stop offset="1" stop-color="#D3A2A2"/>
</linearGradient>
<clipPath id="clip0_1633_18766">
<rect width="18" height="14" fill="white" transform="translate(5 7)"/>
</clipPath>
</defs>
</svg>
