<svg width="38" height="38" viewBox="0 0 38 38" fill="none" xmlns="http://www.w3.org/2000/svg">
<rect width="38" height="38" rx="4" fill="#CE6700"/>
<g clip-path="url(#clip0_1675_19669)">
<path d="M19 10C18.3777 10 17.875 10.5027 17.875 11.125V13.375C17.875 13.9973 18.3777 14.5 19 14.5C19.6223 14.5 20.125 13.9973 20.125 13.375V12.3449C23.3172 12.8793 25.75 15.6566 25.75 19C25.75 22.7266 22.7266 25.75 19 25.75C15.2734 25.75 12.25 22.7266 12.25 19C12.25 17.1121 13.0234 15.4035 14.275 14.1801C14.718 13.7441 14.725 13.034 14.2926 12.5875C13.8602 12.141 13.1465 12.1375 12.7 12.5699C11.0371 14.2047 10 16.4828 10 19C10 23.9711 14.0289 28 19 28C23.9711 28 28 23.9711 28 19C28 14.0289 23.9711 10 19 10ZM16.7852 15.5898C16.4547 15.2594 15.9203 15.2594 15.5934 15.5898C15.2664 15.9203 15.2629 16.4547 15.5934 16.7816L18.4059 19.5941C18.7363 19.9246 19.2707 19.9246 19.5977 19.5941C19.9246 19.2637 19.9281 18.7293 19.5977 18.4023L16.7852 15.5898Z" fill="white"/>
</g>
<defs>
<clipPath id="clip0_1675_19669">
<rect width="18" height="18" fill="white" transform="translate(10 10)"/>
</clipPath>
</defs>
</svg>
