<svg width="14" height="13" viewBox="0 0 14 13" fill="none" xmlns="http://www.w3.org/2000/svg">
<path d="M5.05206 10.8341C5.01017 10.7592 4.9599 10.6926 4.92639 10.6177C4.89288 10.6177 4.86774 10.6177 4.83423 10.626C4.74207 10.6343 4.64991 10.6427 4.55775 10.6427C4.46559 10.6427 4.32316 10.6427 4.21424 10.6177C4.21424 10.6177 4.20587 10.6177 4.19749 10.6177C4.18073 10.6177 4.16397 10.6177 4.14722 10.6177C4.13884 10.6177 4.12208 10.6177 4.11371 10.6177C4.10533 10.6177 4.09695 10.6177 4.08857 10.6177C4.07181 10.6177 4.04668 10.6177 4.02992 10.6094C2.89886 10.3929 1.98564 9.47705 1.82645 8.28647C1.62537 6.78784 2.68103 5.40576 4.19749 5.20595C4.36505 5.18097 4.53262 5.18097 4.6918 5.18929H4.70018C4.71694 5.18929 4.73369 5.18929 4.75045 5.18929C4.75045 5.18929 4.75883 5.18929 4.76721 5.18929C4.78396 5.18929 4.80072 5.18929 4.81748 5.18929C4.87612 5.18929 4.94315 5.20595 5.0018 5.21427C5.01855 5.21427 5.04369 5.21427 5.06044 5.2226C5.10233 5.2226 5.14423 5.23925 5.18612 5.24757C5.35368 5.2892 5.52125 5.34748 5.68043 5.41409C6.26691 5.68051 6.74447 6.13843 7.02095 6.71291C7.02095 6.71291 7.02095 6.72956 7.02933 6.73788C7.12986 6.9377 7.19689 7.15417 7.23878 7.38729C7.27229 7.55381 7.28905 7.73697 7.28905 7.91181C7.28905 8.18656 7.24716 8.45299 7.17176 8.71108C7.3477 9.40212 7.85039 9.96827 8.50389 10.2264C8.91442 9.54366 9.14901 8.74439 9.14901 7.88684C9.14901 7.02928 9.09875 7.10422 8.99821 6.73788C8.99821 6.72123 8.99821 6.71291 8.98983 6.70458C8.98983 6.68793 8.98983 6.6796 8.98145 6.67128C8.97307 6.63797 8.96469 6.613 8.95632 6.57969C8.95632 6.57137 8.95632 6.55472 8.94794 6.54639C8.93956 6.52141 8.93118 6.49644 8.9228 6.47146C8.9228 6.47146 8.9228 6.45481 8.9228 6.44648C8.91442 6.41318 8.89767 6.37988 8.88929 6.34657V6.32992C8.88091 6.29662 8.86415 6.26332 8.85578 6.23001C8.83902 6.19671 8.82226 6.15508 8.81388 6.12178C8.7301 5.93861 8.64632 5.75545 8.5374 5.58061C8.36984 5.29753 8.16876 5.03111 7.94255 4.78966C7.89228 4.73138 7.83363 4.6731 7.77499 4.62314C7.77499 4.62314 7.77499 4.62314 7.76661 4.62314L7.68283 4.53989C7.65769 4.51491 7.63256 4.48993 7.59904 4.46496C7.59904 4.46496 7.59067 4.45663 7.58229 4.4483C7.55715 4.42333 7.53202 4.39835 7.49851 4.3817C7.49851 4.3817 7.49013 4.37337 7.48175 4.36505C7.45661 4.3484 7.43986 4.33174 7.41472 4.30677C7.41472 4.30677 7.39797 4.29844 7.38959 4.29011C7.36445 4.27346 7.33932 4.24849 7.30581 4.23183C7.29743 4.23183 7.28905 4.21518 7.28067 4.21518C7.25554 4.19853 7.23878 4.18188 7.21365 4.16523C7.21365 4.16523 7.20527 4.16523 7.19689 4.14858C7.16338 4.1236 7.12986 4.10695 7.10473 4.08197C7.09635 4.08197 7.08797 4.06532 7.07122 4.06532C7.0377 4.04867 7.01257 4.02369 6.97906 4.00704C6.97068 4.00704 6.95392 3.99039 6.93716 3.98206C6.90365 3.96541 6.87852 3.94876 6.85338 3.93211C6.83663 3.93211 6.82825 3.91546 6.81149 3.90713C6.78636 3.89048 6.7696 3.88215 6.74447 3.87383C6.73609 3.87383 6.72771 3.8655 6.71095 3.85718C6.62717 3.81555 6.53501 3.76559 6.44285 3.72396H6.43447C6.40934 3.70731 6.37582 3.69899 6.35069 3.68234C6.32555 3.67401 6.30042 3.66568 6.27529 3.64903C6.26691 3.64903 6.25853 3.64903 6.24177 3.64071C6.22502 3.64071 6.20826 3.62406 6.18312 3.62406C6.16637 3.62406 6.14123 3.6074 6.12448 3.6074C6.1161 3.6074 6.09934 3.59908 6.08259 3.59075C6.06583 3.59075 6.04907 3.58243 6.03232 3.5741H6.01556C5.73908 3.48252 5.45422 3.42424 5.16936 3.38261L6.7696 1.70081C6.94554 1.51764 6.93717 1.22624 6.75284 1.0514L6.05745 0.393668C5.87313 0.218828 5.57989 0.227153 5.40395 0.41032L1.37403 4.63147C1.36565 4.63147 1.35727 4.64812 1.34889 4.65645C1.34052 4.66477 1.32376 4.68142 1.31538 4.68975C1.29862 4.7064 1.28187 4.72305 1.26511 4.74803C1.26511 4.74803 1.25673 4.76468 1.24835 4.76468C1.22322 4.78966 1.20646 4.80631 1.18133 4.83129C0.854579 5.18929 0.594852 5.58893 0.393775 6.02187C0.268101 6.29662 0.175941 6.57969 0.100537 6.87942C0.100537 6.87942 0.100537 6.89607 0.100537 6.9044C0.100537 6.92937 0.0921604 6.96268 0.0837822 6.98766C0.0837822 7.00431 0.0837817 7.02928 0.0754035 7.04594C0.0754035 7.06259 0.0754029 7.07924 0.0670247 7.09589C0.0670247 7.12919 0.058648 7.1625 0.0502698 7.1958C0.0502698 7.1958 0.0502698 7.1958 0.0502698 7.21245C0.0167569 7.43725 0 7.67037 0 7.90349C0 10.4345 2.06104 12.4826 4.60802 12.4826C4.82585 12.4826 5.04369 12.466 5.26152 12.4327C5.29503 12.4327 5.32855 12.4244 5.36206 12.416C5.37044 12.416 5.37882 12.416 5.39557 12.416C5.42071 12.416 5.44584 12.4077 5.47098 12.4077C5.48773 12.4077 5.50449 12.4077 5.52125 12.3994C5.538 12.3994 5.55476 12.3994 5.57152 12.3911C5.59665 12.3911 5.62178 12.3827 5.64692 12.3744C5.6553 12.3744 5.66367 12.3744 5.67205 12.3744C5.70557 12.3744 5.7307 12.3578 5.76421 12.3494C5.76421 12.3494 5.76421 12.3494 5.77259 12.3494C5.94853 12.3078 6.1161 12.2495 6.28366 12.1829C5.81448 11.8166 5.41233 11.3753 5.09396 10.8758L5.05206 10.8341Z" fill="url(#paint0_linear_697_595)"/>
<path d="M9.37544 3.5658C8.78059 3.5658 8.21925 3.67403 7.6998 3.88217C8.24438 4.30679 8.70518 4.83963 9.04031 5.44741C9.14923 5.43076 9.25815 5.43076 9.37544 5.43076C10.9003 5.43076 12.1319 6.65465 12.1319 8.16993C12.1319 9.68522 10.9003 10.9091 9.37544 10.9091C7.85061 10.9091 8.9314 10.8841 8.72194 10.8342C8.55438 10.7925 8.38681 10.7343 8.22763 10.6677C7.64953 10.4012 7.17197 9.94331 6.89549 9.36884C6.79495 9.16069 6.71955 8.9359 6.66928 8.70278C6.63577 8.52794 6.61901 8.3531 6.61901 8.17826C6.61901 7.88686 6.66928 7.60378 6.75306 7.32903C6.57712 6.63799 6.07442 6.08017 5.4293 5.81375C5.01877 6.49646 4.78418 7.29573 4.78418 8.15328C4.78418 9.01083 4.93499 9.46875 5.19471 10.0432C5.27012 10.2014 5.3539 10.3596 5.44606 10.5095C5.78119 11.0673 6.23361 11.5419 6.76982 11.9165C6.929 12.0247 7.08819 12.1247 7.25575 12.2079C7.8925 12.5409 8.6214 12.7324 9.3922 12.7324C11.9392 12.7324 14.0002 10.6843 14.0002 8.15328C14.0002 5.62225 11.9392 3.57412 9.3922 3.57412L9.37544 3.5658Z" fill="url(#paint1_linear_697_595)"/>
<defs>
<linearGradient id="paint0_linear_697_595" x1="4.57451" y1="0.267578" x2="4.57451" y2="12.4826" gradientUnits="userSpaceOnUse">
<stop stop-color="#CE0000"/>
<stop offset="1" stop-color="#D3A2A2"/>
</linearGradient>
<linearGradient id="paint1_linear_697_595" x1="9.3922" y1="3.5658" x2="9.3922" y2="12.7324" gradientUnits="userSpaceOnUse">
<stop stop-color="#CE0000"/>
<stop offset="1" stop-color="#D3A2A2"/>
</linearGradient>
</defs>
</svg>
