<svg width="28" height="24" viewBox="0 0 28 24" fill="none" xmlns="http://www.w3.org/2000/svg">
<path d="M10.3593 20.0655C10.2809 19.9243 10.1867 19.7988 10.1239 19.6575C10.0612 19.6575 10.0141 19.6575 9.95131 19.6732C9.77869 19.6889 9.60607 19.7046 9.43345 19.7046C9.26083 19.7046 8.99404 19.7046 8.79004 19.6575C8.79004 19.6575 8.77435 19.6575 8.75865 19.6575C8.72727 19.6575 8.69588 19.6575 8.66449 19.6575C8.6488 19.6575 8.61742 19.6575 8.60172 19.6575C8.58603 19.6575 8.57033 19.6575 8.55464 19.6575C8.52326 19.6575 8.47618 19.6575 8.44479 19.6418C6.32625 19.2338 4.61571 17.5076 4.31755 15.2635C3.94091 12.4388 5.91823 9.83375 8.75865 9.45711C9.07251 9.41004 9.38637 9.41004 9.68454 9.42573H9.70023C9.73162 9.42573 9.763 9.42573 9.79438 9.42573C9.79438 9.42573 9.81008 9.42573 9.82577 9.42573C9.85716 9.42573 9.88854 9.42573 9.91993 9.42573C10.0298 9.42573 10.1553 9.45711 10.2652 9.47281C10.2966 9.47281 10.3436 9.47281 10.375 9.4885C10.4535 9.4885 10.532 9.51989 10.6104 9.53558C10.9243 9.61404 11.2381 9.72389 11.5363 9.84944C12.6348 10.3516 13.5293 11.2147 14.0472 12.2975C14.0472 12.2975 14.0472 12.3289 14.0629 12.3446C14.2512 12.7212 14.3767 13.1293 14.4552 13.5687C14.518 13.8825 14.5494 14.2278 14.5494 14.5573C14.5494 15.0752 14.4709 15.5774 14.3296 16.0638C14.6592 17.3664 15.6008 18.4335 16.8248 18.92C17.5938 17.6331 18.0332 16.1266 18.0332 14.5102C18.0332 12.8939 17.939 13.0351 17.7507 12.3446C17.7507 12.3132 17.7507 12.2975 17.735 12.2818C17.735 12.2505 17.735 12.2348 17.7193 12.2191C17.7036 12.1563 17.6879 12.1092 17.6722 12.0465C17.6722 12.0308 17.6722 11.9994 17.6566 11.9837C17.6409 11.9366 17.6252 11.8895 17.6095 11.8424C17.6095 11.8424 17.6095 11.8111 17.6095 11.7954C17.5938 11.7326 17.5624 11.6698 17.5467 11.607V11.5757C17.531 11.5129 17.4996 11.4501 17.4839 11.3873C17.4525 11.3246 17.4212 11.2461 17.4055 11.1833C17.2485 10.8381 17.0916 10.4928 16.8876 10.1633C16.5737 9.62974 16.1971 9.12756 15.7734 8.67247C15.6792 8.56262 15.5694 8.45277 15.4595 8.35861C15.4595 8.35861 15.4595 8.35861 15.4438 8.35861L15.2869 8.20168C15.2398 8.1546 15.1928 8.10752 15.13 8.06044C15.13 8.06044 15.1143 8.04475 15.0986 8.02906C15.0515 7.98198 15.0044 7.9349 14.9417 7.90351C14.9417 7.90351 14.926 7.88782 14.9103 7.87213C14.8632 7.84074 14.8318 7.80935 14.7847 7.76228C14.7847 7.76228 14.7534 7.74658 14.7377 7.73089C14.6906 7.6995 14.6435 7.65242 14.5807 7.62104C14.565 7.62104 14.5493 7.58965 14.5337 7.58965C14.4866 7.55827 14.4552 7.52688 14.4081 7.4955C14.4081 7.4955 14.3924 7.4955 14.3767 7.46411C14.314 7.41703 14.2512 7.38564 14.2041 7.33857C14.1884 7.33857 14.1727 7.30718 14.1413 7.30718C14.0786 7.27579 14.0315 7.22872 13.9687 7.19733C13.953 7.19733 13.9216 7.16594 13.8902 7.15025C13.8275 7.11886 13.7804 7.08748 13.7333 7.05609C13.7019 7.05609 13.6862 7.02471 13.6549 7.00901C13.6078 6.97763 13.5764 6.96194 13.5293 6.94624C13.5136 6.94624 13.4979 6.93055 13.4665 6.91486C13.3096 6.83639 13.137 6.74223 12.9644 6.66377H12.9487C12.9016 6.63238 12.8388 6.61669 12.7917 6.5853C12.7447 6.56961 12.6976 6.55392 12.6505 6.52253C12.6348 6.52253 12.6191 6.52253 12.5877 6.50684C12.5563 6.50684 12.525 6.47545 12.4779 6.47545C12.4465 6.47545 12.3994 6.44407 12.368 6.44407C12.3523 6.44407 12.321 6.42838 12.2896 6.41268C12.2582 6.41268 12.2268 6.39699 12.1954 6.3813H12.164C11.6462 6.20867 11.1126 6.09882 10.579 6.02036L13.5764 2.85038C13.9059 2.50514 13.8902 1.95588 13.545 1.62633L12.2425 0.386589C11.8972 0.0570376 11.348 0.0727305 11.0184 0.417975L3.47013 8.3743C3.45443 8.3743 3.43874 8.40569 3.42305 8.42138C3.40736 8.43707 3.37597 8.46846 3.36027 8.48415C3.32889 8.51554 3.29751 8.54692 3.26612 8.594C3.26612 8.594 3.25043 8.62539 3.23473 8.62539C3.18765 8.67247 3.15627 8.70385 3.10919 8.75093C2.49717 9.42573 2.01068 10.179 1.63405 10.995C1.39866 11.5129 1.22603 12.0465 1.0848 12.6114C1.0848 12.6114 1.0848 12.6428 1.0848 12.6585C1.0848 12.7056 1.06911 12.7683 1.05341 12.8154C1.05341 12.8468 1.05341 12.8939 1.03772 12.9253C1.03772 12.9566 1.03772 12.988 1.02203 13.0194C1.02203 13.0822 1.00634 13.145 0.990643 13.2077C0.990643 13.2077 0.990643 13.2077 0.990643 13.2391C0.927871 13.6628 0.896484 14.1022 0.896484 14.5416C0.896484 19.3123 4.75695 23.1728 9.52761 23.1728C9.93562 23.1728 10.3436 23.1414 10.7517 23.0786C10.8144 23.0786 10.8772 23.0629 10.94 23.0472C10.9557 23.0472 10.9714 23.0472 11.0027 23.0472C11.0498 23.0472 11.0969 23.0315 11.144 23.0315C11.1754 23.0315 11.2068 23.0315 11.2381 23.0158C11.2695 23.0158 11.3009 23.0158 11.3323 23.0001C11.3794 23.0001 11.4265 22.9844 11.4735 22.9687C11.4892 22.9687 11.5049 22.9687 11.5206 22.9687C11.5834 22.9687 11.6305 22.9374 11.6932 22.9217C11.6932 22.9217 11.6932 22.9217 11.7089 22.9217C12.0385 22.8432 12.3523 22.7334 12.6662 22.6078C11.7874 21.9173 11.0341 21.0856 10.4378 20.144L10.3593 20.0655Z" fill="#FF0000"/>
<path d="M18.4572 6.3656C17.343 6.3656 16.2915 6.56961 15.3186 6.96193C16.3386 7.76227 17.2017 8.76662 17.8294 9.91221C18.0334 9.88082 18.2375 9.88082 18.4572 9.88082C21.3133 9.88082 23.6201 12.1877 23.6201 15.0438C23.6201 17.8999 21.3133 20.2068 18.4572 20.2068C15.601 20.2068 17.6254 20.1597 17.2331 20.0655C16.9192 19.9871 16.6054 19.8772 16.3072 19.7517C15.2244 19.2495 14.3299 18.3864 13.812 17.3036C13.6237 16.9113 13.4825 16.4876 13.3883 16.0482C13.3256 15.7186 13.2942 15.389 13.2942 15.0595C13.2942 14.5102 13.3883 13.9767 13.5453 13.4588C13.2157 12.1563 12.2741 11.1049 11.0658 10.6027C10.2968 11.8895 9.85742 13.396 9.85742 15.0124C9.85742 16.6288 10.1399 17.4919 10.6264 18.5747C10.7676 18.8729 10.9245 19.1711 11.0972 19.4535C11.7249 20.505 12.5723 21.3994 13.5766 22.1056C13.8748 22.3096 14.173 22.498 14.4868 22.6549C15.6795 23.2826 17.0448 23.6435 18.4885 23.6435C23.2592 23.6435 27.1197 19.7831 27.1197 15.0124C27.1197 10.2418 23.2592 6.38129 18.4885 6.38129L18.4572 6.3656Z" fill="#FF0000"/>
</svg>
