<svg width="71" height="21" viewBox="0 0 71 21" fill="none" xmlns="http://www.w3.org/2000/svg">
<path d="M53.5259 16.607C53.4709 16.508 53.4049 16.42 53.3609 16.321C53.3169 16.321 53.2839 16.321 53.2399 16.332C53.1189 16.343 52.9979 16.354 52.8769 16.354C52.7559 16.354 52.5689 16.354 52.4259 16.321C52.4259 16.321 52.4149 16.321 52.4039 16.321C52.3819 16.321 52.3599 16.321 52.3378 16.321C52.3268 16.321 52.3048 16.321 52.2938 16.321C52.2828 16.321 52.2718 16.321 52.2608 16.321C52.2388 16.321 52.2058 16.321 52.1838 16.31C50.6988 16.024 49.4997 14.8139 49.2907 13.2409C49.0267 11.2608 50.4128 9.43468 52.4039 9.17067C52.6239 9.13767 52.8439 9.13767 53.0529 9.14867H53.0639C53.0859 9.14867 53.1079 9.14867 53.1299 9.14867C53.1299 9.14867 53.1409 9.14867 53.1519 9.14867C53.1739 9.14867 53.1959 9.14867 53.2179 9.14867C53.2949 9.14867 53.3829 9.17067 53.4599 9.18167C53.4819 9.18167 53.5149 9.18167 53.5369 9.19267C53.5919 9.19267 53.6469 9.21467 53.7019 9.22567C53.9219 9.28067 54.1419 9.35768 54.3509 9.44568C55.121 9.7977 55.748 10.4027 56.111 11.1618C56.111 11.1618 56.111 11.1838 56.122 11.1948C56.254 11.4588 56.342 11.7448 56.3971 12.0528C56.4411 12.2728 56.4631 12.5148 56.4631 12.7458C56.4631 13.1089 56.4081 13.4609 56.309 13.8019C56.5401 14.7149 57.2001 15.463 58.0581 15.804C58.5972 14.902 58.9052 13.8459 58.9052 12.7128C58.9052 11.5798 58.8392 11.6788 58.7072 11.1948C58.7072 11.1728 58.7072 11.1618 58.6962 11.1508C58.6962 11.1288 58.6962 11.1178 58.6852 11.1068C58.6742 11.0628 58.6632 11.0298 58.6522 10.9858C58.6522 10.9748 58.6522 10.9528 58.6412 10.9418C58.6302 10.9088 58.6192 10.8758 58.6082 10.8428C58.6082 10.8428 58.6082 10.8208 58.6082 10.8097C58.5972 10.7657 58.5752 10.7217 58.5642 10.6777V10.6557C58.5532 10.6117 58.5312 10.5677 58.5202 10.5237C58.4982 10.4797 58.4762 10.4247 58.4652 10.3807C58.3551 10.1387 58.2451 9.8967 58.1021 9.66569C57.8821 9.29167 57.6181 8.93966 57.3211 8.62064C57.2551 8.54364 57.1781 8.46663 57.1011 8.40063C57.1011 8.40063 57.1011 8.40063 57.0901 8.40063L56.9801 8.29062C56.9471 8.25762 56.9141 8.22462 56.8701 8.19162C56.8701 8.19162 56.8591 8.18062 56.8481 8.16962C56.8151 8.13662 56.7821 8.10361 56.7381 8.08161C56.7381 8.08161 56.7271 8.07061 56.7161 8.05961C56.6831 8.03761 56.6611 8.01561 56.6281 7.98261C56.6281 7.98261 56.6061 7.97161 56.5951 7.96061C56.5621 7.93861 56.5291 7.9056 56.4851 7.8836C56.4741 7.8836 56.4631 7.8616 56.4521 7.8616C56.4191 7.8396 56.3971 7.8176 56.3641 7.7956C56.3641 7.7956 56.353 7.7956 56.342 7.7736C56.298 7.7406 56.254 7.7186 56.221 7.68559C56.21 7.68559 56.199 7.66359 56.177 7.66359C56.133 7.64159 56.1 7.60859 56.056 7.58659C56.045 7.58659 56.023 7.56459 56.001 7.55359C55.957 7.53159 55.924 7.50959 55.891 7.48758C55.869 7.48758 55.858 7.46558 55.836 7.45458C55.803 7.43258 55.781 7.42158 55.748 7.41058C55.737 7.41058 55.726 7.39958 55.704 7.38858C55.594 7.33358 55.473 7.26757 55.352 7.21257H55.341C55.308 7.19057 55.264 7.17957 55.231 7.15757C55.198 7.14657 55.165 7.13557 55.132 7.11357C55.121 7.11357 55.11 7.11357 55.088 7.10256C55.066 7.10256 55.044 7.08056 55.011 7.08056C54.989 7.08056 54.956 7.05856 54.934 7.05856C54.923 7.05856 54.901 7.04756 54.879 7.03656C54.857 7.03656 54.835 7.02556 54.813 7.01456H54.791C54.428 6.89355 54.0539 6.81655 53.6799 6.76155L55.781 4.53944C56.012 4.29743 56.001 3.91241 55.759 3.68139L54.846 2.81235C54.604 2.58134 54.2189 2.59234 53.9879 2.83435L48.6967 8.41163C48.6857 8.41163 48.6747 8.43363 48.6637 8.44463C48.6527 8.45563 48.6307 8.47763 48.6197 8.48863C48.5977 8.51063 48.5757 8.53264 48.5537 8.56564C48.5537 8.56564 48.5427 8.58764 48.5317 8.58764C48.4987 8.62064 48.4767 8.64264 48.4437 8.67564C48.0146 9.14867 47.6736 9.67669 47.4096 10.2487C47.2446 10.6117 47.1236 10.9858 47.0246 11.3818C47.0246 11.3818 47.0246 11.4038 47.0246 11.4148C47.0246 11.4478 47.0136 11.4918 47.0026 11.5248C47.0026 11.5468 47.0026 11.5798 46.9916 11.6018C46.9916 11.6238 46.9916 11.6458 46.9806 11.6678C46.9806 11.7118 46.9696 11.7558 46.9586 11.7998C46.9586 11.7998 46.9586 11.7998 46.9586 11.8218C46.9146 12.1188 46.8926 12.4268 46.8926 12.7348C46.8926 16.079 49.5987 18.7851 52.9429 18.7851C53.2289 18.7851 53.5149 18.7631 53.8009 18.7191C53.8449 18.7191 53.8889 18.7081 53.9329 18.6971C53.9439 18.6971 53.9549 18.6971 53.9769 18.6971C54.0099 18.6971 54.0429 18.6861 54.0759 18.6861C54.0979 18.6861 54.1199 18.6861 54.1419 18.6751C54.1639 18.6751 54.1859 18.6751 54.2079 18.6641C54.2409 18.6641 54.2739 18.6531 54.3069 18.6421C54.3179 18.6421 54.3289 18.6421 54.3399 18.6421C54.3839 18.6421 54.417 18.6201 54.461 18.6091C54.461 18.6091 54.461 18.6091 54.472 18.6091C54.703 18.5541 54.923 18.4771 55.143 18.3891C54.527 17.9051 53.9989 17.3221 53.5809 16.662L53.5259 16.607Z" fill="white"/>
<path d="M59.2021 7.00354C58.4211 7.00354 57.6841 7.14655 57.002 7.42156C57.7171 7.98259 58.3221 8.68662 58.7621 9.48966C58.9051 9.46766 59.0481 9.46766 59.2021 9.46766C61.2042 9.46766 62.8213 11.0847 62.8213 13.0868C62.8213 15.0889 61.2042 16.706 59.2021 16.706C57.2 16.706 58.6191 16.673 58.3441 16.607C58.1241 16.552 57.9041 16.475 57.6951 16.387C56.936 16.035 56.309 15.43 55.946 14.6709C55.814 14.3959 55.715 14.0989 55.649 13.7909C55.6049 13.5599 55.5829 13.3289 55.5829 13.0978C55.5829 12.7128 55.649 12.3388 55.759 11.9758C55.5279 11.0627 54.8679 10.3257 54.0209 9.97369C53.4818 10.8757 53.1738 11.9318 53.1738 13.0648C53.1738 14.1979 53.3718 14.8029 53.7129 15.562C53.8119 15.771 53.9219 15.98 54.0429 16.178C54.4829 16.915 55.0769 17.5421 55.781 18.0371C55.99 18.1801 56.199 18.3121 56.419 18.4221C57.255 18.8621 58.2121 19.1151 59.2241 19.1151C62.5683 19.1151 65.2744 16.409 65.2744 13.0648C65.2744 9.72068 62.5683 7.01454 59.2241 7.01454L59.2021 7.00354Z" fill="white"/>
<path d="M0 7.2312H2.73392V13.8473H6.67076V16.1164H0V7.2312Z" fill="white"/>
<path d="M12.0285 7.01245C14.7351 7.01245 16.5395 8.95353 16.5395 11.6601C16.5395 14.3667 14.7351 16.3214 12.0285 16.3214C9.32196 16.3214 7.51758 14.3804 7.51758 11.6601C7.51758 8.93986 9.32196 7.01245 12.0285 7.01245ZM12.0285 14.107C12.7257 14.107 13.7919 13.6422 13.7919 11.6738C13.7919 9.70536 12.7257 9.24059 12.0285 9.24059C11.3314 9.24059 10.2652 9.70536 10.2652 11.6738C10.2652 13.6422 11.3314 14.107 12.0285 14.107Z" fill="white"/>
<path d="M38.4387 7.01245C41.1453 7.01245 42.9497 8.95353 42.9497 11.6601C42.9497 14.3667 41.1453 16.3214 38.4387 16.3214C35.7321 16.3214 33.9277 14.3804 33.9277 11.6601C33.9277 8.93986 35.7321 6.99878 38.4387 6.99878V7.01245ZM38.4387 14.107C39.1358 14.107 40.2021 13.6422 40.2021 11.6738C40.2021 9.70536 39.1358 9.24059 38.4387 9.24059C37.7415 9.24059 36.6753 9.70536 36.6753 11.6738C36.6753 13.6422 37.7415 14.107 38.4387 14.107Z" fill="white"/>
<path d="M19.7261 9.51402H17.2383V7.2312H24.9479V9.51402H22.4601V16.1164H19.7261V9.51402Z" fill="white"/>
<path d="M27.9957 9.51402H25.5078V7.2312H33.2311V9.51402H30.7296V16.1164H27.9957V9.51402Z" fill="white"/>
</svg>
