<svg width="107" height="31" viewBox="0 0 107 31" fill="none" xmlns="http://www.w3.org/2000/svg">
<g clip-path="url(#clip0_327_1863)">
<path d="M81.5961 25.1077C81.513 24.958 81.4132 24.825 81.3467 24.6753C81.2801 24.6753 81.2302 24.6753 81.1637 24.6919C80.9808 24.7085 80.7978 24.7252 80.6149 24.7252C80.4319 24.7252 80.1492 24.7252 79.933 24.6753C79.933 24.6753 79.9164 24.6753 79.8997 24.6753C79.8665 24.6753 79.8332 24.6753 79.7999 24.6753C79.7833 24.6753 79.75 24.6753 79.7334 24.6753C79.7168 24.6753 79.7002 24.6753 79.6835 24.6753C79.6503 24.6753 79.6004 24.6753 79.5671 24.6586C77.3219 24.2262 75.509 22.3968 75.193 20.0185C74.7939 17.0248 76.8894 14.264 79.8997 13.8648C80.2324 13.8149 80.565 13.8149 80.881 13.8316H80.8976C80.9309 13.8316 80.9641 13.8316 80.9974 13.8316C80.9974 13.8316 81.014 13.8316 81.0307 13.8316C81.0639 13.8316 81.0972 13.8316 81.1305 13.8316C81.2469 13.8316 81.3799 13.8648 81.4963 13.8815C81.5296 13.8815 81.5795 13.8815 81.6128 13.8981C81.6959 13.8981 81.7791 13.9314 81.8622 13.948C82.1949 14.0312 82.5275 14.1476 82.8435 14.2806C84.0077 14.8128 84.9557 15.7276 85.5045 16.8751C85.5045 16.8751 85.5045 16.9084 85.5212 16.925C85.7207 17.3242 85.8538 17.7566 85.9369 18.2223C86.0035 18.5549 86.0367 18.9208 86.0367 19.2701C86.0367 19.8189 85.9536 20.3511 85.8039 20.8667C86.1532 22.2471 87.151 23.378 88.4483 23.8936C89.2632 22.5298 89.7289 20.9332 89.7289 19.2202C89.7289 17.5071 89.6291 17.6568 89.4295 16.925C89.4295 16.8918 89.4295 16.8751 89.4129 16.8585C89.4129 16.8252 89.4129 16.8086 89.3963 16.792C89.3796 16.7255 89.363 16.6756 89.3464 16.609C89.3464 16.5924 89.3464 16.5591 89.3298 16.5425C89.3131 16.4926 89.2965 16.4427 89.2799 16.3928C89.2799 16.3928 89.2799 16.3596 89.2799 16.3429C89.2632 16.2764 89.23 16.2099 89.2133 16.1433V16.1101C89.1967 16.0436 89.1634 15.977 89.1468 15.9105C89.1135 15.844 89.0803 15.7608 89.0636 15.6943C88.8973 15.3284 88.731 14.9625 88.5148 14.6133C88.1822 14.0478 87.783 13.5156 87.334 13.0333C87.2342 12.9169 87.1178 12.8004 87.0014 12.7006C87.0014 12.7006 87.0014 12.7006 86.9847 12.7006L86.8184 12.5343C86.7685 12.4844 86.7186 12.4345 86.6521 12.3846C86.6521 12.3846 86.6355 12.368 86.6188 12.3514C86.5689 12.3015 86.519 12.2516 86.4525 12.2183C86.4525 12.2183 86.4359 12.2017 86.4193 12.1851C86.3694 12.1518 86.3361 12.1185 86.2862 12.0686C86.2862 12.0686 86.2529 12.052 86.2363 12.0354C86.1864 12.0021 86.1365 11.9522 86.07 11.919C86.0534 11.919 86.0367 11.8857 86.0201 11.8857C85.9702 11.8524 85.9369 11.8192 85.887 11.7859C85.887 11.7859 85.8704 11.7859 85.8538 11.7527C85.7873 11.7028 85.7207 11.6695 85.6708 11.6196C85.6542 11.6196 85.6376 11.5863 85.6043 11.5863C85.5378 11.5531 85.4879 11.5032 85.4214 11.4699C85.4047 11.4699 85.3715 11.4367 85.3382 11.42C85.2717 11.3868 85.2218 11.3535 85.1719 11.3202C85.1386 11.3202 85.122 11.287 85.0887 11.2703C85.0388 11.2371 85.0056 11.2204 84.9557 11.2038C84.9391 11.2038 84.9224 11.1872 84.8892 11.1706C84.7228 11.0874 84.5399 10.9876 84.357 10.9044H84.3403C84.2904 10.8712 84.2239 10.8546 84.174 10.8213C84.1241 10.8047 84.0742 10.788 84.0243 10.7548C84.0077 10.7548 83.9911 10.7548 83.9578 10.7381C83.9245 10.7381 83.8913 10.7049 83.8414 10.7049C83.8081 10.7049 83.7582 10.6716 83.725 10.6716C83.7083 10.6716 83.6751 10.655 83.6418 10.6383C83.6085 10.6383 83.5753 10.6217 83.542 10.6051H83.5087C82.9599 10.4221 82.3944 10.3057 81.829 10.2226L85.0056 6.86301C85.3548 6.49712 85.3382 5.91502 84.9723 5.56576L83.5919 4.25188C83.226 3.90262 82.6439 3.91925 82.2947 4.28514L74.2949 12.7173C74.2783 12.7173 74.2617 12.7505 74.245 12.7672C74.2284 12.7838 74.1951 12.8171 74.1785 12.8337C74.1453 12.867 74.112 12.9002 74.0787 12.9501C74.0787 12.9501 74.0621 12.9834 74.0455 12.9834C73.9956 13.0333 73.9623 13.0665 73.9124 13.1164C73.2638 13.8316 72.7482 14.6299 72.3491 15.4947C72.0996 16.0436 71.9166 16.609 71.767 17.2078C71.767 17.2078 71.767 17.241 71.767 17.2577C71.767 17.3075 71.7503 17.3741 71.7337 17.424C71.7337 17.4572 71.7337 17.5071 71.7171 17.5404C71.7171 17.5737 71.7171 17.6069 71.7004 17.6402C71.7004 17.7067 71.6838 17.7732 71.6672 17.8398C71.6672 17.8398 71.6672 17.8398 71.6672 17.873C71.6006 18.3221 71.5674 18.7877 71.5674 19.2534C71.5674 24.3094 75.6587 28.4007 80.7147 28.4007C81.1471 28.4007 81.5795 28.3675 82.0119 28.3009C82.0784 28.3009 82.145 28.2843 82.2115 28.2677C82.2281 28.2677 82.2448 28.2677 82.278 28.2677C82.3279 28.2677 82.3778 28.251 82.4277 28.251C82.461 28.251 82.4942 28.251 82.5275 28.2344C82.5608 28.2344 82.594 28.2344 82.6273 28.2178C82.6772 28.2178 82.7271 28.2011 82.777 28.1845C82.7936 28.1845 82.8102 28.1845 82.8269 28.1845C82.8934 28.1845 82.9433 28.1512 83.0098 28.1346C83.0098 28.1346 83.0098 28.1346 83.0264 28.1346C83.3757 28.0515 83.7083 27.935 84.041 27.802C83.1096 27.0702 82.3113 26.1887 81.6793 25.1908L81.5961 25.1077Z" fill="#FF0000"/>
<path d="M90.1775 10.5885C88.9967 10.5885 87.8824 10.8047 86.8512 11.2205C87.9323 12.0687 88.847 13.1331 89.5122 14.3472C89.7285 14.3139 89.9447 14.3139 90.1775 14.3139C93.2044 14.3139 95.6492 16.7588 95.6492 19.7857C95.6492 22.8126 93.2044 25.2574 90.1775 25.2574C87.1506 25.2574 89.296 25.2075 88.8802 25.1077C88.5476 25.0246 88.215 24.9082 87.899 24.7751C86.7514 24.2429 85.8034 23.3282 85.2546 22.1806C85.055 21.7648 84.9053 21.3158 84.8055 20.8501C84.739 20.5008 84.7058 20.1516 84.7058 19.8023C84.7058 19.2202 84.8055 18.6547 84.9719 18.1059C84.6226 16.7255 83.6247 15.6112 82.3441 15.079C81.5292 16.4428 81.0635 18.0394 81.0635 19.7524C81.0635 21.4655 81.3628 22.3802 81.8784 23.5278C82.0281 23.8438 82.1944 24.1597 82.3774 24.4591C83.0426 25.5734 83.9407 26.5214 85.0051 27.2698C85.3211 27.486 85.6371 27.6856 85.9697 27.8519C87.2337 28.5172 88.6807 28.8997 90.2108 28.8997C95.2667 28.8997 99.3581 24.8084 99.3581 19.7524C99.3581 14.6965 95.2667 10.6051 90.2108 10.6051L90.1775 10.5885Z" fill="#FF0000"/>
<path d="M0.669922 10.9326H4.80326V20.9353H10.7553V24.3659H0.669922V10.9326Z" fill="white"/>
<path d="M18.8561 10.6019C22.9481 10.6019 25.6761 13.5366 25.6761 17.6286C25.6761 21.7206 22.9481 24.6759 18.8561 24.6759C14.7641 24.6759 12.0361 21.7413 12.0361 17.6286C12.0361 13.5159 14.7641 10.6019 18.8561 10.6019ZM18.8561 21.3279C19.9101 21.3279 21.5221 20.6253 21.5221 17.6493C21.5221 14.6733 19.9101 13.9706 18.8561 13.9706C17.8021 13.9706 16.1901 14.6733 16.1901 17.6493C16.1901 20.6253 17.8021 21.3279 18.8561 21.3279Z" fill="white"/>
<path d="M58.7848 10.602C62.8768 10.602 65.6048 13.5366 65.6048 17.6286C65.6048 21.7206 62.8768 24.676 58.7848 24.676C54.6928 24.676 51.9648 21.7413 51.9648 17.6286C51.9648 13.516 54.6928 10.5813 58.7848 10.5813V10.602ZM58.7848 21.328C59.8388 21.328 61.4508 20.6253 61.4508 17.6493C61.4508 14.6733 59.8388 13.9706 58.7848 13.9706C57.7308 13.9706 56.1188 14.6733 56.1188 17.6493C56.1188 20.6253 57.7308 21.328 58.7848 21.328Z" fill="white"/>
<path d="M30.4918 14.3839H26.7305V10.9326H38.3865V14.3839H34.6251V24.3659H30.4918V14.3839Z" fill="white"/>
<path d="M42.9957 14.3839H39.2344V10.9326H50.911V14.3839H47.129V24.3659H42.9957V14.3839Z" fill="white"/>
</g>
<defs>
<clipPath id="clip0_327_1863">
<rect width="106.33" height="31" fill="white" transform="translate(0.669922)"/>
</clipPath>
</defs>
</svg>
