<svg width="102" height="25" viewBox="0 0 102 25" fill="none" xmlns="http://www.w3.org/2000/svg">
<g clip-path="url(#clip0_2397_24216)">
<path d="M8.5375 1.24881C9.95218 0.786799 11.457 0.595235 12.945 0.691017C15.1262 0.809335 17.2566 1.58123 19.032 2.84893C19.2237 2.98978 19.4322 3.11937 19.5956 3.29967C19.8775 3.62082 19.9902 4.07719 19.8887 4.49413C19.7873 4.94486 19.4322 5.32799 18.9926 5.46321C18.5642 5.59844 18.0739 5.50829 17.7301 5.22094C16.4056 4.20115 14.7936 3.55884 13.131 3.40108C12.5223 3.33347 11.9023 3.33347 11.2936 3.40108C9.54074 3.57575 7.84425 4.28003 6.4803 5.40124C4.94163 6.65767 3.82003 8.42682 3.38041 10.365C2.97461 12.1229 3.0986 14.0047 3.7524 15.6894C4.44001 17.481 5.71942 19.0305 7.33136 20.0672C8.5375 20.839 9.92963 21.318 11.3499 21.4532C11.9023 21.5208 12.4659 21.5208 13.0126 21.4588C14.7316 21.3123 16.3943 20.6531 17.7583 19.5995C18.1021 19.3291 18.5924 19.2502 19.0095 19.391C19.5844 19.5882 19.9958 20.2024 19.9225 20.8109C19.8887 21.1658 19.7027 21.5039 19.4209 21.718C18.3388 22.5631 17.1101 23.2111 15.8025 23.628C14.1173 24.1689 12.3025 24.3097 10.5496 24.0675C8.60513 23.797 6.73393 23.0195 5.16708 21.8363C3.64531 20.6982 2.40536 19.1826 1.58811 17.4641C0.787779 15.7795 0.398884 13.8977 0.466518 12.0327C0.528515 9.7396 1.2894 7.47464 2.6308 5.6097C4.07366 3.58138 6.16468 2.0207 8.5375 1.24881Z" fill="#007CFF" stroke="#007CFF" stroke-width="0.0340402"/>
<path opacity="0.4" d="M11.293 3.40129C11.9017 3.33368 12.5217 3.33368 13.1304 3.40129C12.516 3.38439 11.9073 3.38439 11.293 3.40129Z" fill="#001934" stroke="#001934" stroke-width="0.0340402"/>
<path d="M25.0294 4.44908C25.6155 4.27442 26.3031 4.5505 26.5849 5.10265C27.9376 7.74511 28.5294 10.7651 28.2871 13.723C28.118 15.8302 27.5374 17.9093 26.5624 19.7855C26.2073 20.4559 25.2548 20.67 24.6405 20.2306C24.0712 19.8644 23.8852 19.0474 24.2234 18.4558C26.1059 14.7597 26.1228 10.1791 24.2628 6.47177C24.0938 6.16752 24.0036 5.80693 24.0881 5.46324C24.1839 4.98433 24.5616 4.57867 25.0294 4.44908Z" fill="#6FBAF7" stroke="#6FBAF7" stroke-width="0.0340402"/>
<path d="M90.4297 4.80984C90.4917 4.56193 90.7397 4.376 91.0046 4.38727C91.5118 4.38727 92.0191 4.38164 92.5263 4.38727C92.8194 4.376 93.09 4.63518 93.09 4.92816C93.1012 6.41559 93.0843 7.90303 93.0956 9.38484C93.8339 8.72 94.7921 8.33687 95.7728 8.24109C96.8831 8.1284 98.0554 8.31997 98.9967 8.94537C100.175 9.71162 100.823 11.1033 100.93 12.4724C100.964 13.7908 100.941 15.1092 100.947 16.4276C100.941 17.3855 100.958 18.3489 100.935 19.3067C100.862 19.549 100.614 19.7068 100.366 19.6955C99.8759 19.6955 99.3799 19.7011 98.8896 19.6955C98.6247 19.7068 98.3767 19.5096 98.3203 19.256C98.3259 17.5432 98.3203 15.8304 98.3203 14.1176C98.3203 13.7739 98.3316 13.4302 98.2978 13.0865C98.2301 12.247 97.9145 11.3568 97.2043 10.8441C96.6295 10.4159 95.8629 10.3201 95.1697 10.4384C94.6286 10.5342 94.1214 10.8216 93.7719 11.2498C93.2872 11.847 93.1012 12.6302 93.0956 13.3851C93.09 15.3008 93.0956 17.2221 93.09 19.1377C93.0956 19.4194 92.8589 19.6729 92.5771 19.6899C92.1825 19.7068 91.7936 19.6899 91.3991 19.6955C91.2131 19.6955 91.0328 19.7068 90.8524 19.6786C90.6439 19.6335 90.4748 19.4588 90.4297 19.256C90.4297 14.4387 90.4297 9.62711 90.4297 4.80984Z" fill="white" stroke="white" stroke-width="0.0340402"/>
<path opacity="0.52" d="M90.3965 5.04082C90.4021 4.96757 90.4134 4.88869 90.4303 4.80981C90.4303 9.62709 90.4303 14.4387 90.4303 19.256C90.3796 19.0081 90.4021 18.7602 90.4021 18.5123C90.3965 14.0218 90.4078 9.5313 90.3965 5.04082Z" fill="#000B31" stroke="#000B31" stroke-width="0.0340402"/>
<path d="M8.35596 6.03231C10.7457 4.58995 13.9752 4.62939 16.2973 6.20134C16.8722 6.62391 16.9906 7.52539 16.5453 8.08318C16.1451 8.6297 15.3166 8.79309 14.7474 8.42686C13.8456 7.85217 12.7522 7.60427 11.6926 7.72822C10.633 7.8409 9.61846 8.33108 8.87449 9.0917C8.13051 9.82979 7.6458 10.8214 7.52744 11.8637C7.42036 12.7089 7.56126 13.5822 7.9107 14.3597C8.37287 15.3851 9.21265 16.2359 10.2384 16.7092C11.2868 17.205 12.5154 17.2839 13.6201 16.9402C15.0968 16.4895 16.3199 15.2668 16.7426 13.785C15.683 13.7907 14.6234 13.785 13.5638 13.785C13.0565 13.785 12.5662 13.4695 12.3576 13.0131C12.0984 12.4891 12.2336 11.8074 12.6733 11.4243C12.8987 11.2214 13.1974 11.0862 13.5018 11.075C15.1024 11.0637 16.6975 11.0693 18.2981 11.0693C18.8223 11.0524 19.3296 11.3792 19.5381 11.8581C19.7185 12.23 19.6621 12.6525 19.6396 13.0526C19.4986 14.7879 18.7152 16.4613 17.4753 17.6895C16.286 18.884 14.6797 19.6559 13.0002 19.8249C11.3488 20.0052 9.641 19.6052 8.2376 18.7093C6.82292 17.8135 5.71824 16.4218 5.17716 14.833C4.62482 13.2272 4.653 11.4299 5.22789 9.83542C5.79151 8.25784 6.91874 6.89435 8.35596 6.03231Z" fill="white" stroke="white" stroke-width="0.0340402"/>
<path d="M40.8883 5.07451C42.0494 4.94492 43.2442 5.04071 44.3489 5.42383C45.6678 5.88021 46.8626 6.70844 47.6968 7.82965C47.8771 8.03812 47.9617 8.348 47.8377 8.60718C47.6912 8.94523 47.3023 9.05228 47.0148 9.24385C46.6879 9.40724 46.3723 9.72276 45.9721 9.62698C45.6621 9.58754 45.51 9.28892 45.3183 9.07482C44.58 8.25786 43.5204 7.76204 42.427 7.64936C41.559 7.56484 40.6629 7.66063 39.8513 7.99868C38.8987 8.39871 38.104 9.1368 37.6081 10.0383C37.1177 10.9341 36.9599 11.9821 37.0557 12.9906C37.1234 13.7907 37.3939 14.5795 37.8617 15.2387C38.5042 16.1458 39.4624 16.8275 40.5445 17.1149C41.311 17.3064 42.1283 17.374 42.9061 17.1769C43.8924 16.9402 44.8336 16.45 45.5325 15.7007C46.0285 15.1711 46.3667 14.495 46.5076 13.785C46.5132 13.7569 46.5245 13.6949 46.5301 13.6667C45.1549 13.6724 43.7797 13.6667 42.4101 13.6724C42.1114 13.616 41.8521 13.3568 41.8352 13.047C41.8183 12.7652 41.8352 12.4835 41.8295 12.2018C41.8295 11.999 41.807 11.7736 41.9254 11.5933C42.0606 11.3623 42.3255 11.2384 42.5848 11.2553C44.4673 11.2553 46.3497 11.2553 48.2322 11.2553C48.7338 11.2384 49.1791 11.7004 49.1397 12.2018C49.1171 12.9117 49.134 13.6386 48.9593 14.3316C48.7508 15.2161 48.3957 16.0669 47.8884 16.8219C47.4657 17.4586 46.8965 17.9825 46.2708 18.4164C45.4536 18.9742 44.5405 19.3855 43.5824 19.6221C42.2973 19.9489 40.9334 19.87 39.6596 19.5263C37.9068 19.0474 36.3794 17.8586 35.4269 16.3204C34.4011 14.6753 34.1475 12.6244 34.542 10.7482C34.9253 8.90016 36.1145 7.26623 37.6757 6.21826C38.6282 5.58159 39.7442 5.19847 40.8883 5.07451Z" fill="white" stroke="white" stroke-width="0.0340402"/>
<path d="M57.3171 5.0576C58.3429 4.96182 59.3969 5.03506 60.3832 5.34494C61.8824 5.80695 63.252 6.77041 64.12 8.08882C64.289 8.33672 64.2101 8.71985 63.9452 8.87198C63.5733 9.09735 63.1844 9.31145 62.8067 9.53682C62.6376 9.6326 62.4629 9.75655 62.26 9.72838C62.0684 9.72275 61.9162 9.58752 61.8148 9.4354C61.2173 8.54519 60.2423 7.94233 59.2052 7.72259C58.3598 7.55356 57.4693 7.593 56.6408 7.82401C55.7221 8.08318 54.9048 8.65224 54.3356 9.40723C53.7889 10.1115 53.4789 10.9792 53.4056 11.8638C53.3098 12.8723 53.4563 13.9259 53.9411 14.8274C54.4089 15.7007 55.1585 16.4219 56.0659 16.8163C56.9113 17.1881 57.8582 17.2839 58.7656 17.1937C59.8647 17.0754 60.9299 16.5458 61.6288 15.6838C61.7641 15.5204 61.8542 15.3119 62.0346 15.1936C62.2149 15.0809 62.4573 15.0978 62.6376 15.2105C63.066 15.4584 63.5 15.7007 63.9283 15.9486C64.1481 16.0669 64.2609 16.3486 64.1932 16.5909C64.1256 16.7768 63.9903 16.9289 63.8776 17.0867C62.5644 18.8333 60.3776 19.8531 58.202 19.8249C56.5055 19.8531 54.7752 19.3291 53.4507 18.2473C52.6786 17.6219 52.0248 16.8501 51.557 15.9711C51.0666 15.0527 50.8017 14.0273 50.7397 12.985C50.6664 11.8638 50.8017 10.7144 51.2019 9.65514C51.788 8.12262 52.9322 6.80985 54.3525 5.98725C55.2543 5.46326 56.2801 5.15901 57.3171 5.0576Z" fill="white" stroke="white" stroke-width="0.0340402"/>
<path d="M21.3655 6.77056C21.9461 6.61844 22.6055 6.91705 22.876 7.4523C24.3414 10.5511 24.3414 14.3035 22.876 17.4024C22.69 17.7686 22.318 18.039 21.9066 18.1066C21.4275 18.1912 20.9146 17.9883 20.6159 17.6052C20.3059 17.2052 20.2496 16.6305 20.475 16.1797C21.5684 13.8077 21.5515 10.9624 20.4468 8.59605C20.1143 7.86924 20.5877 6.93959 21.3655 6.77056Z" fill="#6FBAF7" stroke="#6FBAF7" stroke-width="0.0340402"/>
<path d="M69.791 8.13393C70.8562 7.91983 72.006 7.9818 72.9867 8.47198C73.7194 8.83257 74.3393 9.45797 74.6042 10.2411C74.6381 9.73405 74.5986 9.22133 74.6211 8.70862C74.6268 8.43254 74.8917 8.20154 75.1679 8.20154C75.6977 8.1959 76.2218 8.1959 76.7516 8.20154C77.0503 8.1959 77.3152 8.46071 77.304 8.76496C77.304 12.1061 77.304 15.4472 77.304 18.7939C77.304 18.9404 77.3096 19.0925 77.2927 19.2446C77.2532 19.5038 77.0052 19.6954 76.746 19.6954C76.312 19.701 75.8836 19.6897 75.4497 19.6954C75.3031 19.6954 75.1566 19.7066 75.0213 19.6728C74.8015 19.6109 74.6324 19.4137 74.6211 19.1883C74.6042 18.8446 74.6268 18.5009 74.6099 18.1629C74.3168 18.422 74.0463 18.7038 73.725 18.9291C72.9247 19.5264 71.9383 19.8757 70.9407 19.8757C69.8417 19.8869 68.7426 19.5433 67.8578 18.8897C66.9954 18.2643 66.3473 17.3684 65.964 16.3824C65.5018 15.2049 65.406 13.9034 65.6146 12.6639C65.8118 11.5088 66.336 10.3933 67.1645 9.55375C67.8747 8.83257 68.8046 8.33676 69.791 8.13393ZM70.9069 10.4271C70.1009 10.5454 69.3626 11.013 68.9061 11.6891C68.0719 12.9005 68.0381 14.5851 68.7426 15.8641C69.1259 16.5853 69.791 17.1769 70.5913 17.391C71.6114 17.684 72.7781 17.4022 73.5446 16.6642C74.2153 16.0444 74.5591 15.1316 74.6042 14.2302C74.6719 13.1878 74.3901 12.0666 73.6348 11.3116C72.9416 10.5905 71.8876 10.2693 70.9069 10.4271Z" fill="white" stroke="white" stroke-width="0.0340402"/>
<path d="M83.1306 8.04943C84.3142 7.94238 85.5654 8.09451 86.5856 8.73681C87.4986 9.30023 88.1017 10.2975 88.2313 11.3567C88.2652 11.6666 87.9946 11.9709 87.6846 11.9596C87.1943 11.9652 86.6983 11.9596 86.2136 11.9652C86.0445 11.9709 85.8642 11.9483 85.7402 11.83C85.5654 11.6891 85.5542 11.4525 85.464 11.2609C85.2949 10.8666 84.9342 10.5792 84.5284 10.4496C84.1 10.3144 83.6435 10.3088 83.2039 10.3651C82.8432 10.4158 82.4712 10.5285 82.2232 10.8102C81.9527 11.1088 81.9414 11.6159 82.2063 11.9202C82.4825 12.2413 82.8939 12.3991 83.2828 12.5399C84.3931 12.9118 85.5654 13.109 86.6138 13.6555C87.2225 13.971 87.7861 14.433 88.0961 15.0528C88.5864 16.0275 88.5019 17.2558 87.8819 18.1516C87.3577 18.9291 86.5067 19.4193 85.6162 19.6616C84.5284 19.9546 83.3561 19.9489 82.2739 19.6447C81.4454 19.4081 80.662 18.9686 80.0815 18.3319C79.6249 17.8361 79.298 17.2107 79.1909 16.5402C79.1346 16.2247 79.4108 15.9092 79.732 15.9092C80.2787 15.9036 80.8254 15.9092 81.3665 15.9092C81.6258 15.8979 81.8681 16.0726 81.9358 16.3205C82.0203 16.6078 82.1894 16.8726 82.4205 17.0642C82.8883 17.4586 83.5252 17.5995 84.1282 17.56C84.596 17.5375 85.0864 17.4417 85.4527 17.1318C85.7683 16.867 85.8867 16.3712 85.6613 16.0162C85.464 15.7176 85.1145 15.5599 84.7876 15.4246C83.8408 15.0697 82.8375 14.9063 81.8907 14.5513C81.1974 14.2978 80.5098 13.9485 80.0138 13.3851C79.2924 12.5737 79.1402 11.3511 79.5178 10.3538C79.8335 9.53124 80.5267 8.90584 81.3101 8.53961C81.8794 8.26353 82.505 8.11141 83.1306 8.04943Z" fill="white" stroke="white" stroke-width="0.0340402"/>
<path opacity="0.75" d="M100.93 12.4724C101.009 12.9795 100.952 13.4922 100.969 14.0049C100.969 15.5656 100.969 17.1207 100.969 18.6813C100.969 18.8898 100.992 19.1039 100.935 19.3067C100.958 18.3489 100.941 17.3855 100.947 16.4276C100.941 15.1092 100.964 13.7908 100.93 12.4724Z" fill="#001966" stroke="#001966" stroke-width="0.0340402"/>
<path opacity="0.48" d="M98.2977 13.0864C98.3315 13.4301 98.3203 13.7738 98.3203 14.1175C98.3203 15.8303 98.3259 17.5431 98.3203 19.2559C98.2639 18.9742 98.2977 18.6869 98.2921 18.3995C98.2921 16.6304 98.2865 14.8612 98.2977 13.0864Z" fill="#000A2B" stroke="#000A2B" stroke-width="0.0340402"/>
<path opacity="0.27" d="M42.4102 13.6724C43.7797 13.6667 45.155 13.6724 46.5302 13.6667C46.5246 13.6949 46.5133 13.7569 46.5076 13.7851C46.3949 13.7231 46.2653 13.7006 46.1413 13.7006C44.9972 13.7118 43.8474 13.6949 42.7032 13.7118C42.6018 13.7118 42.506 13.6893 42.4102 13.6724Z" fill="#00030E" stroke="#00030E" stroke-width="0.0340402"/>
<path opacity="0.46" d="M11.3496 21.4534C11.9076 21.4646 12.4599 21.4646 13.0123 21.459C12.4656 21.521 11.902 21.521 11.3496 21.4534Z" fill="#001E3E" stroke="#001E3E" stroke-width="0.0340402"/>
</g>
<defs>
<clipPath id="clip0_2397_24216">
<rect width="101" height="24" fill="white" transform="translate(0.150391 0.427246)"/>
</clipPath>
</defs>
</svg>
