<svg width="89" height="23" viewBox="0 0 89 23" fill="none" xmlns="http://www.w3.org/2000/svg">
<path fill-rule="evenodd" clip-rule="evenodd" d="M8.60389 15.7859C5.1678 15.7859 2.50966 13.1091 2.50966 9.6187L2.51062 9.61823C2.51062 6.21337 5.27666 3.51527 8.79909 3.51527C10.8735 3.51527 12.6021 4.20061 13.618 4.90734V6.10646L13.5316 6.17059C12.1704 5.22815 10.7008 4.77852 8.84226 4.77852C5.98941 4.77852 3.91498 6.74852 3.91498 9.61823C3.91498 12.4879 5.8383 14.5221 8.60437 14.5221C11.1109 14.5221 12.2779 13.0445 12.2563 11.7812H8.75543V10.4965H13.5743V11.3316C13.5743 13.6657 12.04 15.7859 8.60389 15.7859ZM8.60389 17.6917C3.95767 17.6917 0.5 14.2441 0.5 9.6187C0.5 5.14307 4.10876 1.6099 8.79812 1.6099C10.7646 1.6099 12.3853 2.05951 13.617 2.93734V4.20061C12.3421 3.32278 10.6567 2.87317 8.79812 2.87317C4.88673 2.87317 1.8612 5.74239 1.8612 9.61823C1.8612 13.4941 4.73514 16.4279 8.6034 16.4279C12.1263 16.4279 14.2223 14.351 14.2223 11.0103V9.85396H8.75495V8.61209H15.4329V10.7964C15.4329 15.0577 12.8395 17.6917 8.60389 17.6917ZM18.1773 17.3276V10.7109H18.1764C18.1764 8.48375 19.7107 6.9206 21.8936 6.9206C22.542 6.9206 23.2121 7.11307 23.6658 7.41297C23.45 7.73426 23.2768 8.07694 23.1041 8.48376C22.6936 8.3122 22.3046 8.20525 21.8724 8.20525C20.4249 8.20525 19.4522 9.25467 19.4522 10.7323V17.3276H18.1773ZM17.572 17.3276H16.2972V10.7327C16.2972 7.37067 18.4579 5.10077 21.8508 5.10077C23.0178 5.10077 24.0984 5.42206 24.898 5.9786C24.5521 6.25663 24.2931 6.55653 24.0553 6.83504C23.6663 6.59979 22.7799 6.32128 21.9156 6.32128C19.3443 6.32128 17.572 8.09833 17.572 10.7109V17.3276ZM36.2868 11.7817V9.9186L36.2873 9.91813C36.3516 9.82945 36.4163 9.73993 36.4814 9.64977C38.0352 7.49809 39.8443 4.9929 43.2456 4.9929C46.7898 4.9929 49.3834 7.75518 49.3834 11.3316C49.3834 14.908 46.8116 17.6917 43.3106 17.6917C40.5877 17.6917 38.4917 16.0853 37.7785 14.0511L38.686 12.8306C39.1397 14.9076 41.0846 16.4279 43.332 16.4279C46.0983 16.4279 48.108 14.2868 48.108 11.3316C48.108 8.37637 46.0547 6.27802 43.2452 6.27802C41.1705 6.27802 39.8309 7.30602 38.2965 9.16912C37.7775 9.79394 37.2263 10.529 36.6024 11.3611C36.4993 11.4987 36.3941 11.6389 36.2868 11.7817ZM40.1982 10.8606H40.2414L40.2419 10.8596V11.0526C40.2419 12.8943 41.5167 14.543 43.332 14.543C45.0609 14.543 46.206 13.1082 46.206 11.3097C46.206 9.51132 45.0391 8.16199 43.2239 8.16199C41.5906 8.16199 40.727 9.20234 39.5313 10.6429C39.398 10.8035 39.2607 10.969 39.1176 11.1386C38.2749 12.1452 37.1296 13.6015 36.2868 14.8434V12.7878C36.9449 11.8719 37.5574 11.0912 38.0256 10.4944C38.2034 10.2678 38.3604 10.0677 38.4912 9.89674C39.4634 8.61209 40.7819 6.87734 43.2452 6.87734C45.7089 6.87734 47.5024 8.76178 47.5024 11.3102C47.5024 13.8586 45.7089 15.8072 43.3316 15.8072C40.9547 15.8072 39.3766 13.7517 39.204 12.2099L40.1982 10.8606ZM38.9666 5.82843V0.496338H40.2414V4.99338C39.8452 5.14279 39.4654 5.43934 39.1165 5.71181C39.0659 5.75135 39.0159 5.79041 38.9666 5.82843ZM38.3397 6.29941C37.8859 6.749 37.4538 7.28463 37.0648 7.77704V0.496338H38.3397V6.29941ZM31.857 13.8586L31.8785 13.88V13.8805V15.1438C31.4464 15.4437 30.4953 15.7863 29.5662 15.8077C27.1028 15.8719 25.2443 14.0088 25.2443 11.3535C25.2443 8.69809 27.1028 6.87782 29.5662 6.87782C32.0296 6.87782 33.7803 8.69809 33.7803 11.1819V17.3281H32.5054V11.2465C32.5054 9.46902 31.3816 8.14155 29.5447 8.14155C27.8372 8.14155 26.5623 9.44763 26.5623 11.3535C26.5623 13.2593 27.8592 14.544 29.5878 14.544C30.4305 14.544 31.3169 14.2868 31.857 13.8586ZM29.5662 17.6917C25.9791 17.6917 23.3209 15.0577 23.3209 11.3316L23.3204 11.3321C23.3204 7.73426 25.9786 4.97199 29.5658 4.97199C33.1529 4.97199 35.6815 7.58453 35.6815 11.1391V17.3281H34.3851V11.161C34.3851 8.31267 32.3759 6.2785 29.5662 6.2785C26.7565 6.2785 24.639 8.29128 24.639 11.3321C24.639 14.3728 26.627 16.4284 29.5662 16.4284C30.5389 16.4284 31.4896 16.0644 31.8785 15.7431V17.0063C31.2948 17.456 30.3658 17.6917 29.5662 17.6917ZM56.6428 12.4557C60.1903 12.4557 62.4828 10.3341 62.4828 7.07609C62.4828 3.79717 60.3629 1.88943 56.6428 1.88943H51.4948V17.321H54.0255V12.4557H56.6428ZM56.7728 4.204C58.6982 4.204 59.9308 5.3399 59.9308 7.07609C59.9308 8.94106 58.6982 10.1411 56.7728 10.1411H54.0259V4.204H56.7728ZM75.5488 11.2551C75.5488 7.24765 72.9964 5.10417 69.4276 5.10417V5.10369C65.8588 5.10369 63.3927 7.63263 63.3927 11.4049C63.3927 15.1771 65.8156 17.6846 69.3844 17.6418C71.0064 17.6204 72.4561 16.6775 73.0182 15.3059H73.1259V17.3205H75.5488V11.2551ZM73.0613 11.2984C73.0827 13.7846 71.5906 15.2636 69.4276 15.285C67.4158 15.3064 65.9019 13.7632 65.9019 11.277C65.9019 9.00519 67.4376 7.4406 69.4489 7.4406C71.4607 7.4406 73.0395 8.72668 73.0613 11.2984ZM85.8029 16.6566C85.846 18.7355 84.7865 20.0215 82.4068 20.0215V20.0225C80.7848 20.0225 79.4868 19.4436 78.4054 18.7578L78.3405 18.8006V21.1365C79.3786 21.8223 80.7412 22.358 82.4499 22.358C85.932 22.358 88.16 20.5576 88.16 16.8282V5.49007H85.6725V12.0702C85.6725 14.2346 84.548 15.285 82.7094 15.285C81.066 15.285 79.9193 14.4922 79.9193 12.306V5.49007H77.4322V12.5203C77.4322 15.8425 79.2923 17.6428 82.3636 17.6428C83.8565 17.6428 85.1109 16.9137 85.6733 15.7137H85.7811L85.8029 16.6566Z" fill="#00B14F"/>
</svg>
