<svg width="70" height="21" viewBox="0 0 70 21" fill="none" xmlns="http://www.w3.org/2000/svg">
<g clip-path="url(#clip0_2397_26401)">
<mask id="mask0_2397_26401" style="mask-type:luminance" maskUnits="userSpaceOnUse" x="0" y="0" width="70" height="21">
<path d="M69.3426 0.541748H0.865234V20.1843H69.3426V0.541748Z" fill="white"/>
</mask>
<g mask="url(#mask0_2397_26401)">
<path d="M15.9799 0.541748C14.4031 0.541325 12.8887 1.15658 11.7608 2.2559L12.3722 3.41492L12.1216 3.61623C11.5917 2.70045 10.8324 1.93782 9.91799 1.4031C9.0036 0.868391 7.96562 0.57997 6.90581 0.566145C3.57948 0.566145 0.88906 3.46983 0.88906 6.8737V14.1939C0.886469 14.2563 0.896881 14.3185 0.919625 14.3767C0.94237 14.4348 0.976965 14.4877 1.02121 14.5318C1.06546 14.5759 1.11839 14.6104 1.17669 14.6331C1.23498 14.6558 1.29737 14.6662 1.3599 14.6636H3.76904C3.82789 14.6644 3.8863 14.6535 3.94083 14.6314C3.99536 14.6093 4.04488 14.5765 4.0865 14.535C4.12811 14.4935 4.16096 14.4441 4.1831 14.3897C4.20524 14.3353 4.21622 14.277 4.2154 14.2183V6.7944C4.2154 5.10468 5.24263 3.74434 6.99141 3.74434C8.62401 3.74434 9.79192 4.96437 9.79192 6.76394V12.8641C9.78773 12.9245 9.79603 12.9852 9.81617 13.0424C9.83635 13.0996 9.86801 13.1521 9.90922 13.1967C9.95044 13.2412 10.0004 13.2769 10.0559 13.3015C10.1114 13.3261 10.1714 13.3392 10.2322 13.3399H12.5129C12.5737 13.3392 12.6337 13.3261 12.6892 13.3015C12.7447 13.2769 12.7946 13.2412 12.8358 13.1967C12.8771 13.1521 12.9087 13.0996 12.9289 13.0424C12.9491 12.9852 12.9573 12.9245 12.9531 12.8641V6.76394C12.9261 6.37436 12.9802 5.98338 13.1123 5.6158C13.2443 5.24817 13.4513 4.91184 13.7203 4.62809C13.9892 4.34432 14.3141 4.11929 14.6747 3.96717C15.0352 3.81506 15.4234 3.73918 15.8148 3.74434C17.5575 3.74434 18.5297 5.12905 18.5297 6.7944V14.2061C18.5344 14.3269 18.5863 14.4411 18.6743 14.5243C18.7622 14.6075 18.8793 14.6531 19.0005 14.6514H21.3852C21.4479 14.655 21.5107 14.6452 21.5695 14.6229C21.6282 14.6005 21.6815 14.566 21.726 14.5217C21.7704 14.4774 21.805 14.4242 21.8274 14.3656C21.8498 14.307 21.8596 14.2443 21.856 14.1817V6.86152C21.856 3.44543 19.2818 0.541748 15.9799 0.541748Z" fill="#75EEA5"/>
<path d="M37.5822 0.816016H35.3932C35.3323 0.811782 35.2713 0.820211 35.2139 0.840766C35.1564 0.861322 35.1039 0.89356 35.0596 0.93543C35.0154 0.9773 34.9803 1.02789 34.9567 1.08399C34.9331 1.14009 34.9214 1.20048 34.9223 1.26133V1.56023L35.6989 2.78027L35.4849 2.98767C34.8439 2.23379 34.0482 1.62586 33.1516 1.20493C32.255 0.783992 31.2784 0.559839 30.2875 0.547607C28.4404 0.634997 26.6976 1.42713 25.4195 2.76024C24.1413 4.09335 23.4255 5.86546 23.42 7.71025C23.4145 9.55504 24.1197 11.3314 25.3899 12.672C26.6602 14.0127 28.3982 14.8151 30.2447 14.9135C31.2402 14.9029 32.2219 14.6796 33.1237 14.2587C34.0255 13.8377 34.8264 13.229 35.4727 12.4734L35.6561 12.6198L34.8795 13.8887V14.1693C34.8787 14.2312 34.8904 14.2926 34.9137 14.35C34.9371 14.4074 34.9717 14.4595 35.0156 14.5032C35.0595 14.547 35.1117 14.5816 35.1693 14.6049C35.2267 14.6282 35.2883 14.6398 35.3504 14.639H37.5822C37.645 14.6425 37.7078 14.6328 37.7665 14.6104C37.8252 14.5881 37.8786 14.5536 37.923 14.5093C37.9674 14.465 38.002 14.4117 38.0244 14.3531C38.0468 14.2945 38.0566 14.2319 38.053 14.1693V1.26133C38.056 1.19995 38.0456 1.13867 38.0227 1.08165C37.9997 1.02463 37.9647 0.97323 37.92 0.930951C37.8753 0.888677 37.822 0.856526 37.7637 0.83669C37.7054 0.816853 37.6435 0.809801 37.5822 0.816016ZM30.2447 11.8268C29.1566 11.8268 28.113 11.3956 27.3435 10.6279C26.5741 9.8603 26.1418 8.81918 26.1418 7.7336C26.1418 6.64802 26.5741 5.6069 27.3435 4.83927C28.113 4.07164 29.1566 3.6404 30.2447 3.6404C31.3329 3.6404 32.3764 4.07164 33.1459 4.83927C33.9153 5.6069 34.3476 6.64802 34.3476 7.7336C34.3476 8.81918 33.9153 9.8603 33.1459 10.6279C32.3764 11.3956 31.3329 11.8268 30.2447 11.8268Z" fill="#75EEA5"/>
<path d="M68.8649 0.816016H66.676C66.6154 0.811782 66.5543 0.820211 66.4965 0.840766C66.4391 0.861322 66.3869 0.89356 66.3426 0.93543C66.2983 0.9773 66.2634 1.02789 66.2396 1.08399C66.2158 1.14009 66.2042 1.20048 66.2051 1.26133V1.56023L66.9818 2.78027L66.7678 2.98767C66.1268 2.23379 65.3309 1.62586 64.4344 1.20493C63.5379 0.783992 62.5611 0.559839 61.5704 0.547607C59.6585 0.547607 57.8248 1.30535 56.4728 2.65413C55.1208 4.0029 54.3613 5.83225 54.3613 7.7397C54.3613 9.64718 55.1208 11.4765 56.4728 12.8253C57.8248 14.1741 59.6585 14.9318 61.5704 14.9318C62.5658 14.9211 63.5477 14.6978 64.4493 14.277C65.351 13.8561 66.1519 13.2473 66.7981 12.4917L66.9818 12.6382L66.2051 13.907V14.1876C66.2042 14.2495 66.2158 14.311 66.2391 14.3683C66.2629 14.4256 66.2974 14.4777 66.3412 14.5216C66.385 14.5653 66.4373 14.5999 66.4951 14.6232C66.5524 14.6465 66.614 14.6581 66.676 14.6573H68.8649C68.9278 14.6608 68.9907 14.6511 69.0495 14.6288C69.1082 14.6064 69.1614 14.5719 69.2057 14.5276C69.2504 14.4832 69.2849 14.43 69.3073 14.3714C69.3297 14.3129 69.3395 14.2502 69.3357 14.1876V1.26133C69.339 1.19995 69.3283 1.13867 69.3054 1.08165C69.2826 1.02463 69.2476 0.97323 69.2029 0.930951C69.1581 0.888677 69.105 0.856526 69.0467 0.83669C68.9884 0.816853 68.9264 0.809801 68.8649 0.816016ZM61.5704 11.8268C60.4823 11.8268 59.4384 11.3956 58.6692 10.6279C57.8999 9.8603 57.4673 8.81918 57.4673 7.7336C57.4673 6.64802 57.8999 5.6069 58.6692 4.83927C59.4384 4.07164 60.4823 3.6404 61.5704 3.6404C62.6586 3.6404 63.702 4.07164 64.4717 4.83927C65.2409 5.6069 65.6731 6.64802 65.6731 7.7336C65.6731 8.81918 65.2409 9.8603 64.4717 10.6279C63.702 11.3956 62.6586 11.8268 61.5704 11.8268Z" fill="#75EEA5"/>
<path d="M52.5619 0.816516H50.318C49.9572 0.816516 49.7618 1.01172 49.7618 1.20083V7.95372C49.7935 8.42581 49.7245 8.8993 49.5595 9.34293C49.3945 9.78656 49.1371 10.1902 48.8042 10.5274C48.4713 10.8646 48.0709 11.1276 47.6289 11.2991C47.1869 11.4706 46.7133 11.5466 46.2396 11.5223C44.2707 11.5223 42.9989 10.0583 42.9989 7.95372V1.20083C42.9989 1.01172 42.6932 0.816516 42.4975 0.816516H40.0517C39.9523 0.824821 39.8591 0.867979 39.7885 0.938333C39.718 1.00868 39.6748 1.10168 39.6664 1.20083V7.91102C39.6468 9.66502 40.324 11.3555 41.55 12.6128C42.776 13.8702 44.451 14.5923 46.209 14.6212C47.889 14.6227 49.5115 14.0108 50.7707 12.9009L50.8989 13.0168L49.9022 14.3711V14.914C49.9022 16.2987 47.8172 17.0734 46.6004 17.0734H45.8238C45.7615 17.0693 45.6989 17.0776 45.6399 17.0979C45.5808 17.1181 45.5263 17.1499 45.4796 17.1913C45.433 17.2327 45.395 17.2831 45.368 17.3393C45.341 17.3955 45.3256 17.4565 45.3224 17.5188V19.727C45.3333 19.8511 45.3913 19.9662 45.4845 20.049C45.5777 20.1318 45.6991 20.1759 45.8238 20.1723H46.6004C50.318 20.1723 53.0328 18.0129 53.0328 13.9441V1.20083C53.0165 1.08985 52.9591 0.989008 52.872 0.917956C52.7848 0.846906 52.6743 0.810743 52.5619 0.816516Z" fill="#75EEA5"/>
</g>
</g>
<defs>
<clipPath id="clip0_2397_26401">
<rect width="69" height="20" fill="white" transform="translate(0.490234 0.427246)"/>
</clipPath>
</defs>
</svg>
