<svg width="87" height="21" viewBox="0 0 87 21" fill="none" xmlns="http://www.w3.org/2000/svg">
<g clip-path="url(#clip0_2397_26595)">
<path d="M60.5801 18.3103L60.4631 18.2875V10.1518C60.4631 2.78091 60.4709 2.01308 60.5453 1.98455C60.5905 1.96723 62.2411 1.95306 64.2132 1.95306C67.1705 1.95306 67.9088 1.96734 68.426 2.03451C69.379 2.15828 69.9665 2.32662 70.7008 2.68631C71.3171 2.98822 71.3799 3.03409 71.9276 3.58121C72.4224 4.07557 72.5352 4.22083 72.7181 4.59885C72.8354 4.84138 72.9955 5.24992 73.0739 5.50672C73.2129 5.96248 73.2164 6.00519 73.2182 7.29652C73.22 8.57368 73.2153 8.63556 73.0837 9.08632C72.5478 10.9222 71.1527 12.0724 68.9503 12.4945C68.4628 12.5879 68.133 12.6052 66.4654 12.6252C65.3283 12.6389 64.5214 12.6688 64.4906 12.6986C64.4579 12.7302 64.429 13.7806 64.4127 15.5347L64.3867 18.3206L62.5418 18.3269C61.5272 18.3303 60.6444 18.3228 60.5801 18.3103ZM67.4904 9.65908C68.0798 9.53438 68.7187 9.06851 68.9646 8.5841C69.0999 8.3175 69.2091 7.62069 69.1961 7.10599C69.1795 6.44802 68.8504 5.74519 68.4046 5.41592C68.0563 5.1587 67.7362 5.067 66.9851 5.00923C66.3877 4.9633 64.8085 4.98798 64.7166 5.04468C64.6432 5.08998 64.661 9.59877 64.7349 9.67254C64.829 9.76656 67.0332 9.75578 67.4904 9.65908ZM75.105 18.3108C75.055 18.2978 75.0117 18.248 75.0089 18.2001C75.006 18.1523 75.0002 14.5005 74.9959 10.085L74.9881 2.05682H76.8119H78.6357L78.6698 3.18517C78.6886 3.80577 78.705 5.20064 78.7063 6.2849C78.7088 8.25307 78.727 8.64535 78.8164 8.64535C78.8425 8.64535 79.0207 8.49824 79.2125 8.31844C79.9326 7.64335 80.7792 7.17219 81.4218 7.08884C82.3255 6.97164 83.4886 7.06238 84.0604 7.29467C85.2905 7.79439 85.9327 8.69187 86.2126 10.3026C86.311 10.8689 86.3205 11.382 86.304 15.2475L86.291 18.2961L84.5371 18.2824L82.7832 18.2688L82.7572 14.5595C82.7316 10.8949 82.7299 10.8473 82.619 10.6076C82.3834 10.0988 81.8337 9.65007 81.2687 9.50532C80.8421 9.39605 80.606 9.40221 80.2189 9.53274C79.4621 9.78787 78.9567 10.4165 78.7739 11.3299C78.7081 11.6584 78.6887 12.3381 78.6678 15.0393L78.6421 18.3466L76.919 18.3406C75.9713 18.3373 75.155 18.3239 75.105 18.3108ZM0.32194 8.03579C0.334846 3.29011 0.32025 3.46999 0.765026 2.5756C0.951581 2.20047 1.07367 2.04557 1.58285 1.53799C2.09634 1.02613 2.24415 0.910789 2.62311 0.726278C3.48012 0.309013 3.52522 0.304512 7.13697 0.27582L10.3256 0.250488L10.8007 0.573052C12.3296 1.61123 12.7568 1.91369 12.7568 1.95802C12.7568 1.98524 12.7042 2.02795 12.6399 2.05294C12.5756 2.07793 12.135 2.36462 11.6609 2.69004C11.1868 3.01546 10.7074 3.33878 10.5956 3.40853L10.3923 3.53535L7.35217 3.56129L4.31206 3.58723C3.93094 3.57866 3.51604 3.73036 3.53254 4.29646L3.51826 8.19209C3.50825 10.9245 3.48695 12.1082 3.44694 12.1563C3.40198 12.2104 3.06365 12.225 1.85022 12.225L0.310547 12.225L0.32194 8.03579Z" fill="#204884"/>
<path d="M35.8259 20.6038C35.7229 20.5479 35.119 19.9321 34.5992 19.4182L33.6207 18.4705C33.248 18.4968 32.8829 18.5868 32.5108 18.6306C32.0052 18.6901 31.0949 18.7836 31.0495 18.7104C31.018 18.6595 31.0051 18.6599 30.9877 18.712C30.9699 18.7651 30.7945 18.7659 30.0849 18.716C28.7113 18.6194 27.7552 18.3655 26.6058 17.7922C25.8565 17.4185 25.4501 17.1217 24.8118 16.4822C23.9045 15.5732 23.3518 14.6715 22.9486 13.4424C22.0727 10.7725 22.3374 7.67173 23.6301 5.45897C25.1037 2.93667 27.6132 1.64587 31.0491 1.64283C32.8464 1.64124 34.3085 1.94171 35.5542 2.56868C36.2604 2.92412 36.7543 3.28492 37.3703 3.89524C38.3899 4.90546 39.0718 6.11204 39.4036 7.84118C39.6637 9.19724 39.6589 10.0402 39.6532 10.237C39.6474 10.4379 39.723 11.4675 39.1647 13.4181C38.8888 14.382 38.2089 15.5487 37.5402 16.2795C37.3142 16.5265 37.1293 16.7507 37.1293 16.7777C37.1293 16.8302 37.7324 17.427 38.2466 17.8834C39.2876 18.8074 39.4824 19.0257 40.2353 19.7191C40.4451 19.9124 41.0451 20.4818 41.1336 20.59C41.1431 20.6017 40.1228 20.5851 39.0704 20.5969C38.018 20.6087 36.871 20.5982 36.5163 20.5984C36.2338 20.5986 35.8259 20.6038 35.8259 20.6038ZM31.8928 15.4973C32.9453 15.2704 33.2567 15.1463 33.6866 14.7822C34.4325 14.1507 34.8863 13.2397 35.1565 11.7657C35.2021 11.5168 35.2724 11.0504 35.2535 10.0085C35.2332 8.89338 35.0321 8.04027 34.9566 7.81927C34.3237 5.96547 33.2856 4.90247 31.7604 4.75008C31.5534 4.72941 30.9051 4.68966 30.4305 4.74887C30.0345 4.79826 29.8271 4.86381 29.5335 4.95997C29.2351 5.05489 28.6704 5.43312 28.3959 5.72189C27.401 6.76867 26.9423 8.18863 26.9446 10.2143C26.9477 13.0093 27.8121 14.7874 29.4208 15.308C30.0665 15.517 31.3468 15.615 31.8928 15.4973ZM8.79288 18.9984C8.56315 18.8823 7.11379 17.9009 6.81306 17.6577L6.66406 17.5373L7.15085 17.2062C7.41858 17.0241 7.84811 16.7362 8.10535 16.5663C8.36259 16.3964 8.63703 16.2134 8.71522 16.1597C9.01698 15.9521 9.07285 15.9483 12.0289 15.9365C15.1293 15.9242 15.4718 15.9644 15.7464 15.7075C16.0078 15.4629 15.9493 14.95 15.9573 14.5853C15.9636 14.2993 15.9629 12.5526 15.9573 10.7022L15.9472 7.33792L16.0701 7.29125C16.1378 7.26558 16.8464 7.24458 17.6448 7.24458H19.0965L19.1095 10.6556C19.1278 15.4581 19.1305 15.3015 19.0206 15.8045C18.8477 16.5959 18.2687 17.6249 17.7453 18.0709C17.1067 18.6151 16.2995 19.007 15.6666 19.08C15.4523 19.1047 13.8713 19.1234 12.1533 19.1215L9.02967 19.1181L8.79288 18.9984ZM43.3005 18.2548C42.404 18.2442 42.119 18.2254 42.1216 18.177C42.1234 18.1418 42.1151 14.4797 42.103 10.0389L42.0811 1.96465L43.7756 1.92556C46.9275 1.85286 49.9415 1.94135 50.9787 2.13705C52.2507 2.37705 53.0365 2.73487 53.6541 3.35524C54.1188 3.8221 54.3874 4.25897 54.5779 4.85818C54.7129 5.28258 54.7928 5.8962 54.7833 6.44047C54.7723 7.06545 54.7104 7.59518 54.5737 7.99374C54.3781 8.56412 54.1004 9.03941 53.784 9.34565C53.3967 9.72045 52.8426 10.0951 52.0578 10.4604C51.8969 10.5353 51.0047 10.9175 51.0047 10.9447C51.0047 11.0018 51.1012 11.0836 51.3944 11.2751C52.0428 11.6985 52.8523 12.6006 53.5876 13.7187C53.8071 14.0527 54.1168 14.501 54.2756 14.715C54.4345 14.9289 54.8025 15.4425 55.0933 15.8563C55.3842 16.2701 55.8636 16.9429 56.1587 17.3515C56.4537 17.7601 56.7235 18.134 56.7582 18.1822C56.8173 18.2643 56.6876 18.2693 54.7575 18.2589C53.6224 18.2528 52.617 18.2467 52.5234 18.2453C52.3406 18.2426 52.4032 18.3291 50.7691 15.8216C49.1855 13.3918 48.5554 12.5885 47.9646 12.2459C47.7148 12.1011 47.679 12.0952 47.044 12.0952C46.4835 12.0952 46.3694 12.109 46.2921 12.1862C46.2074 12.2707 46.2009 12.4866 46.1993 15.247C46.1982 17.1642 46.1792 18.2307 46.1457 18.256C46.1171 18.2775 45.7312 18.2892 45.2882 18.2819C44.8452 18.2747 43.9507 18.2624 43.3005 18.2548ZM48.8101 9.13411C49.2634 9.03283 49.5208 8.88897 49.9014 8.52416C50.4294 8.01805 50.597 7.64539 50.5927 6.98704C50.5875 6.17166 50.2207 5.50514 49.6231 5.22468C49.122 4.98954 48.8669 4.95917 47.5179 4.97397L46.2496 4.98788L46.2347 6.93331C46.2264 8.0033 46.2332 8.95378 46.2497 9.04549L46.2796 9.21224L46.7843 9.22707C47.6063 9.25121 48.4617 9.21196 48.8101 9.13411Z" fill="#CE1126"/>
<path d="M9.66971 14.2378C12.1452 14.2378 14.1519 12.2345 14.1519 9.76331C14.1519 7.29212 12.1452 5.28882 9.66971 5.28882C7.19425 5.28882 5.1875 7.29212 5.1875 9.76331C5.1875 12.2345 7.19425 14.2378 9.66971 14.2378Z" fill="#FCD116"/>
</g>
<defs>
<clipPath id="clip0_2397_26595">
<rect width="86" height="20.3533" fill="white" transform="translate(0.310547 0.250488)"/>
</clipPath>
</defs>
</svg>
