<svg width="24" height="20" viewBox="0 0 24 20" fill="none" xmlns="http://www.w3.org/2000/svg">
<g clip-path="url(#clip0_694_2784)">
<path d="M15.7187 0H6.98164L6.25706 4.15547L14.1433 4.16507C18.028 4.16507 19.1733 5.6142 19.1406 8.01344C19.1219 9.24184 18.603 11.3244 18.3786 12.001C17.7802 13.8004 16.5508 15.8493 11.9415 15.8445L4.27498 15.8397L3.55273 20H12.2711C15.347 20 16.6513 19.6305 18.0397 18.9779C21.111 17.5144 22.9388 14.405 23.6727 10.3455C24.7596 4.29942 23.4039 0 15.7187 0Z" fill="#008DE4"/>
<path d="M3.21153 7.9126C0.920919 7.9126 0.593689 9.44331 0.378652 10.3694C0.0934944 11.5786 0 12.0729 0 12.0729H8.94741C11.238 12.0729 11.5653 10.5422 11.7803 9.61605C12.0654 8.40684 12.1589 7.9126 12.1589 7.9126H3.21153Z" fill="#008DE4"/>
</g>
<defs>
<clipPath id="clip0_694_2784">
<rect width="24" height="20" fill="white"/>
</clipPath>
</defs>
</svg>
