<svg width="24" height="21" viewBox="0 0 24 21" fill="none" xmlns="http://www.w3.org/2000/svg">
<g clip-path="url(#clip0_694_2939)">
<path fill-rule="evenodd" clip-rule="evenodd" d="M4.39403 0.10314L0.0179909 9.34892C0.00133879 9.3833 -0.00393815 9.42215 0.00293176 9.45977C0.00980167 9.4974 0.028458 9.53182 0.0561726 9.55801L11.8748 20.9495C11.9084 20.9819 11.9531 21 11.9996 21C12.0461 21 12.0908 20.9819 12.1244 20.9495L23.943 9.55872C23.9708 9.53253 23.9894 9.49811 23.9963 9.46048C24.0032 9.42286 23.9979 9.38402 23.9812 9.34963L19.6052 0.103851C19.5911 0.0727997 19.5683 0.0464954 19.5398 0.0280817C19.5112 0.00966799 19.4779 -7.61701e-05 19.444 1.37637e-05H4.55666C4.52255 -0.00041308 4.48905 0.00909636 4.46019 0.027395C4.43133 0.0456935 4.40836 0.0719996 4.39403 0.10314Z" fill="#50AF95"/>
<path fill-rule="evenodd" clip-rule="evenodd" d="M13.5186 10.2985C13.4338 10.3049 12.9954 10.3312 12.0175 10.3312C11.2397 10.3312 10.6875 10.3077 10.4938 10.2985C7.48804 10.1655 5.24451 9.63919 5.24451 9.00906C5.24451 8.37892 7.48804 7.85334 10.4938 7.7182V9.77432C10.6903 9.78855 11.2532 9.82198 12.0309 9.82198C12.9643 9.82198 13.4317 9.78286 13.5158 9.77503V7.71963C16.5152 7.85405 18.7538 8.38034 18.7538 9.00906C18.7538 9.63777 16.5159 10.1641 13.5158 10.2978L13.5186 10.2985ZM13.5186 7.50698V5.66707H17.7045V2.86133H6.30794V5.66707H10.4931V7.50626C7.09137 7.66344 4.5332 8.34123 4.5332 9.15343C4.5332 9.96564 7.09137 10.6427 10.4931 10.8006V16.6966H13.5179V10.7985C16.9118 10.6413 19.4658 9.96422 19.4658 9.15272C19.4658 8.34123 16.914 7.66415 13.5179 7.50626L13.5186 7.50698Z" fill="white"/>
</g>
<defs>
<clipPath id="clip0_694_2939">
<rect width="24" height="21" fill="white"/>
</clipPath>
</defs>
</svg>
